#usda 1.0
(
    defaultPrim = "O2Rails"
    metersPerUnit = 1
    upAxis = "Z"
    doc = "3D-printed adjustable rail cradle + retaining straps (136 g). Origin at tank rest plane (robot back top)."
)

def Xform "O2Rails"
{
    def Mesh "BasePlate"
    {
        point3f[] points = [(-0.05588, -0.131318, -0.007112), (-0.05588, -0.131318, 0), (-0.05588, 0.131318, -0.007112), (-0.05588, 0.131318, 0), (0.05588, -0.131318, -0.007112), (0.05588, -0.131318, 0), (0.05588, 0.131318, -0.007112), (0.05588, 0.131318, 0)]
        int[] faceVertexCounts = [4, 4, 4, 4, 4, 4]
        int[] faceVertexIndices = [4, 6, 7, 5, 0, 1, 3, 2, 2, 3, 7, 6, 0, 4, 5, 1, 1, 5, 7, 3, 0, 2, 6, 4]
        normal3f[] normals = [(1, 0, 0), (1, 0, 0), (1, 0, 0), (1, 0, 0), (-1, 0, 0), (-1, 0, 0), (-1, 0, 0), (-1, 0, 0), (0, 1, 0), (0, 1, 0), (0, 1, 0), (0, 1, 0), (0, -1, 0), (0, -1, 0), (0, -1, 0), (0, -1, 0), (0, 0, 1), (0, 0, 1), (0, 0, 1), (0, 0, 1), (0, 0, -1), (0, 0, -1), (0, 0, -1), (0, 0, -1)] (interpolation = "faceVarying")
        float3[] extent = [(-0.05588, -0.131318, -0.007112), (0.05588, 0.131318, 0)]
        uniform token subdivisionScheme = "none"
        bool doubleSided = false
        color3f[] primvars:displayColor = [(0.18, 0.19, 0.22)] (interpolation = "constant")
        float[] primvars:displayRoughness = [0.6] (interpolation = "constant")
    }
    def Mesh "SideRailL"
    {
        point3f[] points = [(-0.05588, 0.118618, 0), (-0.05588, 0.118618, 0.06604), (-0.05588, 0.131318, 0), (-0.05588, 0.131318, 0.06604), (0.05588, 0.118618, 0), (0.05588, 0.118618, 0.06604), (0.05588, 0.131318, 0), (0.05588, 0.131318, 0.06604)]
        int[] faceVertexCounts = [4, 4, 4, 4, 4, 4]
        int[] faceVertexIndices = [4, 6, 7, 5, 0, 1, 3, 2, 2, 3, 7, 6, 0, 4, 5, 1, 1, 5, 7, 3, 0, 2, 6, 4]
        normal3f[] normals = [(1, 0, 0), (1, 0, 0), (1, 0, 0), (1, 0, 0), (-1, 0, 0), (-1, 0, 0), (-1, 0, 0), (-1, 0, 0), (0, 1, 0), (0, 1, 0), (0, 1, 0), (0, 1, 0), (0, -1, 0), (0, -1, 0), (0, -1, 0), (0, -1, 0), (0, 0, 1), (0, 0, 1), (0, 0, 1), (0, 0, 1), (0, 0, -1), (0, 0, -1), (0, 0, -1), (0, 0, -1)] (interpolation = "faceVarying")
        float3[] extent = [(-0.05588, 0.118618, 0), (0.05588, 0.131318, 0.06604)]
        uniform token subdivisionScheme = "none"
        bool doubleSided = false
        color3f[] primvars:displayColor = [(0.18, 0.19, 0.22)] (interpolation = "constant")
        float[] primvars:displayRoughness = [0.6] (interpolation = "constant")
    }
    def Mesh "RailHolesL"
    {
        point3f[] points = [(-0.0352336, 0.124333, 0.036322), (-0.0352336, 0.138303, 0.036322), (-0.0359035, 0.124333, 0.038822), (-0.0359035, 0.138303, 0.038822), (-0.0377336, 0.124333, 0.0406521), (-0.0377336, 0.138303, 0.0406521), (-0.0402336, 0.124333, 0.041322), (-0.0402336, 0.138303, 0.041322), (-0.0427336, 0.124333, 0.0406521), (-0.0427336, 0.138303, 0.0406521), (-0.0445637, 0.124333, 0.038822), (-0.0445637, 0.138303, 0.038822), (-0.0452336, 0.124333, 0.036322), (-0.0452336, 0.138303, 0.036322), (-0.0445637, 0.124333, 0.033822), (-0.0445637, 0.138303, 0.033822), (-0.0427336, 0.124333, 0.0319919), (-0.0427336, 0.138303, 0.0319919), (-0.0402336, 0.124333, 0.031322), (-0.0402336, 0.138303, 0.031322), (-0.0377336, 0.124333, 0.0319919), (-0.0377336, 0.138303, 0.0319919), (-0.0359035, 0.124333, 0.033822), (-0.0359035, 0.138303, 0.033822), (-0.0151168, 0.124333, 0.036322), (-0.0151168, 0.138303, 0.036322), (-0.0157867, 0.124333, 0.038822), (-0.0157867, 0.138303, 0.038822), (-0.0176168, 0.124333, 0.0406521), (-0.0176168, 0.138303, 0.0406521), (-0.0201168, 0.124333, 0.041322), (-0.0201168, 0.138303, 0.041322), (-0.0226168, 0.124333, 0.0406521), (-0.0226168, 0.138303, 0.0406521), (-0.0244469, 0.124333, 0.038822), (-0.0244469, 0.138303, 0.038822), (-0.0251168, 0.124333, 0.036322), (-0.0251168, 0.138303, 0.036322), (-0.0244469, 0.124333, 0.033822), (-0.0244469, 0.138303, 0.033822), (-0.0226168, 0.124333, 0.0319919), (-0.0226168, 0.138303, 0.0319919), (-0.0201168, 0.124333, 0.031322), (-0.0201168, 0.138303, 0.031322), (-0.0176168, 0.124333, 0.0319919), (-0.0176168, 0.138303, 0.0319919), (-0.0157867, 0.124333, 0.033822), (-0.0157867, 0.138303, 0.033822), (0.005, 0.124333, 0.036322), (0.005, 0.138303, 0.036322), (0.00433013, 0.124333, 0.038822), (0.00433013, 0.138303, 0.038822), (0.0025, 0.124333, 0.0406521), (0.0025, 0.138303, 0.0406521), (3.06162e-19, 0.124333, 0.041322), (3.06162e-19, 0.138303, 0.041322), (-0.0025, 0.124333, 0.0406521), (-0.0025, 0.138303, 0.0406521), (-0.00433013, 0.124333, 0.038822), (-0.00433013, 0.138303, 0.038822), (-0.005, 0.124333, 0.036322), (-0.005, 0.138303, 0.036322), (-0.00433013, 0.124333, 0.033822), (-0.00433013, 0.138303, 0.033822), (-0.0025, 0.124333, 0.0319919), (-0.0025, 0.138303, 0.0319919), (-9.18485e-19, 0.124333, 0.031322), (-9.18485e-19, 0.138303, 0.031322), (0.0025, 0.124333, 0.0319919), (0.0025, 0.138303, 0.0319919), (0.00433013, 0.124333, 0.033822), (0.00433013, 0.138303, 0.033822), (0.0251168, 0.124333, 0.036322), (0.0251168, 0.138303, 0.036322), (0.0244469, 0.124333, 0.038822), (0.0244469, 0.138303, 0.038822), (0.0226168, 0.124333, 0.0406521), (0.0226168, 0.138303, 0.0406521), (0.0201168, 0.124333, 0.041322), (0.0201168, 0.138303, 0.041322), (0.0176168, 0.124333, 0.0406521), (0.0176168, 0.138303, 0.0406521), (0.0157867, 0.124333, 0.038822), (0.0157867, 0.138303, 0.038822), (0.0151168, 0.124333, 0.036322), (0.0151168, 0.138303, 0.036322), (0.0157867, 0.124333, 0.033822), (0.0157867, 0.138303, 0.033822), (0.0176168, 0.124333, 0.0319919), (0.0176168, 0.138303, 0.0319919), (0.0201168, 0.124333, 0.031322), (0.0201168, 0.138303, 0.031322), (0.0226168, 0.124333, 0.0319919), (0.0226168, 0.138303, 0.0319919), (0.0244469, 0.124333, 0.033822), (0.0244469, 0.138303, 0.033822), (0.0452336, 0.124333, 0.036322), (0.0452336, 0.138303, 0.036322), (0.0445637, 0.124333, 0.038822), (0.0445637, 0.138303, 0.038822), (0.0427336, 0.124333, 0.0406521), (0.0427336, 0.138303, 0.0406521), (0.0402336, 0.124333, 0.041322), (0.0402336, 0.138303, 0.041322), (0.0377336, 0.124333, 0.0406521), (0.0377336, 0.138303, 0.0406521), (0.0359035, 0.124333, 0.038822), (0.0359035, 0.138303, 0.038822), (0.0352336, 0.124333, 0.036322), (0.0352336, 0.138303, 0.036322), (0.0359035, 0.124333, 0.033822), (0.0359035, 0.138303, 0.033822), (0.0377336, 0.124333, 0.0319919), (0.0377336, 0.138303, 0.0319919), (0.0402336, 0.124333, 0.031322), (0.0402336, 0.138303, 0.031322), (0.0427336, 0.124333, 0.0319919), (0.0427336, 0.138303, 0.0319919), (0.0445637, 0.124333, 0.033822), (0.0445637, 0.138303, 0.033822)]
        int[] faceVertexCounts = [4, 4, 4, 4, 4, 4, 4, 4, 4, 4, 4, 4, 12, 12, 4, 4, 4, 4, 4, 4, 4, 4, 4, 4, 4, 4, 12, 12, 4, 4, 4, 4, 4, 4, 4, 4, 4, 4, 4, 4, 12, 12, 4, 4, 4, 4, 4, 4, 4, 4, 4, 4, 4, 4, 12, 12, 4, 4, 4, 4, 4, 4, 4, 4, 4, 4, 4, 4, 12, 12]
        int[] faceVertexIndices = [0, 2, 3, 1, 2, 4, 5, 3, 4, 6, 7, 5, 6, 8, 9, 7, 8, 10, 11, 9, 10, 12, 13, 11, 12, 14, 15, 13, 14, 16, 17, 15, 16, 18, 19, 17, 18, 20, 21, 19, 20, 22, 23, 21, 22, 0, 1, 23, 1, 3, 5, 7, 9, 11, 13, 15, 17, 19, 21, 23, 22, 20, 18, 16, 14, 12, 10, 8, 6, 4, 2, 0, 24, 26, 27, 25, 26, 28, 29, 27, 28, 30, 31, 29, 30, 32, 33, 31, 32, 34, 35, 33, 34, 36, 37, 35, 36, 38, 39, 37, 38, 40, 41, 39, 40, 42, 43, 41, 42, 44, 45, 43, 44, 46, 47, 45, 46, 24, 25, 47, 25, 27, 29, 31, 33, 35, 37, 39, 41, 43, 45, 47, 46, 44, 42, 40, 38, 36, 34, 32, 30, 28, 26, 24, 48, 50, 51, 49, 50, 52, 53, 51, 52, 54, 55, 53, 54, 56, 57, 55, 56, 58, 59, 57, 58, 60, 61, 59, 60, 62, 63, 61, 62, 64, 65, 63, 64, 66, 67, 65, 66, 68, 69, 67, 68, 70, 71, 69, 70, 48, 49, 71, 49, 51, 53, 55, 57, 59, 61, 63, 65, 67, 69, 71, 70, 68, 66, 64, 62, 60, 58, 56, 54, 52, 50, 48, 72, 74, 75, 73, 74, 76, 77, 75, 76, 78, 79, 77, 78, 80, 81, 79, 80, 82, 83, 81, 82, 84, 85, 83, 84, 86, 87, 85, 86, 88, 89, 87, 88, 90, 91, 89, 90, 92, 93, 91, 92, 94, 95, 93, 94, 72, 73, 95, 73, 75, 77, 79, 81, 83, 85, 87, 89, 91, 93, 95, 94, 92, 90, 88, 86, 84, 82, 80, 78, 76, 74, 72, 96, 98, 99, 97, 98, 100, 101, 99, 100, 102, 103, 101, 102, 104, 105, 103, 104, 106, 107, 105, 106, 108, 109, 107, 108, 110, 111, 109, 110, 112, 113, 111, 112, 114, 115, 113, 114, 116, 117, 115, 116, 118, 119, 117, 118, 96, 97, 119, 97, 99, 101, 103, 105, 107, 109, 111, 113, 115, 117, 119, 118, 116, 114, 112, 110, 108, 106, 104, 102, 100, 98, 96]
        normal3f[] normals = [(-0.965926, 0, -0.258819), (-0.965926, 0, -0.258819), (-0.965926, 0, -0.258819), (-0.965926, 0, -0.258819), (-0.707107, 0, -0.707107), (-0.707107, 0, -0.707107), (-0.707107, 0, -0.707107), (-0.707107, 0, -0.707107), (-0.258819, 0, -0.965926), (-0.258819, 0, -0.965926), (-0.258819, 0, -0.965926), (-0.258819, 0, -0.965926), (0.258819, 0, -0.965926), (0.258819, 0, -0.965926), (0.258819, 0, -0.965926), (0.258819, 0, -0.965926), (0.707107, 0, -0.707107), (0.707107, 0, -0.707107), (0.707107, 0, -0.707107), (0.707107, 0, -0.707107), (0.965926, 0, -0.258819), (0.965926, 0, -0.258819), (0.965926, 0, -0.258819), (0.965926, 0, -0.258819), (0.965926, 0, 0.258819), (0.965926, 0, 0.258819), (0.965926, 0, 0.258819), (0.965926, 0, 0.258819), (0.707107, 0, 0.707107), (0.707107, 0, 0.707107), (0.707107, 0, 0.707107), (0.707107, 0, 0.707107), (0.258819, 0, 0.965926), (0.258819, 0, 0.965926), (0.258819, 0, 0.965926), (0.258819, 0, 0.965926), (-0.258819, 0, 0.965926), (-0.258819, 0, 0.965926), (-0.258819, 0, 0.965926), (-0.258819, 0, 0.965926), (-0.707107, 0, 0.707107), (-0.707107, 0, 0.707107), (-0.707107, 0, 0.707107), (-0.707107, 0, 0.707107), (-0.965926, 0, 0.258819), (-0.965926, 0, 0.258819), (-0.965926, 0, 0.258819), (-0.965926, 0, 0.258819), (0, -1, -3.25261e-15), (0, -1, -3.25261e-15), (0, -1, -3.25261e-15), (0, -1, -3.25261e-15), (0, -1, -3.25261e-15), (0, -1, -3.25261e-15), (0, -1, -3.25261e-15), (0, -1, -3.25261e-15), (0, -1, -3.25261e-15), (0, -1, -3.25261e-15), (0, -1, -3.25261e-15), (0, -1, -3.25261e-15), (0, 1, 0), (0, 1, 0), (0, 1, 0), (0, 1, 0), (0, 1, 0), (0, 1, 0), (0, 1, 0), (0, 1, 0), (0, 1, 0), (0, 1, 0), (0, 1, 0), (0, 1, 0), (-0.965926, 0, -0.258819), (-0.965926, 0, -0.258819), (-0.965926, 0, -0.258819), (-0.965926, 0, -0.258819), (-0.707107, 0, -0.707107), (-0.707107, 0, -0.707107), (-0.707107, 0, -0.707107), (-0.707107, 0, -0.707107), (-0.258819, 0, -0.965926), (-0.258819, 0, -0.965926), (-0.258819, 0, -0.965926), (-0.258819, 0, -0.965926), (0.258819, 0, -0.965926), (0.258819, 0, -0.965926), (0.258819, 0, -0.965926), (0.258819, 0, -0.965926), (0.707107, 0, -0.707107), (0.707107, 0, -0.707107), (0.707107, 0, -0.707107), (0.707107, 0, -0.707107), (0.965926, 0, -0.258819), (0.965926, 0, -0.258819), (0.965926, 0, -0.258819), (0.965926, 0, -0.258819), (0.965926, 0, 0.258819), (0.965926, 0, 0.258819), (0.965926, 0, 0.258819), (0.965926, 0, 0.258819), (0.707107, 0, 0.707107), (0.707107, 0, 0.707107), (0.707107, 0, 0.707107), (0.707107, 0, 0.707107), (0.258819, 0, 0.965926), (0.258819, 0, 0.965926), (0.258819, 0, 0.965926), (0.258819, 0, 0.965926), (-0.258819, 0, 0.965926), (-0.258819, 0, 0.965926), (-0.258819, 0, 0.965926), (-0.258819, 0, 0.965926), (-0.707107, 0, 0.707107), (-0.707107, 0, 0.707107), (-0.707107, 0, 0.707107), (-0.707107, 0, 0.707107), (-0.965926, 0, 0.258819), (-0.965926, 0, 0.258819), (-0.965926, 0, 0.258819), (-0.965926, 0, 0.258819), (0, -1, -1.0842e-15), (0, -1, -1.0842e-15), (0, -1, -1.0842e-15), (0, -1, -1.0842e-15), (0, -1, -1.0842e-15), (0, -1, -1.0842e-15), (0, -1, -1.0842e-15), (0, -1, -1.0842e-15), (0, -1, -1.0842e-15), (0, -1, -1.0842e-15), (0, -1, -1.0842e-15), (0, -1, -1.0842e-15), (0, 1, 0), (0, 1, 0), (0, 1, 0), (0, 1, 0), (0, 1, 0), (0, 1, 0), (0, 1, 0), (0, 1, 0), (0, 1, 0), (0, 1, 0), (0, 1, 0), (0, 1, 0), (-0.965926, 0, -0.258819), (-0.965926, 0, -0.258819), (-0.965926, 0, -0.258819), (-0.965926, 0, -0.258819), (-0.707107, 0, -0.707107), (-0.707107, 0, -0.707107), (-0.707107, 0, -0.707107), (-0.707107, 0, -0.707107), (-0.258819, 0, -0.965926), (-0.258819, 0, -0.965926), (-0.258819, 0, -0.965926), (-0.258819, 0, -0.965926), (0.258819, 0, -0.965926), (0.258819, 0, -0.965926), (0.258819, 0, -0.965926), (0.258819, 0, -0.965926), (0.707107, 0, -0.707107), (0.707107, 0, -0.707107), (0.707107, 0, -0.707107), (0.707107, 0, -0.707107), (0.965926, 0, -0.258819), (0.965926, 0, -0.258819), (0.965926, 0, -0.258819), (0.965926, 0, -0.258819), (0.965926, 0, 0.258819), (0.965926, 0, 0.258819), (0.965926, 0, 0.258819), (0.965926, 0, 0.258819), (0.707107, 0, 0.707107), (0.707107, 0, 0.707107), (0.707107, 0, 0.707107), (0.707107, 0, 0.707107), (0.258819, 0, 0.965926), (0.258819, 0, 0.965926), (0.258819, 0, 0.965926), (0.258819, 0, 0.965926), (-0.258819, 0, 0.965926), (-0.258819, 0, 0.965926), (-0.258819, 0, 0.965926), (-0.258819, 0, 0.965926), (-0.707107, 0, 0.707107), (-0.707107, 0, 0.707107), (-0.707107, 0, 0.707107), (-0.707107, 0, 0.707107), (-0.965926, 0, 0.258819), (-0.965926, 0, 0.258819), (-0.965926, 0, 0.258819), (-0.965926, 0, 0.258819), (0, -1, -1.0842e-15), (0, -1, -1.0842e-15), (0, -1, -1.0842e-15), (0, -1, -1.0842e-15), (0, -1, -1.0842e-15), (0, -1, -1.0842e-15), (0, -1, -1.0842e-15), (0, -1, -1.0842e-15), (0, -1, -1.0842e-15), (0, -1, -1.0842e-15), (0, -1, -1.0842e-15), (0, -1, -1.0842e-15), (0, 1, 7.22801e-16), (0, 1, 7.22801e-16), (0, 1, 7.22801e-16), (0, 1, 7.22801e-16), (0, 1, 7.22801e-16), (0, 1, 7.22801e-16), (0, 1, 7.22801e-16), (0, 1, 7.22801e-16), (0, 1, 7.22801e-16), (0, 1, 7.22801e-16), (0, 1, 7.22801e-16), (0, 1, 7.22801e-16), (-0.965926, 0, -0.258819), (-0.965926, 0, -0.258819), (-0.965926, 0, -0.258819), (-0.965926, 0, -0.258819), (-0.707107, 0, -0.707107), (-0.707107, 0, -0.707107), (-0.707107, 0, -0.707107), (-0.707107, 0, -0.707107), (-0.258819, 0, -0.965926), (-0.258819, 0, -0.965926), (-0.258819, 0, -0.965926), (-0.258819, 0, -0.965926), (0.258819, 0, -0.965926), (0.258819, 0, -0.965926), (0.258819, 0, -0.965926), (0.258819, 0, -0.965926), (0.707107, 0, -0.707107), (0.707107, 0, -0.707107), (0.707107, 0, -0.707107), (0.707107, 0, -0.707107), (0.965926, 0, -0.258819), (0.965926, 0, -0.258819), (0.965926, 0, -0.258819), (0.965926, 0, -0.258819), (0.965926, 0, 0.258819), (0.965926, 0, 0.258819), (0.965926, 0, 0.258819), (0.965926, 0, 0.258819), (0.707107, 0, 0.707107), (0.707107, 0, 0.707107), (0.707107, 0, 0.707107), (0.707107, 0, 0.707107), (0.258819, 0, 0.965926), (0.258819, 0, 0.965926), (0.258819, 0, 0.965926), (0.258819, 0, 0.965926), (-0.258819, 0, 0.965926), (-0.258819, 0, 0.965926), (-0.258819, 0, 0.965926), (-0.258819, 0, 0.965926), (-0.707107, 0, 0.707107), (-0.707107, 0, 0.707107), (-0.707107, 0, 0.707107), (-0.707107, 0, 0.707107), (-0.965926, 0, 0.258819), (-0.965926, 0, 0.258819), (-0.965926, 0, 0.258819), (-0.965926, 0, 0.258819), (0, -1, -1.0842e-15), (0, -1, -1.0842e-15), (0, -1, -1.0842e-15), (0, -1, -1.0842e-15), (0, -1, -1.0842e-15), (0, -1, -1.0842e-15), (0, -1, -1.0842e-15), (0, -1, -1.0842e-15), (0, -1, -1.0842e-15), (0, -1, -1.0842e-15), (0, -1, -1.0842e-15), (0, -1, -1.0842e-15), (0, 1, 0), (0, 1, 0), (0, 1, 0), (0, 1, 0), (0, 1, 0), (0, 1, 0), (0, 1, 0), (0, 1, 0), (0, 1, 0), (0, 1, 0), (0, 1, 0), (0, 1, 0), (-0.965926, 0, -0.258819), (-0.965926, 0, -0.258819), (-0.965926, 0, -0.258819), (-0.965926, 0, -0.258819), (-0.707107, 0, -0.707107), (-0.707107, 0, -0.707107), (-0.707107, 0, -0.707107), (-0.707107, 0, -0.707107), (-0.258819, 0, -0.965926), (-0.258819, 0, -0.965926), (-0.258819, 0, -0.965926), (-0.258819, 0, -0.965926), (0.258819, 0, -0.965926), (0.258819, 0, -0.965926), (0.258819, 0, -0.965926), (0.258819, 0, -0.965926), (0.707107, 0, -0.707107), (0.707107, 0, -0.707107), (0.707107, 0, -0.707107), (0.707107, 0, -0.707107), (0.965926, 0, -0.258819), (0.965926, 0, -0.258819), (0.965926, 0, -0.258819), (0.965926, 0, -0.258819), (0.965926, 0, 0.258819), (0.965926, 0, 0.258819), (0.965926, 0, 0.258819), (0.965926, 0, 0.258819), (0.707107, 0, 0.707107), (0.707107, 0, 0.707107), (0.707107, 0, 0.707107), (0.707107, 0, 0.707107), (0.258819, 0, 0.965926), (0.258819, 0, 0.965926), (0.258819, 0, 0.965926), (0.258819, 0, 0.965926), (-0.258819, 0, 0.965926), (-0.258819, 0, 0.965926), (-0.258819, 0, 0.965926), (-0.258819, 0, 0.965926), (-0.707107, 0, 0.707107), (-0.707107, 0, 0.707107), (-0.707107, 0, 0.707107), (-0.707107, 0, 0.707107), (-0.965926, 0, 0.258819), (-0.965926, 0, 0.258819), (-0.965926, 0, 0.258819), (-0.965926, 0, 0.258819), (0, -1, -3.25261e-15), (0, -1, -3.25261e-15), (0, -1, -3.25261e-15), (0, -1, -3.25261e-15), (0, -1, -3.25261e-15), (0, -1, -3.25261e-15), (0, -1, -3.25261e-15), (0, -1, -3.25261e-15), (0, -1, -3.25261e-15), (0, -1, -3.25261e-15), (0, -1, -3.25261e-15), (0, -1, -3.25261e-15), (0, 1, 0), (0, 1, 0), (0, 1, 0), (0, 1, 0), (0, 1, 0), (0, 1, 0), (0, 1, 0), (0, 1, 0), (0, 1, 0), (0, 1, 0), (0, 1, 0), (0, 1, 0)] (interpolation = "faceVarying")
        float3[] extent = [(-0.0452336, 0.124333, 0.031322), (0.0452336, 0.138303, 0.041322)]
        uniform token subdivisionScheme = "none"
        bool doubleSided = false
        color3f[] primvars:displayColor = [(0.06, 0.06, 0.07)] (interpolation = "constant")
        float[] primvars:displayRoughness = [0.7] (interpolation = "constant")
    }
    def Mesh "SideRailR"
    {
        point3f[] points = [(-0.05588, -0.131318, 0), (-0.05588, -0.131318, 0.06604), (-0.05588, -0.118618, 0), (-0.05588, -0.118618, 0.06604), (0.05588, -0.131318, 0), (0.05588, -0.131318, 0.06604), (0.05588, -0.118618, 0), (0.05588, -0.118618, 0.06604)]
        int[] faceVertexCounts = [4, 4, 4, 4, 4, 4]
        int[] faceVertexIndices = [4, 6, 7, 5, 0, 1, 3, 2, 2, 3, 7, 6, 0, 4, 5, 1, 1, 5, 7, 3, 0, 2, 6, 4]
        normal3f[] normals = [(1, 0, 0), (1, 0, 0), (1, 0, 0), (1, 0, 0), (-1, 0, 0), (-1, 0, 0), (-1, 0, 0), (-1, 0, 0), (0, 1, 0), (0, 1, 0), (0, 1, 0), (0, 1, 0), (0, -1, 0), (0, -1, 0), (0, -1, 0), (0, -1, 0), (0, 0, 1), (0, 0, 1), (0, 0, 1), (0, 0, 1), (0, 0, -1), (0, 0, -1), (0, 0, -1), (0, 0, -1)] (interpolation = "faceVarying")
        float3[] extent = [(-0.05588, -0.131318, 0), (0.05588, -0.118618, 0.06604)]
        uniform token subdivisionScheme = "none"
        bool doubleSided = false
        color3f[] primvars:displayColor = [(0.18, 0.19, 0.22)] (interpolation = "constant")
        float[] primvars:displayRoughness = [0.6] (interpolation = "constant")
    }
    def Mesh "RailHolesR"
    {
        point3f[] points = [(-0.0352336, -0.138303, 0.036322), (-0.0352336, -0.124333, 0.036322), (-0.0359035, -0.138303, 0.038822), (-0.0359035, -0.124333, 0.038822), (-0.0377336, -0.138303, 0.0406521), (-0.0377336, -0.124333, 0.0406521), (-0.0402336, -0.138303, 0.041322), (-0.0402336, -0.124333, 0.041322), (-0.0427336, -0.138303, 0.0406521), (-0.0427336, -0.124333, 0.0406521), (-0.0445637, -0.138303, 0.038822), (-0.0445637, -0.124333, 0.038822), (-0.0452336, -0.138303, 0.036322), (-0.0452336, -0.124333, 0.036322), (-0.0445637, -0.138303, 0.033822), (-0.0445637, -0.124333, 0.033822), (-0.0427336, -0.138303, 0.0319919), (-0.0427336, -0.124333, 0.0319919), (-0.0402336, -0.138303, 0.031322), (-0.0402336, -0.124333, 0.031322), (-0.0377336, -0.138303, 0.0319919), (-0.0377336, -0.124333, 0.0319919), (-0.0359035, -0.138303, 0.033822), (-0.0359035, -0.124333, 0.033822), (-0.0151168, -0.138303, 0.036322), (-0.0151168, -0.124333, 0.036322), (-0.0157867, -0.138303, 0.038822), (-0.0157867, -0.124333, 0.038822), (-0.0176168, -0.138303, 0.0406521), (-0.0176168, -0.124333, 0.0406521), (-0.0201168, -0.138303, 0.041322), (-0.0201168, -0.124333, 0.041322), (-0.0226168, -0.138303, 0.0406521), (-0.0226168, -0.124333, 0.0406521), (-0.0244469, -0.138303, 0.038822), (-0.0244469, -0.124333, 0.038822), (-0.0251168, -0.138303, 0.036322), (-0.0251168, -0.124333, 0.036322), (-0.0244469, -0.138303, 0.033822), (-0.0244469, -0.124333, 0.033822), (-0.0226168, -0.138303, 0.0319919), (-0.0226168, -0.124333, 0.0319919), (-0.0201168, -0.138303, 0.031322), (-0.0201168, -0.124333, 0.031322), (-0.0176168, -0.138303, 0.0319919), (-0.0176168, -0.124333, 0.0319919), (-0.0157867, -0.138303, 0.033822), (-0.0157867, -0.124333, 0.033822), (0.005, -0.138303, 0.036322), (0.005, -0.124333, 0.036322), (0.00433013, -0.138303, 0.038822), (0.00433013, -0.124333, 0.038822), (0.0025, -0.138303, 0.0406521), (0.0025, -0.124333, 0.0406521), (3.06162e-19, -0.138303, 0.041322), (3.06162e-19, -0.124333, 0.041322), (-0.0025, -0.138303, 0.0406521), (-0.0025, -0.124333, 0.0406521), (-0.00433013, -0.138303, 0.038822), (-0.00433013, -0.124333, 0.038822), (-0.005, -0.138303, 0.036322), (-0.005, -0.124333, 0.036322), (-0.00433013, -0.138303, 0.033822), (-0.00433013, -0.124333, 0.033822), (-0.0025, -0.138303, 0.0319919), (-0.0025, -0.124333, 0.0319919), (-9.18485e-19, -0.138303, 0.031322), (-9.18485e-19, -0.124333, 0.031322), (0.0025, -0.138303, 0.0319919), (0.0025, -0.124333, 0.0319919), (0.00433013, -0.138303, 0.033822), (0.00433013, -0.124333, 0.033822), (0.0251168, -0.138303, 0.036322), (0.0251168, -0.124333, 0.036322), (0.0244469, -0.138303, 0.038822), (0.0244469, -0.124333, 0.038822), (0.0226168, -0.138303, 0.0406521), (0.0226168, -0.124333, 0.0406521), (0.0201168, -0.138303, 0.041322), (0.0201168, -0.124333, 0.041322), (0.0176168, -0.138303, 0.0406521), (0.0176168, -0.124333, 0.0406521), (0.0157867, -0.138303, 0.038822), (0.0157867, -0.124333, 0.038822), (0.0151168, -0.138303, 0.036322), (0.0151168, -0.124333, 0.036322), (0.0157867, -0.138303, 0.033822), (0.0157867, -0.124333, 0.033822), (0.0176168, -0.138303, 0.0319919), (0.0176168, -0.124333, 0.0319919), (0.0201168, -0.138303, 0.031322), (0.0201168, -0.124333, 0.031322), (0.0226168, -0.138303, 0.0319919), (0.0226168, -0.124333, 0.0319919), (0.0244469, -0.138303, 0.033822), (0.0244469, -0.124333, 0.033822), (0.0452336, -0.138303, 0.036322), (0.0452336, -0.124333, 0.036322), (0.0445637, -0.138303, 0.038822), (0.0445637, -0.124333, 0.038822), (0.0427336, -0.138303, 0.0406521), (0.0427336, -0.124333, 0.0406521), (0.0402336, -0.138303, 0.041322), (0.0402336, -0.124333, 0.041322), (0.0377336, -0.138303, 0.0406521), (0.0377336, -0.124333, 0.0406521), (0.0359035, -0.138303, 0.038822), (0.0359035, -0.124333, 0.038822), (0.0352336, -0.138303, 0.036322), (0.0352336, -0.124333, 0.036322), (0.0359035, -0.138303, 0.033822), (0.0359035, -0.124333, 0.033822), (0.0377336, -0.138303, 0.0319919), (0.0377336, -0.124333, 0.0319919), (0.0402336, -0.138303, 0.031322), (0.0402336, -0.124333, 0.031322), (0.0427336, -0.138303, 0.0319919), (0.0427336, -0.124333, 0.0319919), (0.0445637, -0.138303, 0.033822), (0.0445637, -0.124333, 0.033822)]
        int[] faceVertexCounts = [4, 4, 4, 4, 4, 4, 4, 4, 4, 4, 4, 4, 12, 12, 4, 4, 4, 4, 4, 4, 4, 4, 4, 4, 4, 4, 12, 12, 4, 4, 4, 4, 4, 4, 4, 4, 4, 4, 4, 4, 12, 12, 4, 4, 4, 4, 4, 4, 4, 4, 4, 4, 4, 4, 12, 12, 4, 4, 4, 4, 4, 4, 4, 4, 4, 4, 4, 4, 12, 12]
        int[] faceVertexIndices = [0, 2, 3, 1, 2, 4, 5, 3, 4, 6, 7, 5, 6, 8, 9, 7, 8, 10, 11, 9, 10, 12, 13, 11, 12, 14, 15, 13, 14, 16, 17, 15, 16, 18, 19, 17, 18, 20, 21, 19, 20, 22, 23, 21, 22, 0, 1, 23, 1, 3, 5, 7, 9, 11, 13, 15, 17, 19, 21, 23, 22, 20, 18, 16, 14, 12, 10, 8, 6, 4, 2, 0, 24, 26, 27, 25, 26, 28, 29, 27, 28, 30, 31, 29, 30, 32, 33, 31, 32, 34, 35, 33, 34, 36, 37, 35, 36, 38, 39, 37, 38, 40, 41, 39, 40, 42, 43, 41, 42, 44, 45, 43, 44, 46, 47, 45, 46, 24, 25, 47, 25, 27, 29, 31, 33, 35, 37, 39, 41, 43, 45, 47, 46, 44, 42, 40, 38, 36, 34, 32, 30, 28, 26, 24, 48, 50, 51, 49, 50, 52, 53, 51, 52, 54, 55, 53, 54, 56, 57, 55, 56, 58, 59, 57, 58, 60, 61, 59, 60, 62, 63, 61, 62, 64, 65, 63, 64, 66, 67, 65, 66, 68, 69, 67, 68, 70, 71, 69, 70, 48, 49, 71, 49, 51, 53, 55, 57, 59, 61, 63, 65, 67, 69, 71, 70, 68, 66, 64, 62, 60, 58, 56, 54, 52, 50, 48, 72, 74, 75, 73, 74, 76, 77, 75, 76, 78, 79, 77, 78, 80, 81, 79, 80, 82, 83, 81, 82, 84, 85, 83, 84, 86, 87, 85, 86, 88, 89, 87, 88, 90, 91, 89, 90, 92, 93, 91, 92, 94, 95, 93, 94, 72, 73, 95, 73, 75, 77, 79, 81, 83, 85, 87, 89, 91, 93, 95, 94, 92, 90, 88, 86, 84, 82, 80, 78, 76, 74, 72, 96, 98, 99, 97, 98, 100, 101, 99, 100, 102, 103, 101, 102, 104, 105, 103, 104, 106, 107, 105, 106, 108, 109, 107, 108, 110, 111, 109, 110, 112, 113, 111, 112, 114, 115, 113, 114, 116, 117, 115, 116, 118, 119, 117, 118, 96, 97, 119, 97, 99, 101, 103, 105, 107, 109, 111, 113, 115, 117, 119, 118, 116, 114, 112, 110, 108, 106, 104, 102, 100, 98, 96]
        normal3f[] normals = [(-0.965926, 0, -0.258819), (-0.965926, 0, -0.258819), (-0.965926, 0, -0.258819), (-0.965926, 0, -0.258819), (-0.707107, 0, -0.707107), (-0.707107, 0, -0.707107), (-0.707107, 0, -0.707107), (-0.707107, 0, -0.707107), (-0.258819, 0, -0.965926), (-0.258819, 0, -0.965926), (-0.258819, 0, -0.965926), (-0.258819, 0, -0.965926), (0.258819, 0, -0.965926), (0.258819, 0, -0.965926), (0.258819, 0, -0.965926), (0.258819, 0, -0.965926), (0.707107, 0, -0.707107), (0.707107, 0, -0.707107), (0.707107, 0, -0.707107), (0.707107, 0, -0.707107), (0.965926, 0, -0.258819), (0.965926, 0, -0.258819), (0.965926, 0, -0.258819), (0.965926, 0, -0.258819), (0.965926, 0, 0.258819), (0.965926, 0, 0.258819), (0.965926, 0, 0.258819), (0.965926, 0, 0.258819), (0.707107, 0, 0.707107), (0.707107, 0, 0.707107), (0.707107, 0, 0.707107), (0.707107, 0, 0.707107), (0.258819, 0, 0.965926), (0.258819, 0, 0.965926), (0.258819, 0, 0.965926), (0.258819, 0, 0.965926), (-0.258819, 0, 0.965926), (-0.258819, 0, 0.965926), (-0.258819, 0, 0.965926), (-0.258819, 0, 0.965926), (-0.707107, 0, 0.707107), (-0.707107, 0, 0.707107), (-0.707107, 0, 0.707107), (-0.707107, 0, 0.707107), (-0.965926, 0, 0.258819), (-0.965926, 0, 0.258819), (-0.965926, 0, 0.258819), (-0.965926, 0, 0.258819), (0, -1, -1.6263e-15), (0, -1, -1.6263e-15), (0, -1, -1.6263e-15), (0, -1, -1.6263e-15), (0, -1, -1.6263e-15), (0, -1, -1.6263e-15), (0, -1, -1.6263e-15), (0, -1, -1.6263e-15), (0, -1, -1.6263e-15), (0, -1, -1.6263e-15), (0, -1, -1.6263e-15), (0, -1, -1.6263e-15), (0, 1, -1.4456e-15), (0, 1, -1.4456e-15), (0, 1, -1.4456e-15), (0, 1, -1.4456e-15), (0, 1, -1.4456e-15), (0, 1, -1.4456e-15), (0, 1, -1.4456e-15), (0, 1, -1.4456e-15), (0, 1, -1.4456e-15), (0, 1, -1.4456e-15), (0, 1, -1.4456e-15), (0, 1, -1.4456e-15), (-0.965926, 0, -0.258819), (-0.965926, 0, -0.258819), (-0.965926, 0, -0.258819), (-0.965926, 0, -0.258819), (-0.707107, 0, -0.707107), (-0.707107, 0, -0.707107), (-0.707107, 0, -0.707107), (-0.707107, 0, -0.707107), (-0.258819, 0, -0.965926), (-0.258819, 0, -0.965926), (-0.258819, 0, -0.965926), (-0.258819, 0, -0.965926), (0.258819, 0, -0.965926), (0.258819, 0, -0.965926), (0.258819, 0, -0.965926), (0.258819, 0, -0.965926), (0.707107, 0, -0.707107), (0.707107, 0, -0.707107), (0.707107, 0, -0.707107), (0.707107, 0, -0.707107), (0.965926, 0, -0.258819), (0.965926, 0, -0.258819), (0.965926, 0, -0.258819), (0.965926, 0, -0.258819), (0.965926, 0, 0.258819), (0.965926, 0, 0.258819), (0.965926, 0, 0.258819), (0.965926, 0, 0.258819), (0.707107, 0, 0.707107), (0.707107, 0, 0.707107), (0.707107, 0, 0.707107), (0.707107, 0, 0.707107), (0.258819, 0, 0.965926), (0.258819, 0, 0.965926), (0.258819, 0, 0.965926), (0.258819, 0, 0.965926), (-0.258819, 0, 0.965926), (-0.258819, 0, 0.965926), (-0.258819, 0, 0.965926), (-0.258819, 0, 0.965926), (-0.707107, 0, 0.707107), (-0.707107, 0, 0.707107), (-0.707107, 0, 0.707107), (-0.707107, 0, 0.707107), (-0.965926, 0, 0.258819), (-0.965926, 0, 0.258819), (-0.965926, 0, 0.258819), (-0.965926, 0, 0.258819), (0, -1, -1.6263e-15), (0, -1, -1.6263e-15), (0, -1, -1.6263e-15), (0, -1, -1.6263e-15), (0, -1, -1.6263e-15), (0, -1, -1.6263e-15), (0, -1, -1.6263e-15), (0, -1, -1.6263e-15), (0, -1, -1.6263e-15), (0, -1, -1.6263e-15), (0, -1, -1.6263e-15), (0, -1, -1.6263e-15), (0, 1, 0), (0, 1, 0), (0, 1, 0), (0, 1, 0), (0, 1, 0), (0, 1, 0), (0, 1, 0), (0, 1, 0), (0, 1, 0), (0, 1, 0), (0, 1, 0), (0, 1, 0), (-0.965926, 0, -0.258819), (-0.965926, 0, -0.258819), (-0.965926, 0, -0.258819), (-0.965926, 0, -0.258819), (-0.707107, 0, -0.707107), (-0.707107, 0, -0.707107), (-0.707107, 0, -0.707107), (-0.707107, 0, -0.707107), (-0.258819, 0, -0.965926), (-0.258819, 0, -0.965926), (-0.258819, 0, -0.965926), (-0.258819, 0, -0.965926), (0.258819, 0, -0.965926), (0.258819, 0, -0.965926), (0.258819, 0, -0.965926), (0.258819, 0, -0.965926), (0.707107, 0, -0.707107), (0.707107, 0, -0.707107), (0.707107, 0, -0.707107), (0.707107, 0, -0.707107), (0.965926, 0, -0.258819), (0.965926, 0, -0.258819), (0.965926, 0, -0.258819), (0.965926, 0, -0.258819), (0.965926, 0, 0.258819), (0.965926, 0, 0.258819), (0.965926, 0, 0.258819), (0.965926, 0, 0.258819), (0.707107, 0, 0.707107), (0.707107, 0, 0.707107), (0.707107, 0, 0.707107), (0.707107, 0, 0.707107), (0.258819, 0, 0.965926), (0.258819, 0, 0.965926), (0.258819, 0, 0.965926), (0.258819, 0, 0.965926), (-0.258819, 0, 0.965926), (-0.258819, 0, 0.965926), (-0.258819, 0, 0.965926), (-0.258819, 0, 0.965926), (-0.707107, 0, 0.707107), (-0.707107, 0, 0.707107), (-0.707107, 0, 0.707107), (-0.707107, 0, 0.707107), (-0.965926, 0, 0.258819), (-0.965926, 0, 0.258819), (-0.965926, 0, 0.258819), (-0.965926, 0, 0.258819), (0, -1, 1.2649e-15), (0, -1, 1.2649e-15), (0, -1, 1.2649e-15), (0, -1, 1.2649e-15), (0, -1, 1.2649e-15), (0, -1, 1.2649e-15), (0, -1, 1.2649e-15), (0, -1, 1.2649e-15), (0, -1, 1.2649e-15), (0, -1, 1.2649e-15), (0, -1, 1.2649e-15), (0, -1, 1.2649e-15), (0, 1, -9.03502e-16), (0, 1, -9.03502e-16), (0, 1, -9.03502e-16), (0, 1, -9.03502e-16), (0, 1, -9.03502e-16), (0, 1, -9.03502e-16), (0, 1, -9.03502e-16), (0, 1, -9.03502e-16), (0, 1, -9.03502e-16), (0, 1, -9.03502e-16), (0, 1, -9.03502e-16), (0, 1, -9.03502e-16), (-0.965926, 0, -0.258819), (-0.965926, 0, -0.258819), (-0.965926, 0, -0.258819), (-0.965926, 0, -0.258819), (-0.707107, 0, -0.707107), (-0.707107, 0, -0.707107), (-0.707107, 0, -0.707107), (-0.707107, 0, -0.707107), (-0.258819, 0, -0.965926), (-0.258819, 0, -0.965926), (-0.258819, 0, -0.965926), (-0.258819, 0, -0.965926), (0.258819, 0, -0.965926), (0.258819, 0, -0.965926), (0.258819, 0, -0.965926), (0.258819, 0, -0.965926), (0.707107, 0, -0.707107), (0.707107, 0, -0.707107), (0.707107, 0, -0.707107), (0.707107, 0, -0.707107), (0.965926, 0, -0.258819), (0.965926, 0, -0.258819), (0.965926, 0, -0.258819), (0.965926, 0, -0.258819), (0.965926, 0, 0.258819), (0.965926, 0, 0.258819), (0.965926, 0, 0.258819), (0.965926, 0, 0.258819), (0.707107, 0, 0.707107), (0.707107, 0, 0.707107), (0.707107, 0, 0.707107), (0.707107, 0, 0.707107), (0.258819, 0, 0.965926), (0.258819, 0, 0.965926), (0.258819, 0, 0.965926), (0.258819, 0, 0.965926), (-0.258819, 0, 0.965926), (-0.258819, 0, 0.965926), (-0.258819, 0, 0.965926), (-0.258819, 0, 0.965926), (-0.707107, 0, 0.707107), (-0.707107, 0, 0.707107), (-0.707107, 0, 0.707107), (-0.707107, 0, 0.707107), (-0.965926, 0, 0.258819), (-0.965926, 0, 0.258819), (-0.965926, 0, 0.258819), (-0.965926, 0, 0.258819), (0, -1, -1.6263e-15), (0, -1, -1.6263e-15), (0, -1, -1.6263e-15), (0, -1, -1.6263e-15), (0, -1, -1.6263e-15), (0, -1, -1.6263e-15), (0, -1, -1.6263e-15), (0, -1, -1.6263e-15), (0, -1, -1.6263e-15), (0, -1, -1.6263e-15), (0, -1, -1.6263e-15), (0, -1, -1.6263e-15), (0, 1, 0), (0, 1, 0), (0, 1, 0), (0, 1, 0), (0, 1, 0), (0, 1, 0), (0, 1, 0), (0, 1, 0), (0, 1, 0), (0, 1, 0), (0, 1, 0), (0, 1, 0), (-0.965926, 0, -0.258819), (-0.965926, 0, -0.258819), (-0.965926, 0, -0.258819), (-0.965926, 0, -0.258819), (-0.707107, 0, -0.707107), (-0.707107, 0, -0.707107), (-0.707107, 0, -0.707107), (-0.707107, 0, -0.707107), (-0.258819, 0, -0.965926), (-0.258819, 0, -0.965926), (-0.258819, 0, -0.965926), (-0.258819, 0, -0.965926), (0.258819, 0, -0.965926), (0.258819, 0, -0.965926), (0.258819, 0, -0.965926), (0.258819, 0, -0.965926), (0.707107, 0, -0.707107), (0.707107, 0, -0.707107), (0.707107, 0, -0.707107), (0.707107, 0, -0.707107), (0.965926, 0, -0.258819), (0.965926, 0, -0.258819), (0.965926, 0, -0.258819), (0.965926, 0, -0.258819), (0.965926, 0, 0.258819), (0.965926, 0, 0.258819), (0.965926, 0, 0.258819), (0.965926, 0, 0.258819), (0.707107, 0, 0.707107), (0.707107, 0, 0.707107), (0.707107, 0, 0.707107), (0.707107, 0, 0.707107), (0.258819, 0, 0.965926), (0.258819, 0, 0.965926), (0.258819, 0, 0.965926), (0.258819, 0, 0.965926), (-0.258819, 0, 0.965926), (-0.258819, 0, 0.965926), (-0.258819, 0, 0.965926), (-0.258819, 0, 0.965926), (-0.707107, 0, 0.707107), (-0.707107, 0, 0.707107), (-0.707107, 0, 0.707107), (-0.707107, 0, 0.707107), (-0.965926, 0, 0.258819), (-0.965926, 0, 0.258819), (-0.965926, 0, 0.258819), (-0.965926, 0, 0.258819), (0, -1, -1.6263e-15), (0, -1, -1.6263e-15), (0, -1, -1.6263e-15), (0, -1, -1.6263e-15), (0, -1, -1.6263e-15), (0, -1, -1.6263e-15), (0, -1, -1.6263e-15), (0, -1, -1.6263e-15), (0, -1, -1.6263e-15), (0, -1, -1.6263e-15), (0, -1, -1.6263e-15), (0, -1, -1.6263e-15), (0, 1, -1.4456e-15), (0, 1, -1.4456e-15), (0, 1, -1.4456e-15), (0, 1, -1.4456e-15), (0, 1, -1.4456e-15), (0, 1, -1.4456e-15), (0, 1, -1.4456e-15), (0, 1, -1.4456e-15), (0, 1, -1.4456e-15), (0, 1, -1.4456e-15), (0, 1, -1.4456e-15), (0, 1, -1.4456e-15)] (interpolation = "faceVarying")
        float3[] extent = [(-0.0452336, -0.138303, 0.031322), (0.0452336, -0.124333, 0.041322)]
        uniform token subdivisionScheme = "none"
        bool doubleSided = false
        color3f[] primvars:displayColor = [(0.06, 0.06, 0.07)] (interpolation = "constant")
        float[] primvars:displayRoughness = [0.7] (interpolation = "constant")
    }
    def Mesh "EndStopF"
    {
        point3f[] points = [(0.04445, -0.118186, 0), (0.04445, -0.118186, 0.04953), (0.04445, 0.118186, 0), (0.04445, 0.118186, 0.04953), (0.05461, -0.118186, 0), (0.05461, -0.118186, 0.04953), (0.05461, 0.118186, 0), (0.05461, 0.118186, 0.04953)]
        int[] faceVertexCounts = [4, 4, 4, 4, 4, 4]
        int[] faceVertexIndices = [4, 6, 7, 5, 0, 1, 3, 2, 2, 3, 7, 6, 0, 4, 5, 1, 1, 5, 7, 3, 0, 2, 6, 4]
        normal3f[] normals = [(1, 0, 0), (1, 0, 0), (1, 0, 0), (1, 0, 0), (-1, 0, 0), (-1, 0, 0), (-1, 0, 0), (-1, 0, 0), (0, 1, 0), (0, 1, 0), (0, 1, 0), (0, 1, 0), (0, -1, 0), (0, -1, 0), (0, -1, 0), (0, -1, 0), (0, 0, 1), (0, 0, 1), (0, 0, 1), (0, 0, 1), (0, 0, -1), (0, 0, -1), (0, 0, -1), (0, 0, -1)] (interpolation = "faceVarying")
        float3[] extent = [(0.04445, -0.118186, 0), (0.05461, 0.118186, 0.04953)]
        uniform token subdivisionScheme = "none"
        bool doubleSided = false
        color3f[] primvars:displayColor = [(0.18, 0.19, 0.22)] (interpolation = "constant")
        float[] primvars:displayRoughness = [0.6] (interpolation = "constant")
    }
    def Mesh "EndStopB"
    {
        point3f[] points = [(-0.05461, -0.118186, 0), (-0.05461, -0.118186, 0.04953), (-0.05461, 0.118186, 0), (-0.05461, 0.118186, 0.04953), (-0.04445, -0.118186, 0), (-0.04445, -0.118186, 0.04953), (-0.04445, 0.118186, 0), (-0.04445, 0.118186, 0.04953)]
        int[] faceVertexCounts = [4, 4, 4, 4, 4, 4]
        int[] faceVertexIndices = [4, 6, 7, 5, 0, 1, 3, 2, 2, 3, 7, 6, 0, 4, 5, 1, 1, 5, 7, 3, 0, 2, 6, 4]
        normal3f[] normals = [(1, 0, 0), (1, 0, 0), (1, 0, 0), (1, 0, 0), (-1, 0, 0), (-1, 0, 0), (-1, 0, 0), (-1, 0, 0), (0, 1, 0), (0, 1, 0), (0, 1, 0), (0, 1, 0), (0, -1, 0), (0, -1, 0), (0, -1, 0), (0, -1, 0), (0, 0, 1), (0, 0, 1), (0, 0, 1), (0, 0, 1), (0, 0, -1), (0, 0, -1), (0, 0, -1), (0, 0, -1)] (interpolation = "faceVarying")
        float3[] extent = [(-0.05461, -0.118186, 0), (-0.04445, 0.118186, 0.04953)]
        uniform token subdivisionScheme = "none"
        bool doubleSided = false
        color3f[] primvars:displayColor = [(0.18, 0.19, 0.22)] (interpolation = "constant")
        float[] primvars:displayRoughness = [0.6] (interpolation = "constant")
    }
    def Mesh "StrapFront"
    {
        point3f[] points = [(0.006558, -0.136318, 0.18588), (0.006558, -0.136318, 0.19188), (0.006558, 0.136318, 0.18588), (0.006558, 0.136318, 0.19188), (0.032558, -0.136318, 0.18588), (0.032558, -0.136318, 0.19188), (0.032558, 0.136318, 0.18588), (0.032558, 0.136318, 0.19188)]
        int[] faceVertexCounts = [4, 4, 4, 4, 4, 4]
        int[] faceVertexIndices = [4, 6, 7, 5, 0, 1, 3, 2, 2, 3, 7, 6, 0, 4, 5, 1, 1, 5, 7, 3, 0, 2, 6, 4]
        normal3f[] normals = [(1, 0, 0), (1, 0, 0), (1, 0, 0), (1, 0, 0), (-1, 0, 0), (-1, 0, 0), (-1, 0, 0), (-1, 0, 0), (0, 1, 0), (0, 1, 0), (0, 1, 0), (0, 1, 0), (0, -1, 0), (0, -1, 0), (0, -1, 0), (0, -1, 0), (0, 0, 1), (0, 0, 1), (0, 0, 1), (0, 0, 1), (0, 0, -1), (0, 0, -1), (0, 0, -1), (0, 0, -1)] (interpolation = "faceVarying")
        float3[] extent = [(0.006558, -0.136318, 0.18588), (0.032558, 0.136318, 0.19188)]
        uniform token subdivisionScheme = "none"
        bool doubleSided = false
        color3f[] primvars:displayColor = [(0.1, 0.1, 0.11)] (interpolation = "constant")
        float[] primvars:displayRoughness = [0.55] (interpolation = "constant")
    }
    def Mesh "PostFrontL"
    {
        point3f[] points = [(0.008558, 0.119888, 0.06604), (0.008558, 0.119888, 0.18888), (0.008558, 0.130048, 0.06604), (0.008558, 0.130048, 0.18888), (0.030558, 0.119888, 0.06604), (0.030558, 0.119888, 0.18888), (0.030558, 0.130048, 0.06604), (0.030558, 0.130048, 0.18888)]
        int[] faceVertexCounts = [4, 4, 4, 4, 4, 4]
        int[] faceVertexIndices = [4, 6, 7, 5, 0, 1, 3, 2, 2, 3, 7, 6, 0, 4, 5, 1, 1, 5, 7, 3, 0, 2, 6, 4]
        normal3f[] normals = [(1, 0, 0), (1, 0, 0), (1, 0, 0), (1, 0, 0), (-1, 0, 0), (-1, 0, 0), (-1, 0, 0), (-1, 0, 0), (0, 1, 0), (0, 1, 0), (0, 1, 0), (0, 1, 0), (0, -1, 0), (0, -1, 0), (0, -1, 0), (0, -1, 0), (0, 0, 1), (0, 0, 1), (0, 0, 1), (0, 0, 1), (0, 0, -1), (0, 0, -1), (0, 0, -1), (0, 0, -1)] (interpolation = "faceVarying")
        float3[] extent = [(0.008558, 0.119888, 0.06604), (0.030558, 0.130048, 0.18888)]
        uniform token subdivisionScheme = "none"
        bool doubleSided = false
        color3f[] primvars:displayColor = [(0.1, 0.1, 0.11)] (interpolation = "constant")
        float[] primvars:displayRoughness = [0.55] (interpolation = "constant")
    }
    def Mesh "PostFrontR"
    {
        point3f[] points = [(0.008558, -0.130048, 0.06604), (0.008558, -0.130048, 0.18888), (0.008558, -0.119888, 0.06604), (0.008558, -0.119888, 0.18888), (0.030558, -0.130048, 0.06604), (0.030558, -0.130048, 0.18888), (0.030558, -0.119888, 0.06604), (0.030558, -0.119888, 0.18888)]
        int[] faceVertexCounts = [4, 4, 4, 4, 4, 4]
        int[] faceVertexIndices = [4, 6, 7, 5, 0, 1, 3, 2, 2, 3, 7, 6, 0, 4, 5, 1, 1, 5, 7, 3, 0, 2, 6, 4]
        normal3f[] normals = [(1, 0, 0), (1, 0, 0), (1, 0, 0), (1, 0, 0), (-1, 0, 0), (-1, 0, 0), (-1, 0, 0), (-1, 0, 0), (0, 1, 0), (0, 1, 0), (0, 1, 0), (0, 1, 0), (0, -1, 0), (0, -1, 0), (0, -1, 0), (0, -1, 0), (0, 0, 1), (0, 0, 1), (0, 0, 1), (0, 0, 1), (0, 0, -1), (0, 0, -1), (0, 0, -1), (0, 0, -1)] (interpolation = "faceVarying")
        float3[] extent = [(0.008558, -0.130048, 0.06604), (0.030558, -0.119888, 0.18888)]
        uniform token subdivisionScheme = "none"
        bool doubleSided = false
        color3f[] primvars:displayColor = [(0.1, 0.1, 0.11)] (interpolation = "constant")
        float[] primvars:displayRoughness = [0.55] (interpolation = "constant")
    }
    def Mesh "StrapRear"
    {
        point3f[] points = [(-0.032558, -0.136318, 0.18588), (-0.032558, -0.136318, 0.19188), (-0.032558, 0.136318, 0.18588), (-0.032558, 0.136318, 0.19188), (-0.006558, -0.136318, 0.18588), (-0.006558, -0.136318, 0.19188), (-0.006558, 0.136318, 0.18588), (-0.006558, 0.136318, 0.19188)]
        int[] faceVertexCounts = [4, 4, 4, 4, 4, 4]
        int[] faceVertexIndices = [4, 6, 7, 5, 0, 1, 3, 2, 2, 3, 7, 6, 0, 4, 5, 1, 1, 5, 7, 3, 0, 2, 6, 4]
        normal3f[] normals = [(1, 0, 0), (1, 0, 0), (1, 0, 0), (1, 0, 0), (-1, 0, 0), (-1, 0, 0), (-1, 0, 0), (-1, 0, 0), (0, 1, 0), (0, 1, 0), (0, 1, 0), (0, 1, 0), (0, -1, 0), (0, -1, 0), (0, -1, 0), (0, -1, 0), (0, 0, 1), (0, 0, 1), (0, 0, 1), (0, 0, 1), (0, 0, -1), (0, 0, -1), (0, 0, -1), (0, 0, -1)] (interpolation = "faceVarying")
        float3[] extent = [(-0.032558, -0.136318, 0.18588), (-0.006558, 0.136318, 0.19188)]
        uniform token subdivisionScheme = "none"
        bool doubleSided = false
        color3f[] primvars:displayColor = [(0.1, 0.1, 0.11)] (interpolation = "constant")
        float[] primvars:displayRoughness = [0.55] (interpolation = "constant")
    }
    def Mesh "PostRearL"
    {
        point3f[] points = [(-0.030558, 0.119888, 0.06604), (-0.030558, 0.119888, 0.18888), (-0.030558, 0.130048, 0.06604), (-0.030558, 0.130048, 0.18888), (-0.008558, 0.119888, 0.06604), (-0.008558, 0.119888, 0.18888), (-0.008558, 0.130048, 0.06604), (-0.008558, 0.130048, 0.18888)]
        int[] faceVertexCounts = [4, 4, 4, 4, 4, 4]
        int[] faceVertexIndices = [4, 6, 7, 5, 0, 1, 3, 2, 2, 3, 7, 6, 0, 4, 5, 1, 1, 5, 7, 3, 0, 2, 6, 4]
        normal3f[] normals = [(1, 0, 0), (1, 0, 0), (1, 0, 0), (1, 0, 0), (-1, 0, 0), (-1, 0, 0), (-1, 0, 0), (-1, 0, 0), (0, 1, 0), (0, 1, 0), (0, 1, 0), (0, 1, 0), (0, -1, 0), (0, -1, 0), (0, -1, 0), (0, -1, 0), (0, 0, 1), (0, 0, 1), (0, 0, 1), (0, 0, 1), (0, 0, -1), (0, 0, -1), (0, 0, -1), (0, 0, -1)] (interpolation = "faceVarying")
        float3[] extent = [(-0.030558, 0.119888, 0.06604), (-0.008558, 0.130048, 0.18888)]
        uniform token subdivisionScheme = "none"
        bool doubleSided = false
        color3f[] primvars:displayColor = [(0.1, 0.1, 0.11)] (interpolation = "constant")
        float[] primvars:displayRoughness = [0.55] (interpolation = "constant")
    }
    def Mesh "PostRearR"
    {
        point3f[] points = [(-0.030558, -0.130048, 0.06604), (-0.030558, -0.130048, 0.18888), (-0.030558, -0.119888, 0.06604), (-0.030558, -0.119888, 0.18888), (-0.008558, -0.130048, 0.06604), (-0.008558, -0.130048, 0.18888), (-0.008558, -0.119888, 0.06604), (-0.008558, -0.119888, 0.18888)]
        int[] faceVertexCounts = [4, 4, 4, 4, 4, 4]
        int[] faceVertexIndices = [4, 6, 7, 5, 0, 1, 3, 2, 2, 3, 7, 6, 0, 4, 5, 1, 1, 5, 7, 3, 0, 2, 6, 4]
        normal3f[] normals = [(1, 0, 0), (1, 0, 0), (1, 0, 0), (1, 0, 0), (-1, 0, 0), (-1, 0, 0), (-1, 0, 0), (-1, 0, 0), (0, 1, 0), (0, 1, 0), (0, 1, 0), (0, 1, 0), (0, -1, 0), (0, -1, 0), (0, -1, 0), (0, -1, 0), (0, 0, 1), (0, 0, 1), (0, 0, 1), (0, 0, 1), (0, 0, -1), (0, 0, -1), (0, 0, -1), (0, 0, -1)] (interpolation = "faceVarying")
        float3[] extent = [(-0.030558, -0.130048, 0.06604), (-0.008558, -0.119888, 0.18888)]
        uniform token subdivisionScheme = "none"
        bool doubleSided = false
        color3f[] primvars:displayColor = [(0.1, 0.1, 0.11)] (interpolation = "constant")
        float[] primvars:displayRoughness = [0.55] (interpolation = "constant")
    }
}

