#usda 1.0
(
    defaultPrim = "Staircase"
    metersPerUnit = 1
    upAxis = "Z"
    doc = "Realistic staircase (14 steps, rise=150 mm, run=305 mm, top=2100 mm). Origin at base (X=0=StairSpec.start_x_m, Z=0=floor, Y centred)."
)

def Xform "Staircase"
{
    def Mesh "Steps"
    {
        point3f[] points = [(0, -0.7, 0), (0, -0.7, 0.15), (0, 0.7, 0), (0, 0.7, 0.15), (0.305, -0.7, 0), (0.305, -0.7, 0.15), (0.305, 0.7, 0), (0.305, 0.7, 0.15), (0.305, -0.7, 0), (0.305, -0.7, 0.3), (0.305, 0.7, 0), (0.305, 0.7, 0.3), (0.61, -0.7, 0), (0.61, -0.7, 0.3), (0.61, 0.7, 0), (0.61, 0.7, 0.3), (0.61, -0.7, 0), (0.61, -0.7, 0.45), (0.61, 0.7, 0), (0.61, 0.7, 0.45), (0.915, -0.7, 0), (0.915, -0.7, 0.45), (0.915, 0.7, 0), (0.915, 0.7, 0.45), (0.915, -0.7, 0), (0.915, -0.7, 0.6), (0.915, 0.7, 0), (0.915, 0.7, 0.6), (1.22, -0.7, 0), (1.22, -0.7, 0.6), (1.22, 0.7, 0), (1.22, 0.7, 0.6), (1.22, -0.7, 0), (1.22, -0.7, 0.75), (1.22, 0.7, 0), (1.22, 0.7, 0.75), (1.525, -0.7, 0), (1.525, -0.7, 0.75), (1.525, 0.7, 0), (1.525, 0.7, 0.75), (1.525, -0.7, 0), (1.525, -0.7, 0.9), (1.525, 0.7, 0), (1.525, 0.7, 0.9), (1.83, -0.7, 0), (1.83, -0.7, 0.9), (1.83, 0.7, 0), (1.83, 0.7, 0.9), (1.83, -0.7, 0), (1.83, -0.7, 1.05), (1.83, 0.7, 0), (1.83, 0.7, 1.05), (2.135, -0.7, 0), (2.135, -0.7, 1.05), (2.135, 0.7, 0), (2.135, 0.7, 1.05), (2.135, -0.7, 0), (2.135, -0.7, 1.2), (2.135, 0.7, 0), (2.135, 0.7, 1.2), (2.44, -0.7, 0), (2.44, -0.7, 1.2), (2.44, 0.7, 0), (2.44, 0.7, 1.2), (2.44, -0.7, 0), (2.44, -0.7, 1.35), (2.44, 0.7, 0), (2.44, 0.7, 1.35), (2.745, -0.7, 0), (2.745, -0.7, 1.35), (2.745, 0.7, 0), (2.745, 0.7, 1.35), (2.745, -0.7, 0), (2.745, -0.7, 1.5), (2.745, 0.7, 0), (2.745, 0.7, 1.5), (3.05, -0.7, 0), (3.05, -0.7, 1.5), (3.05, 0.7, 0), (3.05, 0.7, 1.5), (3.05, -0.7, 0), (3.05, -0.7, 1.65), (3.05, 0.7, 0), (3.05, 0.7, 1.65), (3.355, -0.7, 0), (3.355, -0.7, 1.65), (3.355, 0.7, 0), (3.355, 0.7, 1.65), (3.355, -0.7, 0), (3.355, -0.7, 1.8), (3.355, 0.7, 0), (3.355, 0.7, 1.8), (3.66, -0.7, 0), (3.66, -0.7, 1.8), (3.66, 0.7, 0), (3.66, 0.7, 1.8), (3.66, -0.7, 0), (3.66, -0.7, 1.95), (3.66, 0.7, 0), (3.66, 0.7, 1.95), (3.965, -0.7, 0), (3.965, -0.7, 1.95), (3.965, 0.7, 0), (3.965, 0.7, 1.95), (3.965, -0.7, 0), (3.965, -0.7, 2.1), (3.965, 0.7, 0), (3.965, 0.7, 2.1), (4.27, -0.7, 0), (4.27, -0.7, 2.1), (4.27, 0.7, 0), (4.27, 0.7, 2.1)]
        int[] faceVertexCounts = [4, 4, 4, 4, 4, 4, 4, 4, 4, 4, 4, 4, 4, 4, 4, 4, 4, 4, 4, 4, 4, 4, 4, 4, 4, 4, 4, 4, 4, 4, 4, 4, 4, 4, 4, 4, 4, 4, 4, 4, 4, 4, 4, 4, 4, 4, 4, 4, 4, 4, 4, 4, 4, 4, 4, 4, 4, 4, 4, 4, 4, 4, 4, 4, 4, 4, 4, 4, 4, 4, 4, 4, 4, 4, 4, 4, 4, 4, 4, 4, 4, 4, 4, 4]
        int[] faceVertexIndices = [4, 6, 7, 5, 0, 1, 3, 2, 2, 3, 7, 6, 0, 4, 5, 1, 1, 5, 7, 3, 0, 2, 6, 4, 12, 14, 15, 13, 8, 9, 11, 10, 10, 11, 15, 14, 8, 12, 13, 9, 9, 13, 15, 11, 8, 10, 14, 12, 20, 22, 23, 21, 16, 17, 19, 18, 18, 19, 23, 22, 16, 20, 21, 17, 17, 21, 23, 19, 16, 18, 22, 20, 28, 30, 31, 29, 24, 25, 27, 26, 26, 27, 31, 30, 24, 28, 29, 25, 25, 29, 31, 27, 24, 26, 30, 28, 36, 38, 39, 37, 32, 33, 35, 34, 34, 35, 39, 38, 32, 36, 37, 33, 33, 37, 39, 35, 32, 34, 38, 36, 44, 46, 47, 45, 40, 41, 43, 42, 42, 43, 47, 46, 40, 44, 45, 41, 41, 45, 47, 43, 40, 42, 46, 44, 52, 54, 55, 53, 48, 49, 51, 50, 50, 51, 55, 54, 48, 52, 53, 49, 49, 53, 55, 51, 48, 50, 54, 52, 60, 62, 63, 61, 56, 57, 59, 58, 58, 59, 63, 62, 56, 60, 61, 57, 57, 61, 63, 59, 56, 58, 62, 60, 68, 70, 71, 69, 64, 65, 67, 66, 66, 67, 71, 70, 64, 68, 69, 65, 65, 69, 71, 67, 64, 66, 70, 68, 76, 78, 79, 77, 72, 73, 75, 74, 74, 75, 79, 78, 72, 76, 77, 73, 73, 77, 79, 75, 72, 74, 78, 76, 84, 86, 87, 85, 80, 81, 83, 82, 82, 83, 87, 86, 80, 84, 85, 81, 81, 85, 87, 83, 80, 82, 86, 84, 92, 94, 95, 93, 88, 89, 91, 90, 90, 91, 95, 94, 88, 92, 93, 89, 89, 93, 95, 91, 88, 90, 94, 92, 100, 102, 103, 101, 96, 97, 99, 98, 98, 99, 103, 102, 96, 100, 101, 97, 97, 101, 103, 99, 96, 98, 102, 100, 108, 110, 111, 109, 104, 105, 107, 106, 106, 107, 111, 110, 104, 108, 109, 105, 105, 109, 111, 107, 104, 106, 110, 108]
        normal3f[] normals = [(1, 0, 0), (1, 0, 0), (1, 0, 0), (1, 0, 0), (-1, 0, 0), (-1, 0, 0), (-1, 0, 0), (-1, 0, 0), (0, 1, 0), (0, 1, 0), (0, 1, 0), (0, 1, 0), (0, -1, 0), (0, -1, 0), (0, -1, 0), (0, -1, 0), (0, 0, 1), (0, 0, 1), (0, 0, 1), (0, 0, 1), (0, 0, -1), (0, 0, -1), (0, 0, -1), (0, 0, -1), (1, 0, 0), (1, 0, 0), (1, 0, 0), (1, 0, 0), (-1, 0, 0), (-1, 0, 0), (-1, 0, 0), (-1, 0, 0), (0, 1, 0), (0, 1, 0), (0, 1, 0), (0, 1, 0), (0, -1, 0), (0, -1, 0), (0, -1, 0), (0, -1, 0), (0, 0, 1), (0, 0, 1), (0, 0, 1), (0, 0, 1), (0, 0, -1), (0, 0, -1), (0, 0, -1), (0, 0, -1), (1, 0, 0), (1, 0, 0), (1, 0, 0), (1, 0, 0), (-1, 0, 0), (-1, 0, 0), (-1, 0, 0), (-1, 0, 0), (0, 1, 0), (0, 1, 0), (0, 1, 0), (0, 1, 0), (0, -1, 0), (0, -1, 0), (0, -1, 0), (0, -1, 0), (0, 0, 1), (0, 0, 1), (0, 0, 1), (0, 0, 1), (0, 0, -1), (0, 0, -1), (0, 0, -1), (0, 0, -1), (1, 0, 0), (1, 0, 0), (1, 0, 0), (1, 0, 0), (-1, 0, 0), (-1, 0, 0), (-1, 0, 0), (-1, 0, 0), (0, 1, 0), (0, 1, 0), (0, 1, 0), (0, 1, 0), (0, -1, 0), (0, -1, 0), (0, -1, 0), (0, -1, 0), (0, 0, 1), (0, 0, 1), (0, 0, 1), (0, 0, 1), (0, 0, -1), (0, 0, -1), (0, 0, -1), (0, 0, -1), (1, 0, 0), (1, 0, 0), (1, 0, 0), (1, 0, 0), (-1, 0, 0), (-1, 0, 0), (-1, 0, 0), (-1, 0, 0), (0, 1, 0), (0, 1, 0), (0, 1, 0), (0, 1, 0), (0, -1, 0), (0, -1, 0), (0, -1, 0), (0, -1, 0), (0, 0, 1), (0, 0, 1), (0, 0, 1), (0, 0, 1), (0, 0, -1), (0, 0, -1), (0, 0, -1), (0, 0, -1), (1, 0, 0), (1, 0, 0), (1, 0, 0), (1, 0, 0), (-1, 0, 0), (-1, 0, 0), (-1, 0, 0), (-1, 0, 0), (0, 1, 0), (0, 1, 0), (0, 1, 0), (0, 1, 0), (0, -1, 0), (0, -1, 0), (0, -1, 0), (0, -1, 0), (0, 0, 1), (0, 0, 1), (0, 0, 1), (0, 0, 1), (0, 0, -1), (0, 0, -1), (0, 0, -1), (0, 0, -1), (1, 0, 0), (1, 0, 0), (1, 0, 0), (1, 0, 0), (-1, 0, 0), (-1, 0, 0), (-1, 0, 0), (-1, 0, 0), (0, 1, 0), (0, 1, 0), (0, 1, 0), (0, 1, 0), (0, -1, 0), (0, -1, 0), (0, -1, 0), (0, -1, 0), (0, 0, 1), (0, 0, 1), (0, 0, 1), (0, 0, 1), (0, 0, -1), (0, 0, -1), (0, 0, -1), (0, 0, -1), (1, 0, 0), (1, 0, 0), (1, 0, 0), (1, 0, 0), (-1, 0, 0), (-1, 0, 0), (-1, 0, 0), (-1, 0, 0), (0, 1, 0), (0, 1, 0), (0, 1, 0), (0, 1, 0), (0, -1, 0), (0, -1, 0), (0, -1, 0), (0, -1, 0), (0, 0, 1), (0, 0, 1), (0, 0, 1), (0, 0, 1), (0, 0, -1), (0, 0, -1), (0, 0, -1), (0, 0, -1), (1, 0, 0), (1, 0, 0), (1, 0, 0), (1, 0, 0), (-1, 0, 0), (-1, 0, 0), (-1, 0, 0), (-1, 0, 0), (0, 1, 0), (0, 1, 0), (0, 1, 0), (0, 1, 0), (0, -1, 0), (0, -1, 0), (0, -1, 0), (0, -1, 0), (0, 0, 1), (0, 0, 1), (0, 0, 1), (0, 0, 1), (0, 0, -1), (0, 0, -1), (0, 0, -1), (0, 0, -1), (1, 0, 0), (1, 0, 0), (1, 0, 0), (1, 0, 0), (-1, 0, 0), (-1, 0, 0), (-1, 0, 0), (-1, 0, 0), (0, 1, 0), (0, 1, 0), (0, 1, 0), (0, 1, 0), (0, -1, 0), (0, -1, 0), (0, -1, 0), (0, -1, 0), (0, 0, 1), (0, 0, 1), (0, 0, 1), (0, 0, 1), (0, 0, -1), (0, 0, -1), (0, 0, -1), (0, 0, -1), (1, 0, 0), (1, 0, 0), (1, 0, 0), (1, 0, 0), (-1, 0, 0), (-1, 0, 0), (-1, 0, 0), (-1, 0, 0), (0, 1, 0), (0, 1, 0), (0, 1, 0), (0, 1, 0), (0, -1, 0), (0, -1, 0), (0, -1, 0), (0, -1, 0), (0, 0, 1), (0, 0, 1), (0, 0, 1), (0, 0, 1), (0, 0, -1), (0, 0, -1), (0, 0, -1), (0, 0, -1), (1, 0, 0), (1, 0, 0), (1, 0, 0), (1, 0, 0), (-1, 0, 0), (-1, 0, 0), (-1, 0, 0), (-1, 0, 0), (0, 1, 0), (0, 1, 0), (0, 1, 0), (0, 1, 0), (0, -1, 0), (0, -1, 0), (0, -1, 0), (0, -1, 0), (0, 0, 1), (0, 0, 1), (0, 0, 1), (0, 0, 1), (0, 0, -1), (0, 0, -1), (0, 0, -1), (0, 0, -1), (1, 0, 0), (1, 0, 0), (1, 0, 0), (1, 0, 0), (-1, 0, 0), (-1, 0, 0), (-1, 0, 0), (-1, 0, 0), (0, 1, 0), (0, 1, 0), (0, 1, 0), (0, 1, 0), (0, -1, 0), (0, -1, 0), (0, -1, 0), (0, -1, 0), (0, 0, 1), (0, 0, 1), (0, 0, 1), (0, 0, 1), (0, 0, -1), (0, 0, -1), (0, 0, -1), (0, 0, -1), (1, 0, 0), (1, 0, 0), (1, 0, 0), (1, 0, 0), (-1, 0, 0), (-1, 0, 0), (-1, 0, 0), (-1, 0, 0), (0, 1, 0), (0, 1, 0), (0, 1, 0), (0, 1, 0), (0, -1, 0), (0, -1, 0), (0, -1, 0), (0, -1, 0), (0, 0, 1), (0, 0, 1), (0, 0, 1), (0, 0, 1), (0, 0, -1), (0, 0, -1), (0, 0, -1), (0, 0, -1)] (interpolation = "faceVarying")
        float3[] extent = [(0, -0.7, 0), (4.27, 0.7, 2.1)]
        uniform token subdivisionScheme = "none"
        bool doubleSided = false
        color3f[] primvars:displayColor = [(0.74, 0.73, 0.71)] (interpolation = "constant")
        float[] primvars:displayRoughness = [0.85] (interpolation = "constant")
    }
    def Mesh "Nosings"
    {
        point3f[] points = [(-0.02, -0.7, 0.127), (-0.02, -0.7, 0.149), (-0.02, 0.7, 0.127), (-0.02, 0.7, 0.149), (0.02, -0.7, 0.127), (0.02, -0.7, 0.149), (0.02, 0.7, 0.127), (0.02, 0.7, 0.149), (0.285, -0.7, 0.277), (0.285, -0.7, 0.299), (0.285, 0.7, 0.277), (0.285, 0.7, 0.299), (0.325, -0.7, 0.277), (0.325, -0.7, 0.299), (0.325, 0.7, 0.277), (0.325, 0.7, 0.299), (0.59, -0.7, 0.427), (0.59, -0.7, 0.449), (0.59, 0.7, 0.427), (0.59, 0.7, 0.449), (0.63, -0.7, 0.427), (0.63, -0.7, 0.449), (0.63, 0.7, 0.427), (0.63, 0.7, 0.449), (0.895, -0.7, 0.577), (0.895, -0.7, 0.599), (0.895, 0.7, 0.577), (0.895, 0.7, 0.599), (0.935, -0.7, 0.577), (0.935, -0.7, 0.599), (0.935, 0.7, 0.577), (0.935, 0.7, 0.599), (1.2, -0.7, 0.727), (1.2, -0.7, 0.749), (1.2, 0.7, 0.727), (1.2, 0.7, 0.749), (1.24, -0.7, 0.727), (1.24, -0.7, 0.749), (1.24, 0.7, 0.727), (1.24, 0.7, 0.749), (1.505, -0.7, 0.877), (1.505, -0.7, 0.899), (1.505, 0.7, 0.877), (1.505, 0.7, 0.899), (1.545, -0.7, 0.877), (1.545, -0.7, 0.899), (1.545, 0.7, 0.877), (1.545, 0.7, 0.899), (1.81, -0.7, 1.027), (1.81, -0.7, 1.049), (1.81, 0.7, 1.027), (1.81, 0.7, 1.049), (1.85, -0.7, 1.027), (1.85, -0.7, 1.049), (1.85, 0.7, 1.027), (1.85, 0.7, 1.049), (2.115, -0.7, 1.177), (2.115, -0.7, 1.199), (2.115, 0.7, 1.177), (2.115, 0.7, 1.199), (2.155, -0.7, 1.177), (2.155, -0.7, 1.199), (2.155, 0.7, 1.177), (2.155, 0.7, 1.199), (2.42, -0.7, 1.327), (2.42, -0.7, 1.349), (2.42, 0.7, 1.327), (2.42, 0.7, 1.349), (2.46, -0.7, 1.327), (2.46, -0.7, 1.349), (2.46, 0.7, 1.327), (2.46, 0.7, 1.349), (2.725, -0.7, 1.477), (2.725, -0.7, 1.499), (2.725, 0.7, 1.477), (2.725, 0.7, 1.499), (2.765, -0.7, 1.477), (2.765, -0.7, 1.499), (2.765, 0.7, 1.477), (2.765, 0.7, 1.499), (3.03, -0.7, 1.627), (3.03, -0.7, 1.649), (3.03, 0.7, 1.627), (3.03, 0.7, 1.649), (3.07, -0.7, 1.627), (3.07, -0.7, 1.649), (3.07, 0.7, 1.627), (3.07, 0.7, 1.649), (3.335, -0.7, 1.777), (3.335, -0.7, 1.799), (3.335, 0.7, 1.777), (3.335, 0.7, 1.799), (3.375, -0.7, 1.777), (3.375, -0.7, 1.799), (3.375, 0.7, 1.777), (3.375, 0.7, 1.799), (3.64, -0.7, 1.927), (3.64, -0.7, 1.949), (3.64, 0.7, 1.927), (3.64, 0.7, 1.949), (3.68, -0.7, 1.927), (3.68, -0.7, 1.949), (3.68, 0.7, 1.927), (3.68, 0.7, 1.949), (3.945, -0.7, 2.077), (3.945, -0.7, 2.099), (3.945, 0.7, 2.077), (3.945, 0.7, 2.099), (3.985, -0.7, 2.077), (3.985, -0.7, 2.099), (3.985, 0.7, 2.077), (3.985, 0.7, 2.099)]
        int[] faceVertexCounts = [4, 4, 4, 4, 4, 4, 4, 4, 4, 4, 4, 4, 4, 4, 4, 4, 4, 4, 4, 4, 4, 4, 4, 4, 4, 4, 4, 4, 4, 4, 4, 4, 4, 4, 4, 4, 4, 4, 4, 4, 4, 4, 4, 4, 4, 4, 4, 4, 4, 4, 4, 4, 4, 4, 4, 4, 4, 4, 4, 4, 4, 4, 4, 4, 4, 4, 4, 4, 4, 4, 4, 4, 4, 4, 4, 4, 4, 4, 4, 4, 4, 4, 4, 4]
        int[] faceVertexIndices = [4, 6, 7, 5, 0, 1, 3, 2, 2, 3, 7, 6, 0, 4, 5, 1, 1, 5, 7, 3, 0, 2, 6, 4, 12, 14, 15, 13, 8, 9, 11, 10, 10, 11, 15, 14, 8, 12, 13, 9, 9, 13, 15, 11, 8, 10, 14, 12, 20, 22, 23, 21, 16, 17, 19, 18, 18, 19, 23, 22, 16, 20, 21, 17, 17, 21, 23, 19, 16, 18, 22, 20, 28, 30, 31, 29, 24, 25, 27, 26, 26, 27, 31, 30, 24, 28, 29, 25, 25, 29, 31, 27, 24, 26, 30, 28, 36, 38, 39, 37, 32, 33, 35, 34, 34, 35, 39, 38, 32, 36, 37, 33, 33, 37, 39, 35, 32, 34, 38, 36, 44, 46, 47, 45, 40, 41, 43, 42, 42, 43, 47, 46, 40, 44, 45, 41, 41, 45, 47, 43, 40, 42, 46, 44, 52, 54, 55, 53, 48, 49, 51, 50, 50, 51, 55, 54, 48, 52, 53, 49, 49, 53, 55, 51, 48, 50, 54, 52, 60, 62, 63, 61, 56, 57, 59, 58, 58, 59, 63, 62, 56, 60, 61, 57, 57, 61, 63, 59, 56, 58, 62, 60, 68, 70, 71, 69, 64, 65, 67, 66, 66, 67, 71, 70, 64, 68, 69, 65, 65, 69, 71, 67, 64, 66, 70, 68, 76, 78, 79, 77, 72, 73, 75, 74, 74, 75, 79, 78, 72, 76, 77, 73, 73, 77, 79, 75, 72, 74, 78, 76, 84, 86, 87, 85, 80, 81, 83, 82, 82, 83, 87, 86, 80, 84, 85, 81, 81, 85, 87, 83, 80, 82, 86, 84, 92, 94, 95, 93, 88, 89, 91, 90, 90, 91, 95, 94, 88, 92, 93, 89, 89, 93, 95, 91, 88, 90, 94, 92, 100, 102, 103, 101, 96, 97, 99, 98, 98, 99, 103, 102, 96, 100, 101, 97, 97, 101, 103, 99, 96, 98, 102, 100, 108, 110, 111, 109, 104, 105, 107, 106, 106, 107, 111, 110, 104, 108, 109, 105, 105, 109, 111, 107, 104, 106, 110, 108]
        normal3f[] normals = [(1, 0, 0), (1, 0, 0), (1, 0, 0), (1, 0, 0), (-1, 0, 0), (-1, 0, 0), (-1, 0, 0), (-1, 0, 0), (0, 1, 0), (0, 1, 0), (0, 1, 0), (0, 1, 0), (0, -1, 0), (0, -1, 0), (0, -1, 0), (0, -1, 0), (0, 0, 1), (0, 0, 1), (0, 0, 1), (0, 0, 1), (0, 0, -1), (0, 0, -1), (0, 0, -1), (0, 0, -1), (1, 0, 0), (1, 0, 0), (1, 0, 0), (1, 0, 0), (-1, 0, 0), (-1, 0, 0), (-1, 0, 0), (-1, 0, 0), (0, 1, 0), (0, 1, 0), (0, 1, 0), (0, 1, 0), (0, -1, 0), (0, -1, 0), (0, -1, 0), (0, -1, 0), (0, 0, 1), (0, 0, 1), (0, 0, 1), (0, 0, 1), (0, 0, -1), (0, 0, -1), (0, 0, -1), (0, 0, -1), (1, 0, 0), (1, 0, 0), (1, 0, 0), (1, 0, 0), (-1, 0, 0), (-1, 0, 0), (-1, 0, 0), (-1, 0, 0), (0, 1, 0), (0, 1, 0), (0, 1, 0), (0, 1, 0), (0, -1, 0), (0, -1, 0), (0, -1, 0), (0, -1, 0), (0, 0, 1), (0, 0, 1), (0, 0, 1), (0, 0, 1), (0, 0, -1), (0, 0, -1), (0, 0, -1), (0, 0, -1), (1, 0, 0), (1, 0, 0), (1, 0, 0), (1, 0, 0), (-1, 0, 0), (-1, 0, 0), (-1, 0, 0), (-1, 0, 0), (0, 1, 0), (0, 1, 0), (0, 1, 0), (0, 1, 0), (0, -1, 0), (0, -1, 0), (0, -1, 0), (0, -1, 0), (0, 0, 1), (0, 0, 1), (0, 0, 1), (0, 0, 1), (0, 0, -1), (0, 0, -1), (0, 0, -1), (0, 0, -1), (1, 0, 0), (1, 0, 0), (1, 0, 0), (1, 0, 0), (-1, 0, 0), (-1, 0, 0), (-1, 0, 0), (-1, 0, 0), (0, 1, 0), (0, 1, 0), (0, 1, 0), (0, 1, 0), (0, -1, 0), (0, -1, 0), (0, -1, 0), (0, -1, 0), (0, 0, 1), (0, 0, 1), (0, 0, 1), (0, 0, 1), (0, 0, -1), (0, 0, -1), (0, 0, -1), (0, 0, -1), (1, 0, 0), (1, 0, 0), (1, 0, 0), (1, 0, 0), (-1, 0, 0), (-1, 0, 0), (-1, 0, 0), (-1, 0, 0), (0, 1, 0), (0, 1, 0), (0, 1, 0), (0, 1, 0), (0, -1, 0), (0, -1, 0), (0, -1, 0), (0, -1, 0), (0, 0, 1), (0, 0, 1), (0, 0, 1), (0, 0, 1), (0, 0, -1), (0, 0, -1), (0, 0, -1), (0, 0, -1), (1, 0, 0), (1, 0, 0), (1, 0, 0), (1, 0, 0), (-1, 0, 0), (-1, 0, 0), (-1, 0, 0), (-1, 0, 0), (0, 1, 0), (0, 1, 0), (0, 1, 0), (0, 1, 0), (0, -1, 0), (0, -1, 0), (0, -1, 0), (0, -1, 0), (0, 0, 1), (0, 0, 1), (0, 0, 1), (0, 0, 1), (0, 0, -1), (0, 0, -1), (0, 0, -1), (0, 0, -1), (1, 0, 0), (1, 0, 0), (1, 0, 0), (1, 0, 0), (-1, 0, 0), (-1, 0, 0), (-1, 0, 0), (-1, 0, 0), (0, 1, 0), (0, 1, 0), (0, 1, 0), (0, 1, 0), (0, -1, 0), (0, -1, 0), (0, -1, 0), (0, -1, 0), (0, 0, 1), (0, 0, 1), (0, 0, 1), (0, 0, 1), (0, 0, -1), (0, 0, -1), (0, 0, -1), (0, 0, -1), (1, 0, 0), (1, 0, 0), (1, 0, 0), (1, 0, 0), (-1, 0, 0), (-1, 0, 0), (-1, 0, 0), (-1, 0, 0), (0, 1, 0), (0, 1, 0), (0, 1, 0), (0, 1, 0), (0, -1, 0), (0, -1, 0), (0, -1, 0), (0, -1, 0), (0, 0, 1), (0, 0, 1), (0, 0, 1), (0, 0, 1), (0, 0, -1), (0, 0, -1), (0, 0, -1), (0, 0, -1), (1, 0, 0), (1, 0, 0), (1, 0, 0), (1, 0, 0), (-1, 0, 0), (-1, 0, 0), (-1, 0, 0), (-1, 0, 0), (0, 1, 0), (0, 1, 0), (0, 1, 0), (0, 1, 0), (0, -1, 0), (0, -1, 0), (0, -1, 0), (0, -1, 0), (0, 0, 1), (0, 0, 1), (0, 0, 1), (0, 0, 1), (0, 0, -1), (0, 0, -1), (0, 0, -1), (0, 0, -1), (1, 0, 0), (1, 0, 0), (1, 0, 0), (1, 0, 0), (-1, 0, 0), (-1, 0, 0), (-1, 0, 0), (-1, 0, 0), (0, 1, 0), (0, 1, 0), (0, 1, 0), (0, 1, 0), (0, -1, 0), (0, -1, 0), (0, -1, 0), (0, -1, 0), (0, 0, 1), (0, 0, 1), (0, 0, 1), (0, 0, 1), (0, 0, -1), (0, 0, -1), (0, 0, -1), (0, 0, -1), (1, 0, 0), (1, 0, 0), (1, 0, 0), (1, 0, 0), (-1, 0, 0), (-1, 0, 0), (-1, 0, 0), (-1, 0, 0), (0, 1, 0), (0, 1, 0), (0, 1, 0), (0, 1, 0), (0, -1, 0), (0, -1, 0), (0, -1, 0), (0, -1, 0), (0, 0, 1), (0, 0, 1), (0, 0, 1), (0, 0, 1), (0, 0, -1), (0, 0, -1), (0, 0, -1), (0, 0, -1), (1, 0, 0), (1, 0, 0), (1, 0, 0), (1, 0, 0), (-1, 0, 0), (-1, 0, 0), (-1, 0, 0), (-1, 0, 0), (0, 1, 0), (0, 1, 0), (0, 1, 0), (0, 1, 0), (0, -1, 0), (0, -1, 0), (0, -1, 0), (0, -1, 0), (0, 0, 1), (0, 0, 1), (0, 0, 1), (0, 0, 1), (0, 0, -1), (0, 0, -1), (0, 0, -1), (0, 0, -1), (1, 0, 0), (1, 0, 0), (1, 0, 0), (1, 0, 0), (-1, 0, 0), (-1, 0, 0), (-1, 0, 0), (-1, 0, 0), (0, 1, 0), (0, 1, 0), (0, 1, 0), (0, 1, 0), (0, -1, 0), (0, -1, 0), (0, -1, 0), (0, -1, 0), (0, 0, 1), (0, 0, 1), (0, 0, 1), (0, 0, 1), (0, 0, -1), (0, 0, -1), (0, 0, -1), (0, 0, -1)] (interpolation = "faceVarying")
        float3[] extent = [(-0.02, -0.7, 0.127), (3.985, 0.7, 2.099)]
        uniform token subdivisionScheme = "none"
        bool doubleSided = false
        color3f[] primvars:displayColor = [(0.42, 0.43, 0.46)] (interpolation = "constant")
        float[] primvars:displayRoughness = [0.6] (interpolation = "constant")
    }
    def Mesh "Landing"
    {
        point3f[] points = [(4.27, -0.7, 0), (4.27, -0.7, 2.1), (4.27, 0.7, 0), (4.27, 0.7, 2.1), (5.27, -0.7, 0), (5.27, -0.7, 2.1), (5.27, 0.7, 0), (5.27, 0.7, 2.1)]
        int[] faceVertexCounts = [4, 4, 4, 4, 4, 4]
        int[] faceVertexIndices = [4, 6, 7, 5, 0, 1, 3, 2, 2, 3, 7, 6, 0, 4, 5, 1, 1, 5, 7, 3, 0, 2, 6, 4]
        normal3f[] normals = [(1, 0, 0), (1, 0, 0), (1, 0, 0), (1, 0, 0), (-1, 0, 0), (-1, 0, 0), (-1, 0, 0), (-1, 0, 0), (0, 1, 0), (0, 1, 0), (0, 1, 0), (0, 1, 0), (0, -1, 0), (0, -1, 0), (0, -1, 0), (0, -1, 0), (0, 0, 1), (0, 0, 1), (0, 0, 1), (0, 0, 1), (0, 0, -1), (0, 0, -1), (0, 0, -1), (0, 0, -1)] (interpolation = "faceVarying")
        float3[] extent = [(4.27, -0.7, 0), (5.27, 0.7, 2.1)]
        uniform token subdivisionScheme = "none"
        bool doubleSided = false
        color3f[] primvars:displayColor = [(0.7, 0.69, 0.67)] (interpolation = "constant")
        float[] primvars:displayRoughness = [0.85] (interpolation = "constant")
    }
    def Mesh "PostsL"
    {
        point3f[] points = [(0.028, 0.76, 0), (0.028, 0.76, 0.9), (0.0242487, 0.774, 0), (0.0242487, 0.774, 0.9), (0.014, 0.784249, 0), (0.014, 0.784249, 0.9), (1.71451e-18, 0.788, 0), (1.71451e-18, 0.788, 0.9), (-0.014, 0.784249, 0), (-0.014, 0.784249, 0.9), (-0.0242487, 0.774, 0), (-0.0242487, 0.774, 0.9), (-0.028, 0.76, 0), (-0.028, 0.76, 0.9), (-0.0242487, 0.746, 0), (-0.0242487, 0.746, 0.9), (-0.014, 0.735751, 0), (-0.014, 0.735751, 0.9), (-5.14352e-18, 0.732, 0), (-5.14352e-18, 0.732, 0.9), (0.014, 0.735751, 0), (0.014, 0.735751, 0.9), (0.0242487, 0.746, 0), (0.0242487, 0.746, 0.9), (0.178, 0.76, 0), (0.178, 0.76, 0.97377), (0.174249, 0.774, 0), (0.174249, 0.774, 0.97377), (0.164, 0.784249, 0), (0.164, 0.784249, 0.97377), (0.15, 0.788, 0), (0.15, 0.788, 0.97377), (0.136, 0.784249, 0), (0.136, 0.784249, 0.97377), (0.125751, 0.774, 0), (0.125751, 0.774, 0.97377), (0.122, 0.76, 0), (0.122, 0.76, 0.97377), (0.125751, 0.746, 0), (0.125751, 0.746, 0.97377), (0.136, 0.735751, 0), (0.136, 0.735751, 0.97377), (0.15, 0.732, 0), (0.15, 0.732, 0.97377), (0.164, 0.735751, 0), (0.164, 0.735751, 0.97377), (0.174249, 0.746, 0), (0.174249, 0.746, 0.97377), (0.943, 0.76, 0), (0.943, 0.76, 1.35), (0.939249, 0.774, 0), (0.939249, 0.774, 1.35), (0.929, 0.784249, 0), (0.929, 0.784249, 1.35), (0.915, 0.788, 0), (0.915, 0.788, 1.35), (0.901, 0.784249, 0), (0.901, 0.784249, 1.35), (0.890751, 0.774, 0), (0.890751, 0.774, 1.35), (0.887, 0.76, 0), (0.887, 0.76, 1.35), (0.890751, 0.746, 0), (0.890751, 0.746, 1.35), (0.901, 0.735751, 0), (0.901, 0.735751, 1.35), (0.915, 0.732, 0), (0.915, 0.732, 1.35), (0.929, 0.735751, 0), (0.929, 0.735751, 1.35), (0.939249, 0.746, 0), (0.939249, 0.746, 1.35), (1.858, 0.76, 0), (1.858, 0.76, 1.8), (1.85425, 0.774, 0), (1.85425, 0.774, 1.8), (1.844, 0.784249, 0), (1.844, 0.784249, 1.8), (1.83, 0.788, 0), (1.83, 0.788, 1.8), (1.816, 0.784249, 0), (1.816, 0.784249, 1.8), (1.80575, 0.774, 0), (1.80575, 0.774, 1.8), (1.802, 0.76, 0), (1.802, 0.76, 1.8), (1.80575, 0.746, 0), (1.80575, 0.746, 1.8), (1.816, 0.735751, 0), (1.816, 0.735751, 1.8), (1.83, 0.732, 0), (1.83, 0.732, 1.8), (1.844, 0.735751, 0), (1.844, 0.735751, 1.8), (1.85425, 0.746, 0), (1.85425, 0.746, 1.8), (2.773, 0.76, 0), (2.773, 0.76, 2.25), (2.76925, 0.774, 0), (2.76925, 0.774, 2.25), (2.759, 0.784249, 0), (2.759, 0.784249, 2.25), (2.745, 0.788, 0), (2.745, 0.788, 2.25), (2.731, 0.784249, 0), (2.731, 0.784249, 2.25), (2.72075, 0.774, 0), (2.72075, 0.774, 2.25), (2.717, 0.76, 0), (2.717, 0.76, 2.25), (2.72075, 0.746, 0), (2.72075, 0.746, 2.25), (2.731, 0.735751, 0), (2.731, 0.735751, 2.25), (2.745, 0.732, 0), (2.745, 0.732, 2.25), (2.759, 0.735751, 0), (2.759, 0.735751, 2.25), (2.76925, 0.746, 0), (2.76925, 0.746, 2.25), (3.688, 0.76, 0), (3.688, 0.76, 2.7), (3.68425, 0.774, 0), (3.68425, 0.774, 2.7), (3.674, 0.784249, 0), (3.674, 0.784249, 2.7), (3.66, 0.788, 0), (3.66, 0.788, 2.7), (3.646, 0.784249, 0), (3.646, 0.784249, 2.7), (3.63575, 0.774, 0), (3.63575, 0.774, 2.7), (3.632, 0.76, 0), (3.632, 0.76, 2.7), (3.63575, 0.746, 0), (3.63575, 0.746, 2.7), (3.646, 0.735751, 0), (3.646, 0.735751, 2.7), (3.66, 0.732, 0), (3.66, 0.732, 2.7), (3.674, 0.735751, 0), (3.674, 0.735751, 2.7), (3.68425, 0.746, 0), (3.68425, 0.746, 2.7), (4.298, 0.76, 0), (4.298, 0.76, 3), (4.29425, 0.774, 0), (4.29425, 0.774, 3), (4.284, 0.784249, 0), (4.284, 0.784249, 3), (4.27, 0.788, 0), (4.27, 0.788, 3), (4.256, 0.784249, 0), (4.256, 0.784249, 3), (4.24575, 0.774, 0), (4.24575, 0.774, 3), (4.242, 0.76, 0), (4.242, 0.76, 3), (4.24575, 0.746, 0), (4.24575, 0.746, 3), (4.256, 0.735751, 0), (4.256, 0.735751, 3), (4.27, 0.732, 0), (4.27, 0.732, 3), (4.284, 0.735751, 0), (4.284, 0.735751, 3), (4.29425, 0.746, 0), (4.29425, 0.746, 3), (5.148, 0.76, 0), (5.148, 0.76, 3), (5.14425, 0.774, 0), (5.14425, 0.774, 3), (5.134, 0.784249, 0), (5.134, 0.784249, 3), (5.12, 0.788, 0), (5.12, 0.788, 3), (5.106, 0.784249, 0), (5.106, 0.784249, 3), (5.09575, 0.774, 0), (5.09575, 0.774, 3), (5.092, 0.76, 0), (5.092, 0.76, 3), (5.09575, 0.746, 0), (5.09575, 0.746, 3), (5.106, 0.735751, 0), (5.106, 0.735751, 3), (5.12, 0.732, 0), (5.12, 0.732, 3), (5.134, 0.735751, 0), (5.134, 0.735751, 3), (5.14425, 0.746, 0), (5.14425, 0.746, 3)]
        int[] faceVertexCounts = [4, 4, 4, 4, 4, 4, 4, 4, 4, 4, 4, 4, 12, 12, 4, 4, 4, 4, 4, 4, 4, 4, 4, 4, 4, 4, 12, 12, 4, 4, 4, 4, 4, 4, 4, 4, 4, 4, 4, 4, 12, 12, 4, 4, 4, 4, 4, 4, 4, 4, 4, 4, 4, 4, 12, 12, 4, 4, 4, 4, 4, 4, 4, 4, 4, 4, 4, 4, 12, 12, 4, 4, 4, 4, 4, 4, 4, 4, 4, 4, 4, 4, 12, 12, 4, 4, 4, 4, 4, 4, 4, 4, 4, 4, 4, 4, 12, 12, 4, 4, 4, 4, 4, 4, 4, 4, 4, 4, 4, 4, 12, 12]
        int[] faceVertexIndices = [0, 2, 3, 1, 2, 4, 5, 3, 4, 6, 7, 5, 6, 8, 9, 7, 8, 10, 11, 9, 10, 12, 13, 11, 12, 14, 15, 13, 14, 16, 17, 15, 16, 18, 19, 17, 18, 20, 21, 19, 20, 22, 23, 21, 22, 0, 1, 23, 1, 3, 5, 7, 9, 11, 13, 15, 17, 19, 21, 23, 22, 20, 18, 16, 14, 12, 10, 8, 6, 4, 2, 0, 24, 26, 27, 25, 26, 28, 29, 27, 28, 30, 31, 29, 30, 32, 33, 31, 32, 34, 35, 33, 34, 36, 37, 35, 36, 38, 39, 37, 38, 40, 41, 39, 40, 42, 43, 41, 42, 44, 45, 43, 44, 46, 47, 45, 46, 24, 25, 47, 25, 27, 29, 31, 33, 35, 37, 39, 41, 43, 45, 47, 46, 44, 42, 40, 38, 36, 34, 32, 30, 28, 26, 24, 48, 50, 51, 49, 50, 52, 53, 51, 52, 54, 55, 53, 54, 56, 57, 55, 56, 58, 59, 57, 58, 60, 61, 59, 60, 62, 63, 61, 62, 64, 65, 63, 64, 66, 67, 65, 66, 68, 69, 67, 68, 70, 71, 69, 70, 48, 49, 71, 49, 51, 53, 55, 57, 59, 61, 63, 65, 67, 69, 71, 70, 68, 66, 64, 62, 60, 58, 56, 54, 52, 50, 48, 72, 74, 75, 73, 74, 76, 77, 75, 76, 78, 79, 77, 78, 80, 81, 79, 80, 82, 83, 81, 82, 84, 85, 83, 84, 86, 87, 85, 86, 88, 89, 87, 88, 90, 91, 89, 90, 92, 93, 91, 92, 94, 95, 93, 94, 72, 73, 95, 73, 75, 77, 79, 81, 83, 85, 87, 89, 91, 93, 95, 94, 92, 90, 88, 86, 84, 82, 80, 78, 76, 74, 72, 96, 98, 99, 97, 98, 100, 101, 99, 100, 102, 103, 101, 102, 104, 105, 103, 104, 106, 107, 105, 106, 108, 109, 107, 108, 110, 111, 109, 110, 112, 113, 111, 112, 114, 115, 113, 114, 116, 117, 115, 116, 118, 119, 117, 118, 96, 97, 119, 97, 99, 101, 103, 105, 107, 109, 111, 113, 115, 117, 119, 118, 116, 114, 112, 110, 108, 106, 104, 102, 100, 98, 96, 120, 122, 123, 121, 122, 124, 125, 123, 124, 126, 127, 125, 126, 128, 129, 127, 128, 130, 131, 129, 130, 132, 133, 131, 132, 134, 135, 133, 134, 136, 137, 135, 136, 138, 139, 137, 138, 140, 141, 139, 140, 142, 143, 141, 142, 120, 121, 143, 121, 123, 125, 127, 129, 131, 133, 135, 137, 139, 141, 143, 142, 140, 138, 136, 134, 132, 130, 128, 126, 124, 122, 120, 144, 146, 147, 145, 146, 148, 149, 147, 148, 150, 151, 149, 150, 152, 153, 151, 152, 154, 155, 153, 154, 156, 157, 155, 156, 158, 159, 157, 158, 160, 161, 159, 160, 162, 163, 161, 162, 164, 165, 163, 164, 166, 167, 165, 166, 144, 145, 167, 145, 147, 149, 151, 153, 155, 157, 159, 161, 163, 165, 167, 166, 164, 162, 160, 158, 156, 154, 152, 150, 148, 146, 144, 168, 170, 171, 169, 170, 172, 173, 171, 172, 174, 175, 173, 174, 176, 177, 175, 176, 178, 179, 177, 178, 180, 181, 179, 180, 182, 183, 181, 182, 184, 185, 183, 184, 186, 187, 185, 186, 188, 189, 187, 188, 190, 191, 189, 190, 168, 169, 191, 169, 171, 173, 175, 177, 179, 181, 183, 185, 187, 189, 191, 190, 188, 186, 184, 182, 180, 178, 176, 174, 172, 170, 168]
        normal3f[] normals = [(0.965926, 0.258819, 0), (0.965926, 0.258819, 0), (0.965926, 0.258819, 0), (0.965926, 0.258819, 0), (0.707107, 0.707107, 0), (0.707107, 0.707107, 0), (0.707107, 0.707107, 0), (0.707107, 0.707107, 0), (0.258819, 0.965926, 0), (0.258819, 0.965926, 0), (0.258819, 0.965926, 0), (0.258819, 0.965926, 0), (-0.258819, 0.965926, 0), (-0.258819, 0.965926, 0), (-0.258819, 0.965926, 0), (-0.258819, 0.965926, 0), (-0.707107, 0.707107, 0), (-0.707107, 0.707107, 0), (-0.707107, 0.707107, 0), (-0.707107, 0.707107, 0), (-0.965926, 0.258819, 0), (-0.965926, 0.258819, 0), (-0.965926, 0.258819, 0), (-0.965926, 0.258819, 0), (-0.965926, -0.258819, 0), (-0.965926, -0.258819, 0), (-0.965926, -0.258819, 0), (-0.965926, -0.258819, 0), (-0.707107, -0.707107, 0), (-0.707107, -0.707107, 0), (-0.707107, -0.707107, 0), (-0.707107, -0.707107, 0), (-0.258819, -0.965926, 0), (-0.258819, -0.965926, 0), (-0.258819, -0.965926, 0), (-0.258819, -0.965926, 0), (0.258819, -0.965926, 0), (0.258819, -0.965926, 0), (0.258819, -0.965926, 0), (0.258819, -0.965926, 0), (0.707107, -0.707107, 0), (0.707107, -0.707107, 0), (0.707107, -0.707107, 0), (0.707107, -0.707107, 0), (0.965926, -0.258819, 0), (0.965926, -0.258819, 0), (0.965926, -0.258819, 0), (0.965926, -0.258819, 0), (0, 0, 1), (0, 0, 1), (0, 0, 1), (0, 0, 1), (0, 0, 1), (0, 0, 1), (0, 0, 1), (0, 0, 1), (0, 0, 1), (0, 0, 1), (0, 0, 1), (0, 0, 1), (0, 0, -1), (0, 0, -1), (0, 0, -1), (0, 0, -1), (0, 0, -1), (0, 0, -1), (0, 0, -1), (0, 0, -1), (0, 0, -1), (0, 0, -1), (0, 0, -1), (0, 0, -1), (0.965926, 0.258819, 0), (0.965926, 0.258819, 0), (0.965926, 0.258819, 0), (0.965926, 0.258819, 0), (0.707107, 0.707107, 0), (0.707107, 0.707107, 0), (0.707107, 0.707107, 0), (0.707107, 0.707107, 0), (0.258819, 0.965926, 0), (0.258819, 0.965926, 0), (0.258819, 0.965926, 0), (0.258819, 0.965926, 0), (-0.258819, 0.965926, 0), (-0.258819, 0.965926, 0), (-0.258819, 0.965926, 0), (-0.258819, 0.965926, 0), (-0.707107, 0.707107, 0), (-0.707107, 0.707107, 0), (-0.707107, 0.707107, 0), (-0.707107, 0.707107, 0), (-0.965926, 0.258819, 0), (-0.965926, 0.258819, 0), (-0.965926, 0.258819, 0), (-0.965926, 0.258819, 0), (-0.965926, -0.258819, 0), (-0.965926, -0.258819, 0), (-0.965926, -0.258819, 0), (-0.965926, -0.258819, 0), (-0.707107, -0.707107, 0), (-0.707107, -0.707107, 0), (-0.707107, -0.707107, 0), (-0.707107, -0.707107, 0), (-0.258819, -0.965926, 0), (-0.258819, -0.965926, 0), (-0.258819, -0.965926, 0), (-0.258819, -0.965926, 0), (0.258819, -0.965926, 0), (0.258819, -0.965926, 0), (0.258819, -0.965926, 0), (0.258819, -0.965926, 0), (0.707107, -0.707107, 0), (0.707107, -0.707107, 0), (0.707107, -0.707107, 0), (0.707107, -0.707107, 0), (0.965926, -0.258819, 0), (0.965926, -0.258819, 0), (0.965926, -0.258819, 0), (0.965926, -0.258819, 0), (2.21266e-15, 0, 1), (2.21266e-15, 0, 1), (2.21266e-15, 0, 1), (2.21266e-15, 0, 1), (2.21266e-15, 0, 1), (2.21266e-15, 0, 1), (2.21266e-15, 0, 1), (2.21266e-15, 0, 1), (2.21266e-15, 0, 1), (2.21266e-15, 0, 1), (2.21266e-15, 0, 1), (2.21266e-15, 0, 1), (0, 0, -1), (0, 0, -1), (0, 0, -1), (0, 0, -1), (0, 0, -1), (0, 0, -1), (0, 0, -1), (0, 0, -1), (0, 0, -1), (0, 0, -1), (0, 0, -1), (0, 0, -1), (0.965926, 0.258819, 0), (0.965926, 0.258819, 0), (0.965926, 0.258819, 0), (0.965926, 0.258819, 0), (0.707107, 0.707107, 0), (0.707107, 0.707107, 0), (0.707107, 0.707107, 0), (0.707107, 0.707107, 0), (0.258819, 0.965926, 0), (0.258819, 0.965926, 0), (0.258819, 0.965926, 0), (0.258819, 0.965926, 0), (-0.258819, 0.965926, 0), (-0.258819, 0.965926, 0), (-0.258819, 0.965926, 0), (-0.258819, 0.965926, 0), (-0.707107, 0.707107, 0), (-0.707107, 0.707107, 0), (-0.707107, 0.707107, 0), (-0.707107, 0.707107, 0), (-0.965926, 0.258819, 0), (-0.965926, 0.258819, 0), (-0.965926, 0.258819, 0), (-0.965926, 0.258819, 0), (-0.965926, -0.258819, 0), (-0.965926, -0.258819, 0), (-0.965926, -0.258819, 0), (-0.965926, -0.258819, 0), (-0.707107, -0.707107, 0), (-0.707107, -0.707107, 0), (-0.707107, -0.707107, 0), (-0.707107, -0.707107, 0), (-0.258819, -0.965926, 0), (-0.258819, -0.965926, 0), (-0.258819, -0.965926, 0), (-0.258819, -0.965926, 0), (0.258819, -0.965926, 0), (0.258819, -0.965926, 0), (0.258819, -0.965926, 0), (0.258819, -0.965926, 0), (0.707107, -0.707107, 0), (0.707107, -0.707107, 0), (0.707107, -0.707107, 0), (0.707107, -0.707107, 0), (0.965926, -0.258819, 0), (0.965926, -0.258819, 0), (0.965926, -0.258819, 0), (0.965926, -0.258819, 0), (-1.4751e-15, 0, 1), (-1.4751e-15, 0, 1), (-1.4751e-15, 0, 1), (-1.4751e-15, 0, 1), (-1.4751e-15, 0, 1), (-1.4751e-15, 0, 1), (-1.4751e-15, 0, 1), (-1.4751e-15, 0, 1), (-1.4751e-15, 0, 1), (-1.4751e-15, 0, 1), (-1.4751e-15, 0, 1), (-1.4751e-15, 0, 1), (0, 0, -1), (0, 0, -1), (0, 0, -1), (0, 0, -1), (0, 0, -1), (0, 0, -1), (0, 0, -1), (0, 0, -1), (0, 0, -1), (0, 0, -1), (0, 0, -1), (0, 0, -1), (0.965926, 0.258819, 0), (0.965926, 0.258819, 0), (0.965926, 0.258819, 0), (0.965926, 0.258819, 0), (0.707107, 0.707107, 0), (0.707107, 0.707107, 0), (0.707107, 0.707107, 0), (0.707107, 0.707107, 0), (0.258819, 0.965926, 0), (0.258819, 0.965926, 0), (0.258819, 0.965926, 0), (0.258819, 0.965926, 0), (-0.258819, 0.965926, 0), (-0.258819, 0.965926, 0), (-0.258819, 0.965926, 0), (-0.258819, 0.965926, 0), (-0.707107, 0.707107, 0), (-0.707107, 0.707107, 0), (-0.707107, 0.707107, 0), (-0.707107, 0.707107, 0), (-0.965926, 0.258819, 0), (-0.965926, 0.258819, 0), (-0.965926, 0.258819, 0), (-0.965926, 0.258819, 0), (-0.965926, -0.258819, 0), (-0.965926, -0.258819, 0), (-0.965926, -0.258819, 0), (-0.965926, -0.258819, 0), (-0.707107, -0.707107, 0), (-0.707107, -0.707107, 0), (-0.707107, -0.707107, 0), (-0.707107, -0.707107, 0), (-0.258819, -0.965926, 0), (-0.258819, -0.965926, 0), (-0.258819, -0.965926, 0), (-0.258819, -0.965926, 0), (0.258819, -0.965926, 0), (0.258819, -0.965926, 0), (0.258819, -0.965926, 0), (0.258819, -0.965926, 0), (0.707107, -0.707107, 0), (0.707107, -0.707107, 0), (0.707107, -0.707107, 0), (0.707107, -0.707107, 0), (0.965926, -0.258819, 0), (0.965926, -0.258819, 0), (0.965926, -0.258819, 0), (0.965926, -0.258819, 0), (0, 0, 1), (0, 0, 1), (0, 0, 1), (0, 0, 1), (0, 0, 1), (0, 0, 1), (0, 0, 1), (0, 0, 1), (0, 0, 1), (0, 0, 1), (0, 0, 1), (0, 0, 1), (0, 0, -1), (0, 0, -1), (0, 0, -1), (0, 0, -1), (0, 0, -1), (0, 0, -1), (0, 0, -1), (0, 0, -1), (0, 0, -1), (0, 0, -1), (0, 0, -1), (0, 0, -1), (0.965926, 0.258819, 0), (0.965926, 0.258819, 0), (0.965926, 0.258819, 0), (0.965926, 0.258819, 0), (0.707107, 0.707107, 0), (0.707107, 0.707107, 0), (0.707107, 0.707107, 0), (0.707107, 0.707107, 0), (0.258819, 0.965926, 0), (0.258819, 0.965926, 0), (0.258819, 0.965926, 0), (0.258819, 0.965926, 0), (-0.258819, 0.965926, 0), (-0.258819, 0.965926, 0), (-0.258819, 0.965926, 0), (-0.258819, 0.965926, 0), (-0.707107, 0.707107, 0), (-0.707107, 0.707107, 0), (-0.707107, 0.707107, 0), (-0.707107, 0.707107, 0), (-0.965926, 0.258819, 0), (-0.965926, 0.258819, 0), (-0.965926, 0.258819, 0), (-0.965926, 0.258819, 0), (-0.965926, -0.258819, 0), (-0.965926, -0.258819, 0), (-0.965926, -0.258819, 0), (-0.965926, -0.258819, 0), (-0.707107, -0.707107, 0), (-0.707107, -0.707107, 0), (-0.707107, -0.707107, 0), (-0.707107, -0.707107, 0), (-0.258819, -0.965926, 0), (-0.258819, -0.965926, 0), (-0.258819, -0.965926, 0), (-0.258819, -0.965926, 0), (0.258819, -0.965926, 0), (0.258819, -0.965926, 0), (0.258819, -0.965926, 0), (0.258819, -0.965926, 0), (0.707107, -0.707107, 0), (0.707107, -0.707107, 0), (0.707107, -0.707107, 0), (0.707107, -0.707107, 0), (0.965926, -0.258819, 0), (0.965926, -0.258819, 0), (0.965926, -0.258819, 0), (0.965926, -0.258819, 0), (0, 0, 1), (0, 0, 1), (0, 0, 1), (0, 0, 1), (0, 0, 1), (0, 0, 1), (0, 0, 1), (0, 0, 1), (0, 0, 1), (0, 0, 1), (0, 0, 1), (0, 0, 1), (0, 0, -1), (0, 0, -1), (0, 0, -1), (0, 0, -1), (0, 0, -1), (0, 0, -1), (0, 0, -1), (0, 0, -1), (0, 0, -1), (0, 0, -1), (0, 0, -1), (0, 0, -1), (0.965926, 0.258819, 0), (0.965926, 0.258819, 0), (0.965926, 0.258819, 0), (0.965926, 0.258819, 0), (0.707107, 0.707107, 0), (0.707107, 0.707107, 0), (0.707107, 0.707107, 0), (0.707107, 0.707107, 0), (0.258819, 0.965926, 0), (0.258819, 0.965926, 0), (0.258819, 0.965926, 0), (0.258819, 0.965926, 0), (-0.258819, 0.965926, 0), (-0.258819, 0.965926, 0), (-0.258819, 0.965926, 0), (-0.258819, 0.965926, 0), (-0.707107, 0.707107, 0), (-0.707107, 0.707107, 0), (-0.707107, 0.707107, 0), (-0.707107, 0.707107, 0), (-0.965926, 0.258819, 0), (-0.965926, 0.258819, 0), (-0.965926, 0.258819, 0), (-0.965926, 0.258819, 0), (-0.965926, -0.258819, 0), (-0.965926, -0.258819, 0), (-0.965926, -0.258819, 0), (-0.965926, -0.258819, 0), (-0.707107, -0.707107, 0), (-0.707107, -0.707107, 0), (-0.707107, -0.707107, 0), (-0.707107, -0.707107, 0), (-0.258819, -0.965926, 0), (-0.258819, -0.965926, 0), (-0.258819, -0.965926, 0), (-0.258819, -0.965926, 0), (0.258819, -0.965926, 0), (0.258819, -0.965926, 0), (0.258819, -0.965926, 0), (0.258819, -0.965926, 0), (0.707107, -0.707107, 0), (0.707107, -0.707107, 0), (0.707107, -0.707107, 0), (0.707107, -0.707107, 0), (0.965926, -0.258819, 0), (0.965926, -0.258819, 0), (0.965926, -0.258819, 0), (0.965926, -0.258819, 0), (-2.95021e-15, 0, 1), (-2.95021e-15, 0, 1), (-2.95021e-15, 0, 1), (-2.95021e-15, 0, 1), (-2.95021e-15, 0, 1), (-2.95021e-15, 0, 1), (-2.95021e-15, 0, 1), (-2.95021e-15, 0, 1), (-2.95021e-15, 0, 1), (-2.95021e-15, 0, 1), (-2.95021e-15, 0, 1), (-2.95021e-15, 0, 1), (0, 0, -1), (0, 0, -1), (0, 0, -1), (0, 0, -1), (0, 0, -1), (0, 0, -1), (0, 0, -1), (0, 0, -1), (0, 0, -1), (0, 0, -1), (0, 0, -1), (0, 0, -1), (0.965926, 0.258819, 0), (0.965926, 0.258819, 0), (0.965926, 0.258819, 0), (0.965926, 0.258819, 0), (0.707107, 0.707107, 0), (0.707107, 0.707107, 0), (0.707107, 0.707107, 0), (0.707107, 0.707107, 0), (0.258819, 0.965926, 0), (0.258819, 0.965926, 0), (0.258819, 0.965926, 0), (0.258819, 0.965926, 0), (-0.258819, 0.965926, 0), (-0.258819, 0.965926, 0), (-0.258819, 0.965926, 0), (-0.258819, 0.965926, 0), (-0.707107, 0.707107, 0), (-0.707107, 0.707107, 0), (-0.707107, 0.707107, 0), (-0.707107, 0.707107, 0), (-0.965926, 0.258819, 0), (-0.965926, 0.258819, 0), (-0.965926, 0.258819, 0), (-0.965926, 0.258819, 0), (-0.965926, -0.258819, 0), (-0.965926, -0.258819, 0), (-0.965926, -0.258819, 0), (-0.965926, -0.258819, 0), (-0.707107, -0.707107, 0), (-0.707107, -0.707107, 0), (-0.707107, -0.707107, 0), (-0.707107, -0.707107, 0), (-0.258819, -0.965926, 0), (-0.258819, -0.965926, 0), (-0.258819, -0.965926, 0), (-0.258819, -0.965926, 0), (0.258819, -0.965926, 0), (0.258819, -0.965926, 0), (0.258819, -0.965926, 0), (0.258819, -0.965926, 0), (0.707107, -0.707107, 0), (0.707107, -0.707107, 0), (0.707107, -0.707107, 0), (0.707107, -0.707107, 0), (0.965926, -0.258819, 0), (0.965926, -0.258819, 0), (0.965926, -0.258819, 0), (0.965926, -0.258819, 0), (2.95021e-15, 0, 1), (2.95021e-15, 0, 1), (2.95021e-15, 0, 1), (2.95021e-15, 0, 1), (2.95021e-15, 0, 1), (2.95021e-15, 0, 1), (2.95021e-15, 0, 1), (2.95021e-15, 0, 1), (2.95021e-15, 0, 1), (2.95021e-15, 0, 1), (2.95021e-15, 0, 1), (2.95021e-15, 0, 1), (0, 0, -1), (0, 0, -1), (0, 0, -1), (0, 0, -1), (0, 0, -1), (0, 0, -1), (0, 0, -1), (0, 0, -1), (0, 0, -1), (0, 0, -1), (0, 0, -1), (0, 0, -1), (0.965926, 0.258819, 0), (0.965926, 0.258819, 0), (0.965926, 0.258819, 0), (0.965926, 0.258819, 0), (0.707107, 0.707107, 0), (0.707107, 0.707107, 0), (0.707107, 0.707107, 0), (0.707107, 0.707107, 0), (0.258819, 0.965926, 0), (0.258819, 0.965926, 0), (0.258819, 0.965926, 0), (0.258819, 0.965926, 0), (-0.258819, 0.965926, 0), (-0.258819, 0.965926, 0), (-0.258819, 0.965926, 0), (-0.258819, 0.965926, 0), (-0.707107, 0.707107, 0), (-0.707107, 0.707107, 0), (-0.707107, 0.707107, 0), (-0.707107, 0.707107, 0), (-0.965926, 0.258819, 0), (-0.965926, 0.258819, 0), (-0.965926, 0.258819, 0), (-0.965926, 0.258819, 0), (-0.965926, -0.258819, 0), (-0.965926, -0.258819, 0), (-0.965926, -0.258819, 0), (-0.965926, -0.258819, 0), (-0.707107, -0.707107, 0), (-0.707107, -0.707107, 0), (-0.707107, -0.707107, 0), (-0.707107, -0.707107, 0), (-0.258819, -0.965926, 0), (-0.258819, -0.965926, 0), (-0.258819, -0.965926, 0), (-0.258819, -0.965926, 0), (0.258819, -0.965926, 0), (0.258819, -0.965926, 0), (0.258819, -0.965926, 0), (0.258819, -0.965926, 0), (0.707107, -0.707107, 0), (0.707107, -0.707107, 0), (0.707107, -0.707107, 0), (0.707107, -0.707107, 0), (0.965926, -0.258819, 0), (0.965926, -0.258819, 0), (0.965926, -0.258819, 0), (0.965926, -0.258819, 0), (0, 0, 1), (0, 0, 1), (0, 0, 1), (0, 0, 1), (0, 0, 1), (0, 0, 1), (0, 0, 1), (0, 0, 1), (0, 0, 1), (0, 0, 1), (0, 0, 1), (0, 0, 1), (0, 0, -1), (0, 0, -1), (0, 0, -1), (0, 0, -1), (0, 0, -1), (0, 0, -1), (0, 0, -1), (0, 0, -1), (0, 0, -1), (0, 0, -1), (0, 0, -1), (0, 0, -1)] (interpolation = "faceVarying")
        float3[] extent = [(-0.028, 0.732, 0), (5.148, 0.788, 3)]
        uniform token subdivisionScheme = "none"
        bool doubleSided = false
        color3f[] primvars:displayColor = [(0.4, 0.42, 0.46)] (interpolation = "constant")
        float[] primvars:displayRoughness = [0.5] (interpolation = "constant")
    }
    def Mesh "RailL"
    {
        point3f[] points = [(0, 0.73, 0.87), (0, 0.73, 0.93), (0, 0.79, 0.93), (0, 0.79, 0.87), (4.27, 0.73, 2.97), (4.27, 0.73, 3.03), (4.27, 0.79, 3.03), (4.27, 0.79, 2.97), (4.27, 0.73, 2.97), (4.27, 0.73, 3.03), (4.27, 0.79, 3.03), (4.27, 0.79, 2.97), (5.27, 0.73, 2.97), (5.27, 0.73, 3.03), (5.27, 0.79, 3.03), (5.27, 0.79, 2.97)]
        int[] faceVertexCounts = [4, 4, 4, 4, 4, 4, 4, 4, 4, 4, 4, 4]
        int[] faceVertexIndices = [0, 1, 5, 4, 1, 2, 6, 5, 2, 3, 7, 6, 3, 0, 4, 7, 3, 2, 1, 0, 4, 5, 6, 7, 8, 9, 13, 12, 9, 10, 14, 13, 10, 11, 15, 14, 11, 8, 12, 15, 11, 10, 9, 8, 12, 13, 14, 15]
        normal3f[] normals = [(0, 1, 0), (0, 1, 0), (0, 1, 0), (0, 1, 0), (0.44132, 0, -0.89735), (0.44132, 0, -0.89735), (0.44132, 0, -0.89735), (0.44132, 0, -0.89735), (0, -1, 0), (0, -1, 0), (0, -1, 0), (0, -1, 0), (-0.44132, 0, 0.89735), (-0.44132, 0, 0.89735), (-0.44132, 0, 0.89735), (-0.44132, 0, 0.89735), (1, 0, 0), (1, 0, 0), (1, 0, 0), (1, 0, 0), (-1, 0, 0), (-1, 0, 0), (-1, 0, 0), (-1, 0, 0), (0, 1, 0), (0, 1, 0), (0, 1, 0), (0, 1, 0), (0, 0, -1), (0, 0, -1), (0, 0, -1), (0, 0, -1), (0, -1, 0), (0, -1, 0), (0, -1, 0), (0, -1, 0), (0, 0, 1), (0, 0, 1), (0, 0, 1), (0, 0, 1), (1, 0, 0), (1, 0, 0), (1, 0, 0), (1, 0, 0), (-1, 0, 0), (-1, 0, 0), (-1, 0, 0), (-1, 0, 0)] (interpolation = "faceVarying")
        float3[] extent = [(0, 0.73, 0.87), (5.27, 0.79, 3.03)]
        uniform token subdivisionScheme = "none"
        bool doubleSided = true
        color3f[] primvars:displayColor = [(0.62, 0.64, 0.68)] (interpolation = "constant")
        float[] primvars:displayMetallic = [0.6] (interpolation = "constant")
        float[] primvars:displayRoughness = [0.3] (interpolation = "constant")
    }
    def Mesh "PostsR"
    {
        point3f[] points = [(0.028, -0.76, 0), (0.028, -0.76, 0.9), (0.0242487, -0.746, 0), (0.0242487, -0.746, 0.9), (0.014, -0.735751, 0), (0.014, -0.735751, 0.9), (1.71451e-18, -0.732, 0), (1.71451e-18, -0.732, 0.9), (-0.014, -0.735751, 0), (-0.014, -0.735751, 0.9), (-0.0242487, -0.746, 0), (-0.0242487, -0.746, 0.9), (-0.028, -0.76, 0), (-0.028, -0.76, 0.9), (-0.0242487, -0.774, 0), (-0.0242487, -0.774, 0.9), (-0.014, -0.784249, 0), (-0.014, -0.784249, 0.9), (-5.14352e-18, -0.788, 0), (-5.14352e-18, -0.788, 0.9), (0.014, -0.784249, 0), (0.014, -0.784249, 0.9), (0.0242487, -0.774, 0), (0.0242487, -0.774, 0.9), (0.178, -0.76, 0), (0.178, -0.76, 0.97377), (0.174249, -0.746, 0), (0.174249, -0.746, 0.97377), (0.164, -0.735751, 0), (0.164, -0.735751, 0.97377), (0.15, -0.732, 0), (0.15, -0.732, 0.97377), (0.136, -0.735751, 0), (0.136, -0.735751, 0.97377), (0.125751, -0.746, 0), (0.125751, -0.746, 0.97377), (0.122, -0.76, 0), (0.122, -0.76, 0.97377), (0.125751, -0.774, 0), (0.125751, -0.774, 0.97377), (0.136, -0.784249, 0), (0.136, -0.784249, 0.97377), (0.15, -0.788, 0), (0.15, -0.788, 0.97377), (0.164, -0.784249, 0), (0.164, -0.784249, 0.97377), (0.174249, -0.774, 0), (0.174249, -0.774, 0.97377), (0.943, -0.76, 0), (0.943, -0.76, 1.35), (0.939249, -0.746, 0), (0.939249, -0.746, 1.35), (0.929, -0.735751, 0), (0.929, -0.735751, 1.35), (0.915, -0.732, 0), (0.915, -0.732, 1.35), (0.901, -0.735751, 0), (0.901, -0.735751, 1.35), (0.890751, -0.746, 0), (0.890751, -0.746, 1.35), (0.887, -0.76, 0), (0.887, -0.76, 1.35), (0.890751, -0.774, 0), (0.890751, -0.774, 1.35), (0.901, -0.784249, 0), (0.901, -0.784249, 1.35), (0.915, -0.788, 0), (0.915, -0.788, 1.35), (0.929, -0.784249, 0), (0.929, -0.784249, 1.35), (0.939249, -0.774, 0), (0.939249, -0.774, 1.35), (1.858, -0.76, 0), (1.858, -0.76, 1.8), (1.85425, -0.746, 0), (1.85425, -0.746, 1.8), (1.844, -0.735751, 0), (1.844, -0.735751, 1.8), (1.83, -0.732, 0), (1.83, -0.732, 1.8), (1.816, -0.735751, 0), (1.816, -0.735751, 1.8), (1.80575, -0.746, 0), (1.80575, -0.746, 1.8), (1.802, -0.76, 0), (1.802, -0.76, 1.8), (1.80575, -0.774, 0), (1.80575, -0.774, 1.8), (1.816, -0.784249, 0), (1.816, -0.784249, 1.8), (1.83, -0.788, 0), (1.83, -0.788, 1.8), (1.844, -0.784249, 0), (1.844, -0.784249, 1.8), (1.85425, -0.774, 0), (1.85425, -0.774, 1.8), (2.773, -0.76, 0), (2.773, -0.76, 2.25), (2.76925, -0.746, 0), (2.76925, -0.746, 2.25), (2.759, -0.735751, 0), (2.759, -0.735751, 2.25), (2.745, -0.732, 0), (2.745, -0.732, 2.25), (2.731, -0.735751, 0), (2.731, -0.735751, 2.25), (2.72075, -0.746, 0), (2.72075, -0.746, 2.25), (2.717, -0.76, 0), (2.717, -0.76, 2.25), (2.72075, -0.774, 0), (2.72075, -0.774, 2.25), (2.731, -0.784249, 0), (2.731, -0.784249, 2.25), (2.745, -0.788, 0), (2.745, -0.788, 2.25), (2.759, -0.784249, 0), (2.759, -0.784249, 2.25), (2.76925, -0.774, 0), (2.76925, -0.774, 2.25), (3.688, -0.76, 0), (3.688, -0.76, 2.7), (3.68425, -0.746, 0), (3.68425, -0.746, 2.7), (3.674, -0.735751, 0), (3.674, -0.735751, 2.7), (3.66, -0.732, 0), (3.66, -0.732, 2.7), (3.646, -0.735751, 0), (3.646, -0.735751, 2.7), (3.63575, -0.746, 0), (3.63575, -0.746, 2.7), (3.632, -0.76, 0), (3.632, -0.76, 2.7), (3.63575, -0.774, 0), (3.63575, -0.774, 2.7), (3.646, -0.784249, 0), (3.646, -0.784249, 2.7), (3.66, -0.788, 0), (3.66, -0.788, 2.7), (3.674, -0.784249, 0), (3.674, -0.784249, 2.7), (3.68425, -0.774, 0), (3.68425, -0.774, 2.7), (4.298, -0.76, 0), (4.298, -0.76, 3), (4.29425, -0.746, 0), (4.29425, -0.746, 3), (4.284, -0.735751, 0), (4.284, -0.735751, 3), (4.27, -0.732, 0), (4.27, -0.732, 3), (4.256, -0.735751, 0), (4.256, -0.735751, 3), (4.24575, -0.746, 0), (4.24575, -0.746, 3), (4.242, -0.76, 0), (4.242, -0.76, 3), (4.24575, -0.774, 0), (4.24575, -0.774, 3), (4.256, -0.784249, 0), (4.256, -0.784249, 3), (4.27, -0.788, 0), (4.27, -0.788, 3), (4.284, -0.784249, 0), (4.284, -0.784249, 3), (4.29425, -0.774, 0), (4.29425, -0.774, 3), (5.148, -0.76, 0), (5.148, -0.76, 3), (5.14425, -0.746, 0), (5.14425, -0.746, 3), (5.134, -0.735751, 0), (5.134, -0.735751, 3), (5.12, -0.732, 0), (5.12, -0.732, 3), (5.106, -0.735751, 0), (5.106, -0.735751, 3), (5.09575, -0.746, 0), (5.09575, -0.746, 3), (5.092, -0.76, 0), (5.092, -0.76, 3), (5.09575, -0.774, 0), (5.09575, -0.774, 3), (5.106, -0.784249, 0), (5.106, -0.784249, 3), (5.12, -0.788, 0), (5.12, -0.788, 3), (5.134, -0.784249, 0), (5.134, -0.784249, 3), (5.14425, -0.774, 0), (5.14425, -0.774, 3)]
        int[] faceVertexCounts = [4, 4, 4, 4, 4, 4, 4, 4, 4, 4, 4, 4, 12, 12, 4, 4, 4, 4, 4, 4, 4, 4, 4, 4, 4, 4, 12, 12, 4, 4, 4, 4, 4, 4, 4, 4, 4, 4, 4, 4, 12, 12, 4, 4, 4, 4, 4, 4, 4, 4, 4, 4, 4, 4, 12, 12, 4, 4, 4, 4, 4, 4, 4, 4, 4, 4, 4, 4, 12, 12, 4, 4, 4, 4, 4, 4, 4, 4, 4, 4, 4, 4, 12, 12, 4, 4, 4, 4, 4, 4, 4, 4, 4, 4, 4, 4, 12, 12, 4, 4, 4, 4, 4, 4, 4, 4, 4, 4, 4, 4, 12, 12]
        int[] faceVertexIndices = [0, 2, 3, 1, 2, 4, 5, 3, 4, 6, 7, 5, 6, 8, 9, 7, 8, 10, 11, 9, 10, 12, 13, 11, 12, 14, 15, 13, 14, 16, 17, 15, 16, 18, 19, 17, 18, 20, 21, 19, 20, 22, 23, 21, 22, 0, 1, 23, 1, 3, 5, 7, 9, 11, 13, 15, 17, 19, 21, 23, 22, 20, 18, 16, 14, 12, 10, 8, 6, 4, 2, 0, 24, 26, 27, 25, 26, 28, 29, 27, 28, 30, 31, 29, 30, 32, 33, 31, 32, 34, 35, 33, 34, 36, 37, 35, 36, 38, 39, 37, 38, 40, 41, 39, 40, 42, 43, 41, 42, 44, 45, 43, 44, 46, 47, 45, 46, 24, 25, 47, 25, 27, 29, 31, 33, 35, 37, 39, 41, 43, 45, 47, 46, 44, 42, 40, 38, 36, 34, 32, 30, 28, 26, 24, 48, 50, 51, 49, 50, 52, 53, 51, 52, 54, 55, 53, 54, 56, 57, 55, 56, 58, 59, 57, 58, 60, 61, 59, 60, 62, 63, 61, 62, 64, 65, 63, 64, 66, 67, 65, 66, 68, 69, 67, 68, 70, 71, 69, 70, 48, 49, 71, 49, 51, 53, 55, 57, 59, 61, 63, 65, 67, 69, 71, 70, 68, 66, 64, 62, 60, 58, 56, 54, 52, 50, 48, 72, 74, 75, 73, 74, 76, 77, 75, 76, 78, 79, 77, 78, 80, 81, 79, 80, 82, 83, 81, 82, 84, 85, 83, 84, 86, 87, 85, 86, 88, 89, 87, 88, 90, 91, 89, 90, 92, 93, 91, 92, 94, 95, 93, 94, 72, 73, 95, 73, 75, 77, 79, 81, 83, 85, 87, 89, 91, 93, 95, 94, 92, 90, 88, 86, 84, 82, 80, 78, 76, 74, 72, 96, 98, 99, 97, 98, 100, 101, 99, 100, 102, 103, 101, 102, 104, 105, 103, 104, 106, 107, 105, 106, 108, 109, 107, 108, 110, 111, 109, 110, 112, 113, 111, 112, 114, 115, 113, 114, 116, 117, 115, 116, 118, 119, 117, 118, 96, 97, 119, 97, 99, 101, 103, 105, 107, 109, 111, 113, 115, 117, 119, 118, 116, 114, 112, 110, 108, 106, 104, 102, 100, 98, 96, 120, 122, 123, 121, 122, 124, 125, 123, 124, 126, 127, 125, 126, 128, 129, 127, 128, 130, 131, 129, 130, 132, 133, 131, 132, 134, 135, 133, 134, 136, 137, 135, 136, 138, 139, 137, 138, 140, 141, 139, 140, 142, 143, 141, 142, 120, 121, 143, 121, 123, 125, 127, 129, 131, 133, 135, 137, 139, 141, 143, 142, 140, 138, 136, 134, 132, 130, 128, 126, 124, 122, 120, 144, 146, 147, 145, 146, 148, 149, 147, 148, 150, 151, 149, 150, 152, 153, 151, 152, 154, 155, 153, 154, 156, 157, 155, 156, 158, 159, 157, 158, 160, 161, 159, 160, 162, 163, 161, 162, 164, 165, 163, 164, 166, 167, 165, 166, 144, 145, 167, 145, 147, 149, 151, 153, 155, 157, 159, 161, 163, 165, 167, 166, 164, 162, 160, 158, 156, 154, 152, 150, 148, 146, 144, 168, 170, 171, 169, 170, 172, 173, 171, 172, 174, 175, 173, 174, 176, 177, 175, 176, 178, 179, 177, 178, 180, 181, 179, 180, 182, 183, 181, 182, 184, 185, 183, 184, 186, 187, 185, 186, 188, 189, 187, 188, 190, 191, 189, 190, 168, 169, 191, 169, 171, 173, 175, 177, 179, 181, 183, 185, 187, 189, 191, 190, 188, 186, 184, 182, 180, 178, 176, 174, 172, 170, 168]
        normal3f[] normals = [(0.965926, 0.258819, 0), (0.965926, 0.258819, 0), (0.965926, 0.258819, 0), (0.965926, 0.258819, 0), (0.707107, 0.707107, 0), (0.707107, 0.707107, 0), (0.707107, 0.707107, 0), (0.707107, 0.707107, 0), (0.258819, 0.965926, 0), (0.258819, 0.965926, 0), (0.258819, 0.965926, 0), (0.258819, 0.965926, 0), (-0.258819, 0.965926, 0), (-0.258819, 0.965926, 0), (-0.258819, 0.965926, 0), (-0.258819, 0.965926, 0), (-0.707107, 0.707107, 0), (-0.707107, 0.707107, 0), (-0.707107, 0.707107, 0), (-0.707107, 0.707107, 0), (-0.965926, 0.258819, 0), (-0.965926, 0.258819, 0), (-0.965926, 0.258819, 0), (-0.965926, 0.258819, 0), (-0.965926, -0.258819, 0), (-0.965926, -0.258819, 0), (-0.965926, -0.258819, 0), (-0.965926, -0.258819, 0), (-0.707107, -0.707107, 0), (-0.707107, -0.707107, 0), (-0.707107, -0.707107, 0), (-0.707107, -0.707107, 0), (-0.258819, -0.965926, 0), (-0.258819, -0.965926, 0), (-0.258819, -0.965926, 0), (-0.258819, -0.965926, 0), (0.258819, -0.965926, 0), (0.258819, -0.965926, 0), (0.258819, -0.965926, 0), (0.258819, -0.965926, 0), (0.707107, -0.707107, 0), (0.707107, -0.707107, 0), (0.707107, -0.707107, 0), (0.707107, -0.707107, 0), (0.965926, -0.258819, 0), (0.965926, -0.258819, 0), (0.965926, -0.258819, 0), (0.965926, -0.258819, 0), (0, 0, 1), (0, 0, 1), (0, 0, 1), (0, 0, 1), (0, 0, 1), (0, 0, 1), (0, 0, 1), (0, 0, 1), (0, 0, 1), (0, 0, 1), (0, 0, 1), (0, 0, 1), (0, 0, -1), (0, 0, -1), (0, 0, -1), (0, 0, -1), (0, 0, -1), (0, 0, -1), (0, 0, -1), (0, 0, -1), (0, 0, -1), (0, 0, -1), (0, 0, -1), (0, 0, -1), (0.965926, 0.258819, 0), (0.965926, 0.258819, 0), (0.965926, 0.258819, 0), (0.965926, 0.258819, 0), (0.707107, 0.707107, 0), (0.707107, 0.707107, 0), (0.707107, 0.707107, 0), (0.707107, 0.707107, 0), (0.258819, 0.965926, 0), (0.258819, 0.965926, 0), (0.258819, 0.965926, 0), (0.258819, 0.965926, 0), (-0.258819, 0.965926, 0), (-0.258819, 0.965926, 0), (-0.258819, 0.965926, 0), (-0.258819, 0.965926, 0), (-0.707107, 0.707107, 0), (-0.707107, 0.707107, 0), (-0.707107, 0.707107, 0), (-0.707107, 0.707107, 0), (-0.965926, 0.258819, 0), (-0.965926, 0.258819, 0), (-0.965926, 0.258819, 0), (-0.965926, 0.258819, 0), (-0.965926, -0.258819, 0), (-0.965926, -0.258819, 0), (-0.965926, -0.258819, 0), (-0.965926, -0.258819, 0), (-0.707107, -0.707107, 0), (-0.707107, -0.707107, 0), (-0.707107, -0.707107, 0), (-0.707107, -0.707107, 0), (-0.258819, -0.965926, 0), (-0.258819, -0.965926, 0), (-0.258819, -0.965926, 0), (-0.258819, -0.965926, 0), (0.258819, -0.965926, 0), (0.258819, -0.965926, 0), (0.258819, -0.965926, 0), (0.258819, -0.965926, 0), (0.707107, -0.707107, 0), (0.707107, -0.707107, 0), (0.707107, -0.707107, 0), (0.707107, -0.707107, 0), (0.965926, -0.258819, 0), (0.965926, -0.258819, 0), (0.965926, -0.258819, 0), (0.965926, -0.258819, 0), (2.21266e-15, 0, 1), (2.21266e-15, 0, 1), (2.21266e-15, 0, 1), (2.21266e-15, 0, 1), (2.21266e-15, 0, 1), (2.21266e-15, 0, 1), (2.21266e-15, 0, 1), (2.21266e-15, 0, 1), (2.21266e-15, 0, 1), (2.21266e-15, 0, 1), (2.21266e-15, 0, 1), (2.21266e-15, 0, 1), (0, 0, -1), (0, 0, -1), (0, 0, -1), (0, 0, -1), (0, 0, -1), (0, 0, -1), (0, 0, -1), (0, 0, -1), (0, 0, -1), (0, 0, -1), (0, 0, -1), (0, 0, -1), (0.965926, 0.258819, 0), (0.965926, 0.258819, 0), (0.965926, 0.258819, 0), (0.965926, 0.258819, 0), (0.707107, 0.707107, 0), (0.707107, 0.707107, 0), (0.707107, 0.707107, 0), (0.707107, 0.707107, 0), (0.258819, 0.965926, 0), (0.258819, 0.965926, 0), (0.258819, 0.965926, 0), (0.258819, 0.965926, 0), (-0.258819, 0.965926, 0), (-0.258819, 0.965926, 0), (-0.258819, 0.965926, 0), (-0.258819, 0.965926, 0), (-0.707107, 0.707107, 0), (-0.707107, 0.707107, 0), (-0.707107, 0.707107, 0), (-0.707107, 0.707107, 0), (-0.965926, 0.258819, 0), (-0.965926, 0.258819, 0), (-0.965926, 0.258819, 0), (-0.965926, 0.258819, 0), (-0.965926, -0.258819, 0), (-0.965926, -0.258819, 0), (-0.965926, -0.258819, 0), (-0.965926, -0.258819, 0), (-0.707107, -0.707107, 0), (-0.707107, -0.707107, 0), (-0.707107, -0.707107, 0), (-0.707107, -0.707107, 0), (-0.258819, -0.965926, 0), (-0.258819, -0.965926, 0), (-0.258819, -0.965926, 0), (-0.258819, -0.965926, 0), (0.258819, -0.965926, 0), (0.258819, -0.965926, 0), (0.258819, -0.965926, 0), (0.258819, -0.965926, 0), (0.707107, -0.707107, 0), (0.707107, -0.707107, 0), (0.707107, -0.707107, 0), (0.707107, -0.707107, 0), (0.965926, -0.258819, 0), (0.965926, -0.258819, 0), (0.965926, -0.258819, 0), (0.965926, -0.258819, 0), (-1.4751e-15, 0, 1), (-1.4751e-15, 0, 1), (-1.4751e-15, 0, 1), (-1.4751e-15, 0, 1), (-1.4751e-15, 0, 1), (-1.4751e-15, 0, 1), (-1.4751e-15, 0, 1), (-1.4751e-15, 0, 1), (-1.4751e-15, 0, 1), (-1.4751e-15, 0, 1), (-1.4751e-15, 0, 1), (-1.4751e-15, 0, 1), (0, 0, -1), (0, 0, -1), (0, 0, -1), (0, 0, -1), (0, 0, -1), (0, 0, -1), (0, 0, -1), (0, 0, -1), (0, 0, -1), (0, 0, -1), (0, 0, -1), (0, 0, -1), (0.965926, 0.258819, 0), (0.965926, 0.258819, 0), (0.965926, 0.258819, 0), (0.965926, 0.258819, 0), (0.707107, 0.707107, 0), (0.707107, 0.707107, 0), (0.707107, 0.707107, 0), (0.707107, 0.707107, 0), (0.258819, 0.965926, 0), (0.258819, 0.965926, 0), (0.258819, 0.965926, 0), (0.258819, 0.965926, 0), (-0.258819, 0.965926, 0), (-0.258819, 0.965926, 0), (-0.258819, 0.965926, 0), (-0.258819, 0.965926, 0), (-0.707107, 0.707107, 0), (-0.707107, 0.707107, 0), (-0.707107, 0.707107, 0), (-0.707107, 0.707107, 0), (-0.965926, 0.258819, 0), (-0.965926, 0.258819, 0), (-0.965926, 0.258819, 0), (-0.965926, 0.258819, 0), (-0.965926, -0.258819, 0), (-0.965926, -0.258819, 0), (-0.965926, -0.258819, 0), (-0.965926, -0.258819, 0), (-0.707107, -0.707107, 0), (-0.707107, -0.707107, 0), (-0.707107, -0.707107, 0), (-0.707107, -0.707107, 0), (-0.258819, -0.965926, 0), (-0.258819, -0.965926, 0), (-0.258819, -0.965926, 0), (-0.258819, -0.965926, 0), (0.258819, -0.965926, 0), (0.258819, -0.965926, 0), (0.258819, -0.965926, 0), (0.258819, -0.965926, 0), (0.707107, -0.707107, 0), (0.707107, -0.707107, 0), (0.707107, -0.707107, 0), (0.707107, -0.707107, 0), (0.965926, -0.258819, 0), (0.965926, -0.258819, 0), (0.965926, -0.258819, 0), (0.965926, -0.258819, 0), (0, 0, 1), (0, 0, 1), (0, 0, 1), (0, 0, 1), (0, 0, 1), (0, 0, 1), (0, 0, 1), (0, 0, 1), (0, 0, 1), (0, 0, 1), (0, 0, 1), (0, 0, 1), (0, 0, -1), (0, 0, -1), (0, 0, -1), (0, 0, -1), (0, 0, -1), (0, 0, -1), (0, 0, -1), (0, 0, -1), (0, 0, -1), (0, 0, -1), (0, 0, -1), (0, 0, -1), (0.965926, 0.258819, 0), (0.965926, 0.258819, 0), (0.965926, 0.258819, 0), (0.965926, 0.258819, 0), (0.707107, 0.707107, 0), (0.707107, 0.707107, 0), (0.707107, 0.707107, 0), (0.707107, 0.707107, 0), (0.258819, 0.965926, 0), (0.258819, 0.965926, 0), (0.258819, 0.965926, 0), (0.258819, 0.965926, 0), (-0.258819, 0.965926, 0), (-0.258819, 0.965926, 0), (-0.258819, 0.965926, 0), (-0.258819, 0.965926, 0), (-0.707107, 0.707107, 0), (-0.707107, 0.707107, 0), (-0.707107, 0.707107, 0), (-0.707107, 0.707107, 0), (-0.965926, 0.258819, 0), (-0.965926, 0.258819, 0), (-0.965926, 0.258819, 0), (-0.965926, 0.258819, 0), (-0.965926, -0.258819, 0), (-0.965926, -0.258819, 0), (-0.965926, -0.258819, 0), (-0.965926, -0.258819, 0), (-0.707107, -0.707107, 0), (-0.707107, -0.707107, 0), (-0.707107, -0.707107, 0), (-0.707107, -0.707107, 0), (-0.258819, -0.965926, 0), (-0.258819, -0.965926, 0), (-0.258819, -0.965926, 0), (-0.258819, -0.965926, 0), (0.258819, -0.965926, 0), (0.258819, -0.965926, 0), (0.258819, -0.965926, 0), (0.258819, -0.965926, 0), (0.707107, -0.707107, 0), (0.707107, -0.707107, 0), (0.707107, -0.707107, 0), (0.707107, -0.707107, 0), (0.965926, -0.258819, 0), (0.965926, -0.258819, 0), (0.965926, -0.258819, 0), (0.965926, -0.258819, 0), (0, 0, 1), (0, 0, 1), (0, 0, 1), (0, 0, 1), (0, 0, 1), (0, 0, 1), (0, 0, 1), (0, 0, 1), (0, 0, 1), (0, 0, 1), (0, 0, 1), (0, 0, 1), (0, 0, -1), (0, 0, -1), (0, 0, -1), (0, 0, -1), (0, 0, -1), (0, 0, -1), (0, 0, -1), (0, 0, -1), (0, 0, -1), (0, 0, -1), (0, 0, -1), (0, 0, -1), (0.965926, 0.258819, 0), (0.965926, 0.258819, 0), (0.965926, 0.258819, 0), (0.965926, 0.258819, 0), (0.707107, 0.707107, 0), (0.707107, 0.707107, 0), (0.707107, 0.707107, 0), (0.707107, 0.707107, 0), (0.258819, 0.965926, 0), (0.258819, 0.965926, 0), (0.258819, 0.965926, 0), (0.258819, 0.965926, 0), (-0.258819, 0.965926, 0), (-0.258819, 0.965926, 0), (-0.258819, 0.965926, 0), (-0.258819, 0.965926, 0), (-0.707107, 0.707107, 0), (-0.707107, 0.707107, 0), (-0.707107, 0.707107, 0), (-0.707107, 0.707107, 0), (-0.965926, 0.258819, 0), (-0.965926, 0.258819, 0), (-0.965926, 0.258819, 0), (-0.965926, 0.258819, 0), (-0.965926, -0.258819, 0), (-0.965926, -0.258819, 0), (-0.965926, -0.258819, 0), (-0.965926, -0.258819, 0), (-0.707107, -0.707107, 0), (-0.707107, -0.707107, 0), (-0.707107, -0.707107, 0), (-0.707107, -0.707107, 0), (-0.258819, -0.965926, 0), (-0.258819, -0.965926, 0), (-0.258819, -0.965926, 0), (-0.258819, -0.965926, 0), (0.258819, -0.965926, 0), (0.258819, -0.965926, 0), (0.258819, -0.965926, 0), (0.258819, -0.965926, 0), (0.707107, -0.707107, 0), (0.707107, -0.707107, 0), (0.707107, -0.707107, 0), (0.707107, -0.707107, 0), (0.965926, -0.258819, 0), (0.965926, -0.258819, 0), (0.965926, -0.258819, 0), (0.965926, -0.258819, 0), (-2.95021e-15, 0, 1), (-2.95021e-15, 0, 1), (-2.95021e-15, 0, 1), (-2.95021e-15, 0, 1), (-2.95021e-15, 0, 1), (-2.95021e-15, 0, 1), (-2.95021e-15, 0, 1), (-2.95021e-15, 0, 1), (-2.95021e-15, 0, 1), (-2.95021e-15, 0, 1), (-2.95021e-15, 0, 1), (-2.95021e-15, 0, 1), (0, 0, -1), (0, 0, -1), (0, 0, -1), (0, 0, -1), (0, 0, -1), (0, 0, -1), (0, 0, -1), (0, 0, -1), (0, 0, -1), (0, 0, -1), (0, 0, -1), (0, 0, -1), (0.965926, 0.258819, 0), (0.965926, 0.258819, 0), (0.965926, 0.258819, 0), (0.965926, 0.258819, 0), (0.707107, 0.707107, 0), (0.707107, 0.707107, 0), (0.707107, 0.707107, 0), (0.707107, 0.707107, 0), (0.258819, 0.965926, 0), (0.258819, 0.965926, 0), (0.258819, 0.965926, 0), (0.258819, 0.965926, 0), (-0.258819, 0.965926, 0), (-0.258819, 0.965926, 0), (-0.258819, 0.965926, 0), (-0.258819, 0.965926, 0), (-0.707107, 0.707107, 0), (-0.707107, 0.707107, 0), (-0.707107, 0.707107, 0), (-0.707107, 0.707107, 0), (-0.965926, 0.258819, 0), (-0.965926, 0.258819, 0), (-0.965926, 0.258819, 0), (-0.965926, 0.258819, 0), (-0.965926, -0.258819, 0), (-0.965926, -0.258819, 0), (-0.965926, -0.258819, 0), (-0.965926, -0.258819, 0), (-0.707107, -0.707107, 0), (-0.707107, -0.707107, 0), (-0.707107, -0.707107, 0), (-0.707107, -0.707107, 0), (-0.258819, -0.965926, 0), (-0.258819, -0.965926, 0), (-0.258819, -0.965926, 0), (-0.258819, -0.965926, 0), (0.258819, -0.965926, 0), (0.258819, -0.965926, 0), (0.258819, -0.965926, 0), (0.258819, -0.965926, 0), (0.707107, -0.707107, 0), (0.707107, -0.707107, 0), (0.707107, -0.707107, 0), (0.707107, -0.707107, 0), (0.965926, -0.258819, 0), (0.965926, -0.258819, 0), (0.965926, -0.258819, 0), (0.965926, -0.258819, 0), (2.95021e-15, 0, 1), (2.95021e-15, 0, 1), (2.95021e-15, 0, 1), (2.95021e-15, 0, 1), (2.95021e-15, 0, 1), (2.95021e-15, 0, 1), (2.95021e-15, 0, 1), (2.95021e-15, 0, 1), (2.95021e-15, 0, 1), (2.95021e-15, 0, 1), (2.95021e-15, 0, 1), (2.95021e-15, 0, 1), (0, 0, -1), (0, 0, -1), (0, 0, -1), (0, 0, -1), (0, 0, -1), (0, 0, -1), (0, 0, -1), (0, 0, -1), (0, 0, -1), (0, 0, -1), (0, 0, -1), (0, 0, -1), (0.965926, 0.258819, 0), (0.965926, 0.258819, 0), (0.965926, 0.258819, 0), (0.965926, 0.258819, 0), (0.707107, 0.707107, 0), (0.707107, 0.707107, 0), (0.707107, 0.707107, 0), (0.707107, 0.707107, 0), (0.258819, 0.965926, 0), (0.258819, 0.965926, 0), (0.258819, 0.965926, 0), (0.258819, 0.965926, 0), (-0.258819, 0.965926, 0), (-0.258819, 0.965926, 0), (-0.258819, 0.965926, 0), (-0.258819, 0.965926, 0), (-0.707107, 0.707107, 0), (-0.707107, 0.707107, 0), (-0.707107, 0.707107, 0), (-0.707107, 0.707107, 0), (-0.965926, 0.258819, 0), (-0.965926, 0.258819, 0), (-0.965926, 0.258819, 0), (-0.965926, 0.258819, 0), (-0.965926, -0.258819, 0), (-0.965926, -0.258819, 0), (-0.965926, -0.258819, 0), (-0.965926, -0.258819, 0), (-0.707107, -0.707107, 0), (-0.707107, -0.707107, 0), (-0.707107, -0.707107, 0), (-0.707107, -0.707107, 0), (-0.258819, -0.965926, 0), (-0.258819, -0.965926, 0), (-0.258819, -0.965926, 0), (-0.258819, -0.965926, 0), (0.258819, -0.965926, 0), (0.258819, -0.965926, 0), (0.258819, -0.965926, 0), (0.258819, -0.965926, 0), (0.707107, -0.707107, 0), (0.707107, -0.707107, 0), (0.707107, -0.707107, 0), (0.707107, -0.707107, 0), (0.965926, -0.258819, 0), (0.965926, -0.258819, 0), (0.965926, -0.258819, 0), (0.965926, -0.258819, 0), (0, 0, 1), (0, 0, 1), (0, 0, 1), (0, 0, 1), (0, 0, 1), (0, 0, 1), (0, 0, 1), (0, 0, 1), (0, 0, 1), (0, 0, 1), (0, 0, 1), (0, 0, 1), (0, 0, -1), (0, 0, -1), (0, 0, -1), (0, 0, -1), (0, 0, -1), (0, 0, -1), (0, 0, -1), (0, 0, -1), (0, 0, -1), (0, 0, -1), (0, 0, -1), (0, 0, -1)] (interpolation = "faceVarying")
        float3[] extent = [(-0.028, -0.788, 0), (5.148, -0.732, 3)]
        uniform token subdivisionScheme = "none"
        bool doubleSided = false
        color3f[] primvars:displayColor = [(0.4, 0.42, 0.46)] (interpolation = "constant")
        float[] primvars:displayRoughness = [0.5] (interpolation = "constant")
    }
    def Mesh "RailR"
    {
        point3f[] points = [(0, -0.79, 0.87), (0, -0.79, 0.93), (0, -0.73, 0.93), (0, -0.73, 0.87), (4.27, -0.79, 2.97), (4.27, -0.79, 3.03), (4.27, -0.73, 3.03), (4.27, -0.73, 2.97), (4.27, -0.79, 2.97), (4.27, -0.79, 3.03), (4.27, -0.73, 3.03), (4.27, -0.73, 2.97), (5.27, -0.79, 2.97), (5.27, -0.79, 3.03), (5.27, -0.73, 3.03), (5.27, -0.73, 2.97)]
        int[] faceVertexCounts = [4, 4, 4, 4, 4, 4, 4, 4, 4, 4, 4, 4]
        int[] faceVertexIndices = [0, 1, 5, 4, 1, 2, 6, 5, 2, 3, 7, 6, 3, 0, 4, 7, 3, 2, 1, 0, 4, 5, 6, 7, 8, 9, 13, 12, 9, 10, 14, 13, 10, 11, 15, 14, 11, 8, 12, 15, 11, 10, 9, 8, 12, 13, 14, 15]
        normal3f[] normals = [(0, 1, 0), (0, 1, 0), (0, 1, 0), (0, 1, 0), (0.44132, 0, -0.89735), (0.44132, 0, -0.89735), (0.44132, 0, -0.89735), (0.44132, 0, -0.89735), (0, -1, 0), (0, -1, 0), (0, -1, 0), (0, -1, 0), (-0.44132, 0, 0.89735), (-0.44132, 0, 0.89735), (-0.44132, 0, 0.89735), (-0.44132, 0, 0.89735), (1, 0, 0), (1, 0, 0), (1, 0, 0), (1, 0, 0), (-1, 0, 0), (-1, 0, 0), (-1, 0, 0), (-1, 0, 0), (0, 1, 0), (0, 1, 0), (0, 1, 0), (0, 1, 0), (0, 0, -1), (0, 0, -1), (0, 0, -1), (0, 0, -1), (0, -1, 0), (0, -1, 0), (0, -1, 0), (0, -1, 0), (0, 0, 1), (0, 0, 1), (0, 0, 1), (0, 0, 1), (1, 0, 0), (1, 0, 0), (1, 0, 0), (1, 0, 0), (-1, 0, 0), (-1, 0, 0), (-1, 0, 0), (-1, 0, 0)] (interpolation = "faceVarying")
        float3[] extent = [(0, -0.79, 0.87), (5.27, -0.73, 3.03)]
        uniform token subdivisionScheme = "none"
        bool doubleSided = true
        color3f[] primvars:displayColor = [(0.62, 0.64, 0.68)] (interpolation = "constant")
        float[] primvars:displayMetallic = [0.6] (interpolation = "constant")
        float[] primvars:displayRoughness = [0.3] (interpolation = "constant")
    }
}

