#usda 1.0
(
    defaultPrim = "Concentrator"
    metersPerUnit = 1
    upAxis = "Z"
    doc = "Mock-up Rhythm Healthcare P2-E6 portable oxygen concentrator (231x89x183 mm). Origin at tank centre."
)

def Xform "Concentrator"
{
    def Mesh "BaseTrim"
    {
        point3f[] points = [(0.11557, 0.03048, -0.09144), (0.11522, 0.0335886, -0.09144), (0.114187, 0.0365414, -0.09144), (0.112522, 0.0391902, -0.09144), (0.11031, 0.0414022, -0.09144), (0.107661, 0.0430665, -0.09144), (0.104709, 0.0440997, -0.09144), (0.1016, 0.04445, -0.09144), (-0.1016, 0.04445, -0.09144), (-0.104709, 0.0440997, -0.09144), (-0.107661, 0.0430665, -0.09144), (-0.11031, 0.0414022, -0.09144), (-0.112522, 0.0391902, -0.09144), (-0.114187, 0.0365414, -0.09144), (-0.11522, 0.0335886, -0.09144), (-0.11557, 0.03048, -0.09144), (-0.11557, -0.03048, -0.09144), (-0.11522, -0.0335886, -0.09144), (-0.114187, -0.0365414, -0.09144), (-0.112522, -0.0391902, -0.09144), (-0.11031, -0.0414022, -0.09144), (-0.107661, -0.0430665, -0.09144), (-0.104709, -0.0440997, -0.09144), (-0.1016, -0.04445, -0.09144), (0.1016, -0.04445, -0.09144), (0.104709, -0.0440997, -0.09144), (0.107661, -0.0430665, -0.09144), (0.11031, -0.0414022, -0.09144), (0.112522, -0.0391902, -0.09144), (0.114187, -0.0365414, -0.09144), (0.11522, -0.0335886, -0.09144), (0.11557, -0.03048, -0.09144), (0.11557, 0.03048, -0.07344), (0.11522, 0.0335886, -0.07344), (0.114187, 0.0365414, -0.07344), (0.112522, 0.0391902, -0.07344), (0.11031, 0.0414022, -0.07344), (0.107661, 0.0430665, -0.07344), (0.104709, 0.0440997, -0.07344), (0.1016, 0.04445, -0.07344), (-0.1016, 0.04445, -0.07344), (-0.104709, 0.0440997, -0.07344), (-0.107661, 0.0430665, -0.07344), (-0.11031, 0.0414022, -0.07344), (-0.112522, 0.0391902, -0.07344), (-0.114187, 0.0365414, -0.07344), (-0.11522, 0.0335886, -0.07344), (-0.11557, 0.03048, -0.07344), (-0.11557, -0.03048, -0.07344), (-0.11522, -0.0335886, -0.07344), (-0.114187, -0.0365414, -0.07344), (-0.112522, -0.0391902, -0.07344), (-0.11031, -0.0414022, -0.07344), (-0.107661, -0.0430665, -0.07344), (-0.104709, -0.0440997, -0.07344), (-0.1016, -0.04445, -0.07344), (0.1016, -0.04445, -0.07344), (0.104709, -0.0440997, -0.07344), (0.107661, -0.0430665, -0.07344), (0.11031, -0.0414022, -0.07344), (0.112522, -0.0391902, -0.07344), (0.114187, -0.0365414, -0.07344), (0.11522, -0.0335886, -0.07344), (0.11557, -0.03048, -0.07344)]
        int[] faceVertexCounts = [4, 4, 4, 4, 4, 4, 4, 4, 4, 4, 4, 4, 4, 4, 4, 4, 4, 4, 4, 4, 4, 4, 4, 4, 4, 4, 4, 4, 4, 4, 4, 4, 32, 32]
        int[] faceVertexIndices = [0, 1, 33, 32, 1, 2, 34, 33, 2, 3, 35, 34, 3, 4, 36, 35, 4, 5, 37, 36, 5, 6, 38, 37, 6, 7, 39, 38, 7, 8, 40, 39, 8, 9, 41, 40, 9, 10, 42, 41, 10, 11, 43, 42, 11, 12, 44, 43, 12, 13, 45, 44, 13, 14, 46, 45, 14, 15, 47, 46, 15, 16, 48, 47, 16, 17, 49, 48, 17, 18, 50, 49, 18, 19, 51, 50, 19, 20, 52, 51, 20, 21, 53, 52, 21, 22, 54, 53, 22, 23, 55, 54, 23, 24, 56, 55, 24, 25, 57, 56, 25, 26, 58, 57, 26, 27, 59, 58, 27, 28, 60, 59, 28, 29, 61, 60, 29, 30, 62, 61, 30, 31, 63, 62, 31, 0, 32, 63, 32, 33, 34, 35, 36, 37, 38, 39, 40, 41, 42, 43, 44, 45, 46, 47, 48, 49, 50, 51, 52, 53, 54, 55, 56, 57, 58, 59, 60, 61, 62, 63, 31, 30, 29, 28, 27, 26, 25, 24, 23, 22, 21, 20, 19, 18, 17, 16, 15, 14, 13, 12, 11, 10, 9, 8, 7, 6, 5, 4, 3, 2, 1, 0]
        normal3f[] normals = [(0.993712, 0.111964, 0), (0.993712, 0.111964, 0), (0.993712, 0.111964, 0), (0.993712, 0.111964, 0), (0.943883, 0.330279, 0), (0.943883, 0.330279, 0), (0.943883, 0.330279, 0), (0.943883, 0.330279, 0), (0.846724, 0.532032, 0), (0.846724, 0.532032, 0), (0.846724, 0.532032, 0), (0.846724, 0.532032, 0), (0.707107, 0.707107, 0), (0.707107, 0.707107, 0), (0.707107, 0.707107, 0), (0.707107, 0.707107, 0), (0.532032, 0.846724, 0), (0.532032, 0.846724, 0), (0.532032, 0.846724, 0), (0.532032, 0.846724, 0), (0.330279, 0.943883, 0), (0.330279, 0.943883, 0), (0.330279, 0.943883, 0), (0.330279, 0.943883, 0), (0.111964, 0.993712, 0), (0.111964, 0.993712, 0), (0.111964, 0.993712, 0), (0.111964, 0.993712, 0), (0, 1, 0), (0, 1, 0), (0, 1, 0), (0, 1, 0), (-0.111964, 0.993712, 0), (-0.111964, 0.993712, 0), (-0.111964, 0.993712, 0), (-0.111964, 0.993712, 0), (-0.330279, 0.943883, 0), (-0.330279, 0.943883, 0), (-0.330279, 0.943883, 0), (-0.330279, 0.943883, 0), (-0.532032, 0.846724, 0), (-0.532032, 0.846724, 0), (-0.532032, 0.846724, 0), (-0.532032, 0.846724, 0), (-0.707107, 0.707107, 0), (-0.707107, 0.707107, 0), (-0.707107, 0.707107, 0), (-0.707107, 0.707107, 0), (-0.846724, 0.532032, 0), (-0.846724, 0.532032, 0), (-0.846724, 0.532032, 0), (-0.846724, 0.532032, 0), (-0.943883, 0.330279, 0), (-0.943883, 0.330279, 0), (-0.943883, 0.330279, 0), (-0.943883, 0.330279, 0), (-0.993712, 0.111964, 0), (-0.993712, 0.111964, 0), (-0.993712, 0.111964, 0), (-0.993712, 0.111964, 0), (-1, 0, 0), (-1, 0, 0), (-1, 0, 0), (-1, 0, 0), (-0.993712, -0.111964, 0), (-0.993712, -0.111964, 0), (-0.993712, -0.111964, 0), (-0.993712, -0.111964, 0), (-0.943883, -0.330279, 0), (-0.943883, -0.330279, 0), (-0.943883, -0.330279, 0), (-0.943883, -0.330279, 0), (-0.846724, -0.532032, 0), (-0.846724, -0.532032, 0), (-0.846724, -0.532032, 0), (-0.846724, -0.532032, 0), (-0.707107, -0.707107, 0), (-0.707107, -0.707107, 0), (-0.707107, -0.707107, 0), (-0.707107, -0.707107, 0), (-0.532032, -0.846724, 0), (-0.532032, -0.846724, 0), (-0.532032, -0.846724, 0), (-0.532032, -0.846724, 0), (-0.330279, -0.943883, 0), (-0.330279, -0.943883, 0), (-0.330279, -0.943883, 0), (-0.330279, -0.943883, 0), (-0.111964, -0.993712, 0), (-0.111964, -0.993712, 0), (-0.111964, -0.993712, 0), (-0.111964, -0.993712, 0), (0, -1, 0), (0, -1, 0), (0, -1, 0), (0, -1, 0), (0.111964, -0.993712, 0), (0.111964, -0.993712, 0), (0.111964, -0.993712, 0), (0.111964, -0.993712, 0), (0.330279, -0.943883, 0), (0.330279, -0.943883, 0), (0.330279, -0.943883, 0), (0.330279, -0.943883, 0), (0.532032, -0.846724, 0), (0.532032, -0.846724, 0), (0.532032, -0.846724, 0), (0.532032, -0.846724, 0), (0.707107, -0.707107, 0), (0.707107, -0.707107, 0), (0.707107, -0.707107, 0), (0.707107, -0.707107, 0), (0.846724, -0.532032, 0), (0.846724, -0.532032, 0), (0.846724, -0.532032, 0), (0.846724, -0.532032, 0), (0.943883, -0.330279, 0), (0.943883, -0.330279, 0), (0.943883, -0.330279, 0), (0.943883, -0.330279, 0), (0.993712, -0.111964, 0), (0.993712, -0.111964, 0), (0.993712, -0.111964, 0), (0.993712, -0.111964, 0), (1, 0, 0), (1, 0, 0), (1, 0, 0), (1, 0, 0), (0, 0, 1), (0, 0, 1), (0, 0, 1), (0, 0, 1), (0, 0, 1), (0, 0, 1), (0, 0, 1), (0, 0, 1), (0, 0, 1), (0, 0, 1), (0, 0, 1), (0, 0, 1), (0, 0, 1), (0, 0, 1), (0, 0, 1), (0, 0, 1), (0, 0, 1), (0, 0, 1), (0, 0, 1), (0, 0, 1), (0, 0, 1), (0, 0, 1), (0, 0, 1), (0, 0, 1), (0, 0, 1), (0, 0, 1), (0, 0, 1), (0, 0, 1), (0, 0, 1), (0, 0, 1), (0, 0, 1), (0, 0, 1), (-4.25685e-17, 0, -1), (-4.25685e-17, 0, -1), (-4.25685e-17, 0, -1), (-4.25685e-17, 0, -1), (-4.25685e-17, 0, -1), (-4.25685e-17, 0, -1), (-4.25685e-17, 0, -1), (-4.25685e-17, 0, -1), (-4.25685e-17, 0, -1), (-4.25685e-17, 0, -1), (-4.25685e-17, 0, -1), (-4.25685e-17, 0, -1), (-4.25685e-17, 0, -1), (-4.25685e-17, 0, -1), (-4.25685e-17, 0, -1), (-4.25685e-17, 0, -1), (-4.25685e-17, 0, -1), (-4.25685e-17, 0, -1), (-4.25685e-17, 0, -1), (-4.25685e-17, 0, -1), (-4.25685e-17, 0, -1), (-4.25685e-17, 0, -1), (-4.25685e-17, 0, -1), (-4.25685e-17, 0, -1), (-4.25685e-17, 0, -1), (-4.25685e-17, 0, -1), (-4.25685e-17, 0, -1), (-4.25685e-17, 0, -1), (-4.25685e-17, 0, -1), (-4.25685e-17, 0, -1), (-4.25685e-17, 0, -1), (-4.25685e-17, 0, -1)] (interpolation = "faceVarying")
        float3[] extent = [(-0.11557, -0.04445, -0.09144), (0.11557, 0.04445, -0.07344)]
        uniform token subdivisionScheme = "none"
        bool doubleSided = false
        color3f[] primvars:displayColor = [(0.62, 0.65, 0.68)] (interpolation = "constant")
        float[] primvars:displayRoughness = [0.7] (interpolation = "constant")
    }
    def Mesh "Shell"
    {
        point3f[] points = [(0.11557, 0.03048, -0.07344), (0.11522, 0.0335886, -0.07344), (0.114187, 0.0365414, -0.07344), (0.112522, 0.0391902, -0.07344), (0.11031, 0.0414022, -0.07344), (0.107661, 0.0430665, -0.07344), (0.104709, 0.0440997, -0.07344), (0.1016, 0.04445, -0.07344), (-0.1016, 0.04445, -0.07344), (-0.104709, 0.0440997, -0.07344), (-0.107661, 0.0430665, -0.07344), (-0.11031, 0.0414022, -0.07344), (-0.112522, 0.0391902, -0.07344), (-0.114187, 0.0365414, -0.07344), (-0.11522, 0.0335886, -0.07344), (-0.11557, 0.03048, -0.07344), (-0.11557, -0.03048, -0.07344), (-0.11522, -0.0335886, -0.07344), (-0.114187, -0.0365414, -0.07344), (-0.112522, -0.0391902, -0.07344), (-0.11031, -0.0414022, -0.07344), (-0.107661, -0.0430665, -0.07344), (-0.104709, -0.0440997, -0.07344), (-0.1016, -0.04445, -0.07344), (0.1016, -0.04445, -0.07344), (0.104709, -0.0440997, -0.07344), (0.107661, -0.0430665, -0.07344), (0.11031, -0.0414022, -0.07344), (0.112522, -0.0391902, -0.07344), (0.114187, -0.0365414, -0.07344), (0.11522, -0.0335886, -0.07344), (0.11557, -0.03048, -0.07344), (0.11557, 0.03048, 0.09144), (0.11522, 0.0335886, 0.09144), (0.114187, 0.0365414, 0.09144), (0.112522, 0.0391902, 0.09144), (0.11031, 0.0414022, 0.09144), (0.107661, 0.0430665, 0.09144), (0.104709, 0.0440997, 0.09144), (0.1016, 0.04445, 0.09144), (-0.1016, 0.04445, 0.09144), (-0.104709, 0.0440997, 0.09144), (-0.107661, 0.0430665, 0.09144), (-0.11031, 0.0414022, 0.09144), (-0.112522, 0.0391902, 0.09144), (-0.114187, 0.0365414, 0.09144), (-0.11522, 0.0335886, 0.09144), (-0.11557, 0.03048, 0.09144), (-0.11557, -0.03048, 0.09144), (-0.11522, -0.0335886, 0.09144), (-0.114187, -0.0365414, 0.09144), (-0.112522, -0.0391902, 0.09144), (-0.11031, -0.0414022, 0.09144), (-0.107661, -0.0430665, 0.09144), (-0.104709, -0.0440997, 0.09144), (-0.1016, -0.04445, 0.09144), (0.1016, -0.04445, 0.09144), (0.104709, -0.0440997, 0.09144), (0.107661, -0.0430665, 0.09144), (0.11031, -0.0414022, 0.09144), (0.112522, -0.0391902, 0.09144), (0.114187, -0.0365414, 0.09144), (0.11522, -0.0335886, 0.09144), (0.11557, -0.03048, 0.09144)]
        int[] faceVertexCounts = [4, 4, 4, 4, 4, 4, 4, 4, 4, 4, 4, 4, 4, 4, 4, 4, 4, 4, 4, 4, 4, 4, 4, 4, 4, 4, 4, 4, 4, 4, 4, 4, 32, 32]
        int[] faceVertexIndices = [0, 1, 33, 32, 1, 2, 34, 33, 2, 3, 35, 34, 3, 4, 36, 35, 4, 5, 37, 36, 5, 6, 38, 37, 6, 7, 39, 38, 7, 8, 40, 39, 8, 9, 41, 40, 9, 10, 42, 41, 10, 11, 43, 42, 11, 12, 44, 43, 12, 13, 45, 44, 13, 14, 46, 45, 14, 15, 47, 46, 15, 16, 48, 47, 16, 17, 49, 48, 17, 18, 50, 49, 18, 19, 51, 50, 19, 20, 52, 51, 20, 21, 53, 52, 21, 22, 54, 53, 22, 23, 55, 54, 23, 24, 56, 55, 24, 25, 57, 56, 25, 26, 58, 57, 26, 27, 59, 58, 27, 28, 60, 59, 28, 29, 61, 60, 29, 30, 62, 61, 30, 31, 63, 62, 31, 0, 32, 63, 32, 33, 34, 35, 36, 37, 38, 39, 40, 41, 42, 43, 44, 45, 46, 47, 48, 49, 50, 51, 52, 53, 54, 55, 56, 57, 58, 59, 60, 61, 62, 63, 31, 30, 29, 28, 27, 26, 25, 24, 23, 22, 21, 20, 19, 18, 17, 16, 15, 14, 13, 12, 11, 10, 9, 8, 7, 6, 5, 4, 3, 2, 1, 0]
        normal3f[] normals = [(0.993712, 0.111964, 0), (0.993712, 0.111964, 0), (0.993712, 0.111964, 0), (0.993712, 0.111964, 0), (0.943883, 0.330279, 0), (0.943883, 0.330279, 0), (0.943883, 0.330279, 0), (0.943883, 0.330279, 0), (0.846724, 0.532032, 0), (0.846724, 0.532032, 0), (0.846724, 0.532032, 0), (0.846724, 0.532032, 0), (0.707107, 0.707107, 0), (0.707107, 0.707107, 0), (0.707107, 0.707107, 0), (0.707107, 0.707107, 0), (0.532032, 0.846724, 0), (0.532032, 0.846724, 0), (0.532032, 0.846724, 0), (0.532032, 0.846724, 0), (0.330279, 0.943883, 0), (0.330279, 0.943883, 0), (0.330279, 0.943883, 0), (0.330279, 0.943883, 0), (0.111964, 0.993712, 0), (0.111964, 0.993712, 0), (0.111964, 0.993712, 0), (0.111964, 0.993712, 0), (0, 1, 0), (0, 1, 0), (0, 1, 0), (0, 1, 0), (-0.111964, 0.993712, 0), (-0.111964, 0.993712, 0), (-0.111964, 0.993712, 0), (-0.111964, 0.993712, 0), (-0.330279, 0.943883, 0), (-0.330279, 0.943883, 0), (-0.330279, 0.943883, 0), (-0.330279, 0.943883, 0), (-0.532032, 0.846724, 0), (-0.532032, 0.846724, 0), (-0.532032, 0.846724, 0), (-0.532032, 0.846724, 0), (-0.707107, 0.707107, 0), (-0.707107, 0.707107, 0), (-0.707107, 0.707107, 0), (-0.707107, 0.707107, 0), (-0.846724, 0.532032, 0), (-0.846724, 0.532032, 0), (-0.846724, 0.532032, 0), (-0.846724, 0.532032, 0), (-0.943883, 0.330279, 0), (-0.943883, 0.330279, 0), (-0.943883, 0.330279, 0), (-0.943883, 0.330279, 0), (-0.993712, 0.111964, 0), (-0.993712, 0.111964, 0), (-0.993712, 0.111964, 0), (-0.993712, 0.111964, 0), (-1, 0, 0), (-1, 0, 0), (-1, 0, 0), (-1, 0, 0), (-0.993712, -0.111964, 0), (-0.993712, -0.111964, 0), (-0.993712, -0.111964, 0), (-0.993712, -0.111964, 0), (-0.943883, -0.330279, 0), (-0.943883, -0.330279, 0), (-0.943883, -0.330279, 0), (-0.943883, -0.330279, 0), (-0.846724, -0.532032, 0), (-0.846724, -0.532032, 0), (-0.846724, -0.532032, 0), (-0.846724, -0.532032, 0), (-0.707107, -0.707107, 0), (-0.707107, -0.707107, 0), (-0.707107, -0.707107, 0), (-0.707107, -0.707107, 0), (-0.532032, -0.846724, 0), (-0.532032, -0.846724, 0), (-0.532032, -0.846724, 0), (-0.532032, -0.846724, 0), (-0.330279, -0.943883, 0), (-0.330279, -0.943883, 0), (-0.330279, -0.943883, 0), (-0.330279, -0.943883, 0), (-0.111964, -0.993712, 0), (-0.111964, -0.993712, 0), (-0.111964, -0.993712, 0), (-0.111964, -0.993712, 0), (0, -1, 0), (0, -1, 0), (0, -1, 0), (0, -1, 0), (0.111964, -0.993712, 0), (0.111964, -0.993712, 0), (0.111964, -0.993712, 0), (0.111964, -0.993712, 0), (0.330279, -0.943883, 0), (0.330279, -0.943883, 0), (0.330279, -0.943883, 0), (0.330279, -0.943883, 0), (0.532032, -0.846724, 0), (0.532032, -0.846724, 0), (0.532032, -0.846724, 0), (0.532032, -0.846724, 0), (0.707107, -0.707107, 0), (0.707107, -0.707107, 0), (0.707107, -0.707107, 0), (0.707107, -0.707107, 0), (0.846724, -0.532032, 0), (0.846724, -0.532032, 0), (0.846724, -0.532032, 0), (0.846724, -0.532032, 0), (0.943883, -0.330279, 0), (0.943883, -0.330279, 0), (0.943883, -0.330279, 0), (0.943883, -0.330279, 0), (0.993712, -0.111964, 0), (0.993712, -0.111964, 0), (0.993712, -0.111964, 0), (0.993712, -0.111964, 0), (1, 0, 0), (1, 0, 0), (1, 0, 0), (1, 0, 0), (0, 0, 1), (0, 0, 1), (0, 0, 1), (0, 0, 1), (0, 0, 1), (0, 0, 1), (0, 0, 1), (0, 0, 1), (0, 0, 1), (0, 0, 1), (0, 0, 1), (0, 0, 1), (0, 0, 1), (0, 0, 1), (0, 0, 1), (0, 0, 1), (0, 0, 1), (0, 0, 1), (0, 0, 1), (0, 0, 1), (0, 0, 1), (0, 0, 1), (0, 0, 1), (0, 0, 1), (0, 0, 1), (0, 0, 1), (0, 0, 1), (0, 0, 1), (0, 0, 1), (0, 0, 1), (0, 0, 1), (0, 0, 1), (-4.25685e-17, 0, -1), (-4.25685e-17, 0, -1), (-4.25685e-17, 0, -1), (-4.25685e-17, 0, -1), (-4.25685e-17, 0, -1), (-4.25685e-17, 0, -1), (-4.25685e-17, 0, -1), (-4.25685e-17, 0, -1), (-4.25685e-17, 0, -1), (-4.25685e-17, 0, -1), (-4.25685e-17, 0, -1), (-4.25685e-17, 0, -1), (-4.25685e-17, 0, -1), (-4.25685e-17, 0, -1), (-4.25685e-17, 0, -1), (-4.25685e-17, 0, -1), (-4.25685e-17, 0, -1), (-4.25685e-17, 0, -1), (-4.25685e-17, 0, -1), (-4.25685e-17, 0, -1), (-4.25685e-17, 0, -1), (-4.25685e-17, 0, -1), (-4.25685e-17, 0, -1), (-4.25685e-17, 0, -1), (-4.25685e-17, 0, -1), (-4.25685e-17, 0, -1), (-4.25685e-17, 0, -1), (-4.25685e-17, 0, -1), (-4.25685e-17, 0, -1), (-4.25685e-17, 0, -1), (-4.25685e-17, 0, -1), (-4.25685e-17, 0, -1)] (interpolation = "faceVarying")
        float3[] extent = [(-0.11557, -0.04445, -0.07344), (0.11557, 0.04445, 0.09144)]
        uniform token subdivisionScheme = "none"
        bool doubleSided = false
        color3f[] primvars:displayColor = [(0.94, 0.95, 0.96)] (interpolation = "constant")
        float[] primvars:displayRoughness = [0.35] (interpolation = "constant")
    }
    def Mesh "OutletBezel"
    {
        point3f[] points = [(0.044, 0.04145, -0.0420624), (0.044, 0.05545, -0.0420624), (0.0433481, 0.04145, -0.0362769), (0.0433481, 0.05545, -0.0362769), (0.0414252, 0.04145, -0.0307814), (0.0414252, 0.05545, -0.0307814), (0.0383276, 0.04145, -0.0258517), (0.0383276, 0.05545, -0.0258517), (0.0342107, 0.04145, -0.0217348), (0.0342107, 0.05545, -0.0217348), (0.029281, 0.04145, -0.0186372), (0.029281, 0.05545, -0.0186372), (0.0237855, 0.04145, -0.0167143), (0.0237855, 0.05545, -0.0167143), (0.018, 0.04145, -0.0160624), (0.018, 0.05545, -0.0160624), (0.0122145, 0.04145, -0.0167143), (0.0122145, 0.05545, -0.0167143), (0.00671902, 0.04145, -0.0186372), (0.00671902, 0.05545, -0.0186372), (0.00178927, 0.04145, -0.0217348), (0.00178927, 0.05545, -0.0217348), (-0.00232762, 0.04145, -0.0258517), (-0.00232762, 0.05545, -0.0258517), (-0.00542519, 0.04145, -0.0307814), (-0.00542519, 0.05545, -0.0307814), (-0.00734813, 0.04145, -0.0362769), (-0.00734813, 0.05545, -0.0362769), (-0.008, 0.04145, -0.0420624), (-0.008, 0.05545, -0.0420624), (-0.00734813, 0.04145, -0.0478479), (-0.00734813, 0.05545, -0.0478479), (-0.00542519, 0.04145, -0.0533434), (-0.00542519, 0.05545, -0.0533434), (-0.00232762, 0.04145, -0.0582731), (-0.00232762, 0.05545, -0.0582731), (0.00178927, 0.04145, -0.06239), (0.00178927, 0.05545, -0.06239), (0.00671902, 0.04145, -0.0654876), (0.00671902, 0.05545, -0.0654876), (0.0122145, 0.04145, -0.0674105), (0.0122145, 0.05545, -0.0674105), (0.018, 0.04145, -0.0680624), (0.018, 0.05545, -0.0680624), (0.0237855, 0.04145, -0.0674105), (0.0237855, 0.05545, -0.0674105), (0.029281, 0.04145, -0.0654876), (0.029281, 0.05545, -0.0654876), (0.0342107, 0.04145, -0.06239), (0.0342107, 0.05545, -0.06239), (0.0383276, 0.04145, -0.0582731), (0.0383276, 0.05545, -0.0582731), (0.0414252, 0.04145, -0.0533434), (0.0414252, 0.05545, -0.0533434), (0.0433481, 0.04145, -0.0478479), (0.0433481, 0.05545, -0.0478479)]
        int[] faceVertexCounts = [4, 4, 4, 4, 4, 4, 4, 4, 4, 4, 4, 4, 4, 4, 4, 4, 4, 4, 4, 4, 4, 4, 4, 4, 4, 4, 4, 4, 28, 28]
        int[] faceVertexIndices = [0, 2, 3, 1, 2, 4, 5, 3, 4, 6, 7, 5, 6, 8, 9, 7, 8, 10, 11, 9, 10, 12, 13, 11, 12, 14, 15, 13, 14, 16, 17, 15, 16, 18, 19, 17, 18, 20, 21, 19, 20, 22, 23, 21, 22, 24, 25, 23, 24, 26, 27, 25, 26, 28, 29, 27, 28, 30, 31, 29, 30, 32, 33, 31, 32, 34, 35, 33, 34, 36, 37, 35, 36, 38, 39, 37, 38, 40, 41, 39, 40, 42, 43, 41, 42, 44, 45, 43, 44, 46, 47, 45, 46, 48, 49, 47, 48, 50, 51, 49, 50, 52, 53, 51, 52, 54, 55, 53, 54, 0, 1, 55, 1, 3, 5, 7, 9, 11, 13, 15, 17, 19, 21, 23, 25, 27, 29, 31, 33, 35, 37, 39, 41, 43, 45, 47, 49, 51, 53, 55, 54, 52, 50, 48, 46, 44, 42, 40, 38, 36, 34, 32, 30, 28, 26, 24, 22, 20, 18, 16, 14, 12, 10, 8, 6, 4, 2, 0]
        normal3f[] normals = [(-0.993712, 0, -0.111964), (-0.993712, 0, -0.111964), (-0.993712, 0, -0.111964), (-0.993712, 0, -0.111964), (-0.943883, 0, -0.330279), (-0.943883, 0, -0.330279), (-0.943883, 0, -0.330279), (-0.943883, 0, -0.330279), (-0.846724, 0, -0.532032), (-0.846724, 0, -0.532032), (-0.846724, 0, -0.532032), (-0.846724, 0, -0.532032), (-0.707107, 0, -0.707107), (-0.707107, 0, -0.707107), (-0.707107, 0, -0.707107), (-0.707107, 0, -0.707107), (-0.532032, 0, -0.846724), (-0.532032, 0, -0.846724), (-0.532032, 0, -0.846724), (-0.532032, 0, -0.846724), (-0.330279, 0, -0.943883), (-0.330279, 0, -0.943883), (-0.330279, 0, -0.943883), (-0.330279, 0, -0.943883), (-0.111964, 0, -0.993712), (-0.111964, 0, -0.993712), (-0.111964, 0, -0.993712), (-0.111964, 0, -0.993712), (0.111964, 0, -0.993712), (0.111964, 0, -0.993712), (0.111964, 0, -0.993712), (0.111964, 0, -0.993712), (0.330279, 0, -0.943883), (0.330279, 0, -0.943883), (0.330279, 0, -0.943883), (0.330279, 0, -0.943883), (0.532032, 0, -0.846724), (0.532032, 0, -0.846724), (0.532032, 0, -0.846724), (0.532032, 0, -0.846724), (0.707107, 0, -0.707107), (0.707107, 0, -0.707107), (0.707107, 0, -0.707107), (0.707107, 0, -0.707107), (0.846724, 0, -0.532032), (0.846724, 0, -0.532032), (0.846724, 0, -0.532032), (0.846724, 0, -0.532032), (0.943883, 0, -0.330279), (0.943883, 0, -0.330279), (0.943883, 0, -0.330279), (0.943883, 0, -0.330279), (0.993712, 0, -0.111964), (0.993712, 0, -0.111964), (0.993712, 0, -0.111964), (0.993712, 0, -0.111964), (0.993712, 0, 0.111964), (0.993712, 0, 0.111964), (0.993712, 0, 0.111964), (0.993712, 0, 0.111964), (0.943883, 0, 0.330279), (0.943883, 0, 0.330279), (0.943883, 0, 0.330279), (0.943883, 0, 0.330279), (0.846724, 0, 0.532032), (0.846724, 0, 0.532032), (0.846724, 0, 0.532032), (0.846724, 0, 0.532032), (0.707107, 0, 0.707107), (0.707107, 0, 0.707107), (0.707107, 0, 0.707107), (0.707107, 0, 0.707107), (0.532032, 0, 0.846724), (0.532032, 0, 0.846724), (0.532032, 0, 0.846724), (0.532032, 0, 0.846724), (0.330279, 0, 0.943883), (0.330279, 0, 0.943883), (0.330279, 0, 0.943883), (0.330279, 0, 0.943883), (0.111964, 0, 0.993712), (0.111964, 0, 0.993712), (0.111964, 0, 0.993712), (0.111964, 0, 0.993712), (-0.111964, 0, 0.993712), (-0.111964, 0, 0.993712), (-0.111964, 0, 0.993712), (-0.111964, 0, 0.993712), (-0.330279, 0, 0.943883), (-0.330279, 0, 0.943883), (-0.330279, 0, 0.943883), (-0.330279, 0, 0.943883), (-0.532032, 0, 0.846724), (-0.532032, 0, 0.846724), (-0.532032, 0, 0.846724), (-0.532032, 0, 0.846724), (-0.707107, 0, 0.707107), (-0.707107, 0, 0.707107), (-0.707107, 0, 0.707107), (-0.707107, 0, 0.707107), (-0.846724, 0, 0.532032), (-0.846724, 0, 0.532032), (-0.846724, 0, 0.532032), (-0.846724, 0, 0.532032), (-0.943883, 0, 0.330279), (-0.943883, 0, 0.330279), (-0.943883, 0, 0.330279), (-0.943883, 0, 0.330279), (-0.993712, 0, 0.111964), (-0.993712, 0, 0.111964), (-0.993712, 0, 0.111964), (-0.993712, 0, 0.111964), (0, -1, 2.54198e-16), (0, -1, 2.54198e-16), (0, -1, 2.54198e-16), (0, -1, 2.54198e-16), (0, -1, 2.54198e-16), (0, -1, 2.54198e-16), (0, -1, 2.54198e-16), (0, -1, 2.54198e-16), (0, -1, 2.54198e-16), (0, -1, 2.54198e-16), (0, -1, 2.54198e-16), (0, -1, 2.54198e-16), (0, -1, 2.54198e-16), (0, -1, 2.54198e-16), (0, -1, 2.54198e-16), (0, -1, 2.54198e-16), (0, -1, 2.54198e-16), (0, -1, 2.54198e-16), (0, -1, 2.54198e-16), (0, -1, 2.54198e-16), (0, -1, 2.54198e-16), (0, -1, 2.54198e-16), (0, -1, 2.54198e-16), (0, -1, 2.54198e-16), (0, -1, 2.54198e-16), (0, -1, 2.54198e-16), (0, -1, 2.54198e-16), (0, -1, 2.54198e-16), (0, 1, -2.2363e-16), (0, 1, -2.2363e-16), (0, 1, -2.2363e-16), (0, 1, -2.2363e-16), (0, 1, -2.2363e-16), (0, 1, -2.2363e-16), (0, 1, -2.2363e-16), (0, 1, -2.2363e-16), (0, 1, -2.2363e-16), (0, 1, -2.2363e-16), (0, 1, -2.2363e-16), (0, 1, -2.2363e-16), (0, 1, -2.2363e-16), (0, 1, -2.2363e-16), (0, 1, -2.2363e-16), (0, 1, -2.2363e-16), (0, 1, -2.2363e-16), (0, 1, -2.2363e-16), (0, 1, -2.2363e-16), (0, 1, -2.2363e-16), (0, 1, -2.2363e-16), (0, 1, -2.2363e-16), (0, 1, -2.2363e-16), (0, 1, -2.2363e-16), (0, 1, -2.2363e-16), (0, 1, -2.2363e-16), (0, 1, -2.2363e-16), (0, 1, -2.2363e-16)] (interpolation = "faceVarying")
        float3[] extent = [(-0.008, 0.04145, -0.0680624), (0.044, 0.05545, -0.0160624)]
        uniform token subdivisionScheme = "none"
        bool doubleSided = false
        color3f[] primvars:displayColor = [(0.62, 0.8, 0.9)] (interpolation = "constant")
        float[] primvars:displayRoughness = [0.25] (interpolation = "constant")
    }
    def Mesh "OutletHole"
    {
        point3f[] points = [(0.031, 0.04845, -0.0420624), (0.031, 0.05845, -0.0420624), (0.030557, 0.04845, -0.0386978), (0.030557, 0.05845, -0.0386978), (0.0292583, 0.04845, -0.0355624), (0.0292583, 0.05845, -0.0355624), (0.0271924, 0.04845, -0.03287), (0.0271924, 0.05845, -0.03287), (0.0245, 0.04845, -0.0308041), (0.0245, 0.05845, -0.0308041), (0.0213646, 0.04845, -0.0295054), (0.0213646, 0.05845, -0.0295054), (0.018, 0.04845, -0.0290624), (0.018, 0.05845, -0.0290624), (0.0146354, 0.04845, -0.0295054), (0.0146354, 0.05845, -0.0295054), (0.0115, 0.04845, -0.0308041), (0.0115, 0.05845, -0.0308041), (0.00880761, 0.04845, -0.03287), (0.00880761, 0.05845, -0.03287), (0.00674167, 0.04845, -0.0355624), (0.00674167, 0.05845, -0.0355624), (0.00544296, 0.04845, -0.0386978), (0.00544296, 0.05845, -0.0386978), (0.005, 0.04845, -0.0420624), (0.005, 0.05845, -0.0420624), (0.00544296, 0.04845, -0.045427), (0.00544296, 0.05845, -0.045427), (0.00674167, 0.04845, -0.0485624), (0.00674167, 0.05845, -0.0485624), (0.00880761, 0.04845, -0.0512548), (0.00880761, 0.05845, -0.0512548), (0.0115, 0.04845, -0.0533207), (0.0115, 0.05845, -0.0533207), (0.0146354, 0.04845, -0.0546194), (0.0146354, 0.05845, -0.0546194), (0.018, 0.04845, -0.0550624), (0.018, 0.05845, -0.0550624), (0.0213646, 0.04845, -0.0546194), (0.0213646, 0.05845, -0.0546194), (0.0245, 0.04845, -0.0533207), (0.0245, 0.05845, -0.0533207), (0.0271924, 0.04845, -0.0512548), (0.0271924, 0.05845, -0.0512548), (0.0292583, 0.04845, -0.0485624), (0.0292583, 0.05845, -0.0485624), (0.030557, 0.04845, -0.045427), (0.030557, 0.05845, -0.045427)]
        int[] faceVertexCounts = [4, 4, 4, 4, 4, 4, 4, 4, 4, 4, 4, 4, 4, 4, 4, 4, 4, 4, 4, 4, 4, 4, 4, 4, 24, 24]
        int[] faceVertexIndices = [0, 2, 3, 1, 2, 4, 5, 3, 4, 6, 7, 5, 6, 8, 9, 7, 8, 10, 11, 9, 10, 12, 13, 11, 12, 14, 15, 13, 14, 16, 17, 15, 16, 18, 19, 17, 18, 20, 21, 19, 20, 22, 23, 21, 22, 24, 25, 23, 24, 26, 27, 25, 26, 28, 29, 27, 28, 30, 31, 29, 30, 32, 33, 31, 32, 34, 35, 33, 34, 36, 37, 35, 36, 38, 39, 37, 38, 40, 41, 39, 40, 42, 43, 41, 42, 44, 45, 43, 44, 46, 47, 45, 46, 0, 1, 47, 1, 3, 5, 7, 9, 11, 13, 15, 17, 19, 21, 23, 25, 27, 29, 31, 33, 35, 37, 39, 41, 43, 45, 47, 46, 44, 42, 40, 38, 36, 34, 32, 30, 28, 26, 24, 22, 20, 18, 16, 14, 12, 10, 8, 6, 4, 2, 0]
        normal3f[] normals = [(-0.991445, 0, -0.130526), (-0.991445, 0, -0.130526), (-0.991445, 0, -0.130526), (-0.991445, 0, -0.130526), (-0.92388, 0, -0.382683), (-0.92388, 0, -0.382683), (-0.92388, 0, -0.382683), (-0.92388, 0, -0.382683), (-0.793353, 0, -0.608761), (-0.793353, 0, -0.608761), (-0.793353, 0, -0.608761), (-0.793353, 0, -0.608761), (-0.608761, 0, -0.793353), (-0.608761, 0, -0.793353), (-0.608761, 0, -0.793353), (-0.608761, 0, -0.793353), (-0.382683, 0, -0.92388), (-0.382683, 0, -0.92388), (-0.382683, 0, -0.92388), (-0.382683, 0, -0.92388), (-0.130526, 0, -0.991445), (-0.130526, 0, -0.991445), (-0.130526, 0, -0.991445), (-0.130526, 0, -0.991445), (0.130526, 0, -0.991445), (0.130526, 0, -0.991445), (0.130526, 0, -0.991445), (0.130526, 0, -0.991445), (0.382683, 0, -0.92388), (0.382683, 0, -0.92388), (0.382683, 0, -0.92388), (0.382683, 0, -0.92388), (0.608761, 0, -0.793353), (0.608761, 0, -0.793353), (0.608761, 0, -0.793353), (0.608761, 0, -0.793353), (0.793353, 0, -0.608761), (0.793353, 0, -0.608761), (0.793353, 0, -0.608761), (0.793353, 0, -0.608761), (0.92388, 0, -0.382683), (0.92388, 0, -0.382683), (0.92388, 0, -0.382683), (0.92388, 0, -0.382683), (0.991445, 0, -0.130526), (0.991445, 0, -0.130526), (0.991445, 0, -0.130526), (0.991445, 0, -0.130526), (0.991445, 0, 0.130526), (0.991445, 0, 0.130526), (0.991445, 0, 0.130526), (0.991445, 0, 0.130526), (0.92388, 0, 0.382683), (0.92388, 0, 0.382683), (0.92388, 0, 0.382683), (0.92388, 0, 0.382683), (0.793353, 0, 0.608761), (0.793353, 0, 0.608761), (0.793353, 0, 0.608761), (0.793353, 0, 0.608761), (0.608761, 0, 0.793353), (0.608761, 0, 0.793353), (0.608761, 0, 0.793353), (0.608761, 0, 0.793353), (0.382683, 0, 0.92388), (0.382683, 0, 0.92388), (0.382683, 0, 0.92388), (0.382683, 0, 0.92388), (0.130526, 0, 0.991445), (0.130526, 0, 0.991445), (0.130526, 0, 0.991445), (0.130526, 0, 0.991445), (-0.130526, 0, 0.991445), (-0.130526, 0, 0.991445), (-0.130526, 0, 0.991445), (-0.130526, 0, 0.991445), (-0.382683, 0, 0.92388), (-0.382683, 0, 0.92388), (-0.382683, 0, 0.92388), (-0.382683, 0, 0.92388), (-0.608761, 0, 0.793353), (-0.608761, 0, 0.793353), (-0.608761, 0, 0.793353), (-0.608761, 0, 0.793353), (-0.793353, 0, 0.608761), (-0.793353, 0, 0.608761), (-0.793353, 0, 0.608761), (-0.793353, 0, 0.608761), (-0.92388, 0, 0.382683), (-0.92388, 0, 0.382683), (-0.92388, 0, 0.382683), (-0.92388, 0, 0.382683), (-0.991445, 0, 0.130526), (-0.991445, 0, 0.130526), (-0.991445, 0, 0.130526), (-0.991445, 0, 0.130526), (0, -1, 3.3566e-16), (0, -1, 3.3566e-16), (0, -1, 3.3566e-16), (0, -1, 3.3566e-16), (0, -1, 3.3566e-16), (0, -1, 3.3566e-16), (0, -1, 3.3566e-16), (0, -1, 3.3566e-16), (0, -1, 3.3566e-16), (0, -1, 3.3566e-16), (0, -1, 3.3566e-16), (0, -1, 3.3566e-16), (0, -1, 3.3566e-16), (0, -1, 3.3566e-16), (0, -1, 3.3566e-16), (0, -1, 3.3566e-16), (0, -1, 3.3566e-16), (0, -1, 3.3566e-16), (0, -1, 3.3566e-16), (0, -1, 3.3566e-16), (0, -1, 3.3566e-16), (0, -1, 3.3566e-16), (0, -1, 3.3566e-16), (0, -1, 3.3566e-16), (0, 1, -7.746e-17), (0, 1, -7.746e-17), (0, 1, -7.746e-17), (0, 1, -7.746e-17), (0, 1, -7.746e-17), (0, 1, -7.746e-17), (0, 1, -7.746e-17), (0, 1, -7.746e-17), (0, 1, -7.746e-17), (0, 1, -7.746e-17), (0, 1, -7.746e-17), (0, 1, -7.746e-17), (0, 1, -7.746e-17), (0, 1, -7.746e-17), (0, 1, -7.746e-17), (0, 1, -7.746e-17), (0, 1, -7.746e-17), (0, 1, -7.746e-17), (0, 1, -7.746e-17), (0, 1, -7.746e-17), (0, 1, -7.746e-17), (0, 1, -7.746e-17), (0, 1, -7.746e-17), (0, 1, -7.746e-17)] (interpolation = "faceVarying")
        float3[] extent = [(0.005, 0.04845, -0.0550624), (0.031, 0.05845, -0.0290624)]
        uniform token subdivisionScheme = "none"
        bool doubleSided = false
        color3f[] primvars:displayColor = [(0.1, 0.13, 0.16)] (interpolation = "constant")
        float[] primvars:displayRoughness = [0.4] (interpolation = "constant")
    }
    def Mesh "DoseButtons"
    {
        point3f[] points = [(-0.0071, 0.05145, -0.0563624), (-0.0071, 0.05745, -0.0563624), (-0.00756891, 0.05145, -0.0546124), (-0.00756891, 0.05745, -0.0546124), (-0.00885, 0.05145, -0.0533313), (-0.00885, 0.05745, -0.0533313), (-0.0106, 0.05145, -0.0528624), (-0.0106, 0.05745, -0.0528624), (-0.01235, 0.05145, -0.0533313), (-0.01235, 0.05745, -0.0533313), (-0.0136311, 0.05145, -0.0546124), (-0.0136311, 0.05745, -0.0546124), (-0.0141, 0.05145, -0.0563624), (-0.0141, 0.05745, -0.0563624), (-0.0136311, 0.05145, -0.0581124), (-0.0136311, 0.05745, -0.0581124), (-0.01235, 0.05145, -0.0593935), (-0.01235, 0.05745, -0.0593935), (-0.0106, 0.05145, -0.0598624), (-0.0106, 0.05745, -0.0598624), (-0.00885, 0.05145, -0.0593935), (-0.00885, 0.05745, -0.0593935), (-0.00756891, 0.05145, -0.0581124), (-0.00756891, 0.05745, -0.0581124), (0.00434, 0.05145, -0.0563624), (0.00434, 0.05745, -0.0563624), (0.00387109, 0.05145, -0.0546124), (0.00387109, 0.05745, -0.0546124), (0.00259, 0.05145, -0.0533313), (0.00259, 0.05745, -0.0533313), (0.00084, 0.05145, -0.0528624), (0.00084, 0.05745, -0.0528624), (-0.00091, 0.05145, -0.0533313), (-0.00091, 0.05745, -0.0533313), (-0.00219109, 0.05145, -0.0546124), (-0.00219109, 0.05745, -0.0546124), (-0.00266, 0.05145, -0.0563624), (-0.00266, 0.05745, -0.0563624), (-0.00219109, 0.05145, -0.0581124), (-0.00219109, 0.05745, -0.0581124), (-0.00091, 0.05145, -0.0593935), (-0.00091, 0.05745, -0.0593935), (0.00084, 0.05145, -0.0598624), (0.00084, 0.05745, -0.0598624), (0.00259, 0.05145, -0.0593935), (0.00259, 0.05745, -0.0593935), (0.00387109, 0.05145, -0.0581124), (0.00387109, 0.05745, -0.0581124), (0.01578, 0.05145, -0.0563624), (0.01578, 0.05745, -0.0563624), (0.0153111, 0.05145, -0.0546124), (0.0153111, 0.05745, -0.0546124), (0.01403, 0.05145, -0.0533313), (0.01403, 0.05745, -0.0533313), (0.01228, 0.05145, -0.0528624), (0.01228, 0.05745, -0.0528624), (0.01053, 0.05145, -0.0533313), (0.01053, 0.05745, -0.0533313), (0.00924891, 0.05145, -0.0546124), (0.00924891, 0.05745, -0.0546124), (0.00878, 0.05145, -0.0563624), (0.00878, 0.05745, -0.0563624), (0.00924891, 0.05145, -0.0581124), (0.00924891, 0.05745, -0.0581124), (0.01053, 0.05145, -0.0593935), (0.01053, 0.05745, -0.0593935), (0.01228, 0.05145, -0.0598624), (0.01228, 0.05745, -0.0598624), (0.01403, 0.05145, -0.0593935), (0.01403, 0.05745, -0.0593935), (0.0153111, 0.05145, -0.0581124), (0.0153111, 0.05745, -0.0581124), (0.02722, 0.05145, -0.0563624), (0.02722, 0.05745, -0.0563624), (0.0267511, 0.05145, -0.0546124), (0.0267511, 0.05745, -0.0546124), (0.02547, 0.05145, -0.0533313), (0.02547, 0.05745, -0.0533313), (0.02372, 0.05145, -0.0528624), (0.02372, 0.05745, -0.0528624), (0.02197, 0.05145, -0.0533313), (0.02197, 0.05745, -0.0533313), (0.0206889, 0.05145, -0.0546124), (0.0206889, 0.05745, -0.0546124), (0.02022, 0.05145, -0.0563624), (0.02022, 0.05745, -0.0563624), (0.0206889, 0.05145, -0.0581124), (0.0206889, 0.05745, -0.0581124), (0.02197, 0.05145, -0.0593935), (0.02197, 0.05745, -0.0593935), (0.02372, 0.05145, -0.0598624), (0.02372, 0.05745, -0.0598624), (0.02547, 0.05145, -0.0593935), (0.02547, 0.05745, -0.0593935), (0.0267511, 0.05145, -0.0581124), (0.0267511, 0.05745, -0.0581124), (0.03866, 0.05145, -0.0563624), (0.03866, 0.05745, -0.0563624), (0.0381911, 0.05145, -0.0546124), (0.0381911, 0.05745, -0.0546124), (0.03691, 0.05145, -0.0533313), (0.03691, 0.05745, -0.0533313), (0.03516, 0.05145, -0.0528624), (0.03516, 0.05745, -0.0528624), (0.03341, 0.05145, -0.0533313), (0.03341, 0.05745, -0.0533313), (0.0321289, 0.05145, -0.0546124), (0.0321289, 0.05745, -0.0546124), (0.03166, 0.05145, -0.0563624), (0.03166, 0.05745, -0.0563624), (0.0321289, 0.05145, -0.0581124), (0.0321289, 0.05745, -0.0581124), (0.03341, 0.05145, -0.0593935), (0.03341, 0.05745, -0.0593935), (0.03516, 0.05145, -0.0598624), (0.03516, 0.05745, -0.0598624), (0.03691, 0.05145, -0.0593935), (0.03691, 0.05745, -0.0593935), (0.0381911, 0.05145, -0.0581124), (0.0381911, 0.05745, -0.0581124), (0.0501, 0.05145, -0.0563624), (0.0501, 0.05745, -0.0563624), (0.0496311, 0.05145, -0.0546124), (0.0496311, 0.05745, -0.0546124), (0.04835, 0.05145, -0.0533313), (0.04835, 0.05745, -0.0533313), (0.0466, 0.05145, -0.0528624), (0.0466, 0.05745, -0.0528624), (0.04485, 0.05145, -0.0533313), (0.04485, 0.05745, -0.0533313), (0.0435689, 0.05145, -0.0546124), (0.0435689, 0.05745, -0.0546124), (0.0431, 0.05145, -0.0563624), (0.0431, 0.05745, -0.0563624), (0.0435689, 0.05145, -0.0581124), (0.0435689, 0.05745, -0.0581124), (0.04485, 0.05145, -0.0593935), (0.04485, 0.05745, -0.0593935), (0.0466, 0.05145, -0.0598624), (0.0466, 0.05745, -0.0598624), (0.04835, 0.05145, -0.0593935), (0.04835, 0.05745, -0.0593935), (0.0496311, 0.05145, -0.0581124), (0.0496311, 0.05745, -0.0581124)]
        int[] faceVertexCounts = [4, 4, 4, 4, 4, 4, 4, 4, 4, 4, 4, 4, 12, 12, 4, 4, 4, 4, 4, 4, 4, 4, 4, 4, 4, 4, 12, 12, 4, 4, 4, 4, 4, 4, 4, 4, 4, 4, 4, 4, 12, 12, 4, 4, 4, 4, 4, 4, 4, 4, 4, 4, 4, 4, 12, 12, 4, 4, 4, 4, 4, 4, 4, 4, 4, 4, 4, 4, 12, 12, 4, 4, 4, 4, 4, 4, 4, 4, 4, 4, 4, 4, 12, 12]
        int[] faceVertexIndices = [0, 2, 3, 1, 2, 4, 5, 3, 4, 6, 7, 5, 6, 8, 9, 7, 8, 10, 11, 9, 10, 12, 13, 11, 12, 14, 15, 13, 14, 16, 17, 15, 16, 18, 19, 17, 18, 20, 21, 19, 20, 22, 23, 21, 22, 0, 1, 23, 1, 3, 5, 7, 9, 11, 13, 15, 17, 19, 21, 23, 22, 20, 18, 16, 14, 12, 10, 8, 6, 4, 2, 0, 24, 26, 27, 25, 26, 28, 29, 27, 28, 30, 31, 29, 30, 32, 33, 31, 32, 34, 35, 33, 34, 36, 37, 35, 36, 38, 39, 37, 38, 40, 41, 39, 40, 42, 43, 41, 42, 44, 45, 43, 44, 46, 47, 45, 46, 24, 25, 47, 25, 27, 29, 31, 33, 35, 37, 39, 41, 43, 45, 47, 46, 44, 42, 40, 38, 36, 34, 32, 30, 28, 26, 24, 48, 50, 51, 49, 50, 52, 53, 51, 52, 54, 55, 53, 54, 56, 57, 55, 56, 58, 59, 57, 58, 60, 61, 59, 60, 62, 63, 61, 62, 64, 65, 63, 64, 66, 67, 65, 66, 68, 69, 67, 68, 70, 71, 69, 70, 48, 49, 71, 49, 51, 53, 55, 57, 59, 61, 63, 65, 67, 69, 71, 70, 68, 66, 64, 62, 60, 58, 56, 54, 52, 50, 48, 72, 74, 75, 73, 74, 76, 77, 75, 76, 78, 79, 77, 78, 80, 81, 79, 80, 82, 83, 81, 82, 84, 85, 83, 84, 86, 87, 85, 86, 88, 89, 87, 88, 90, 91, 89, 90, 92, 93, 91, 92, 94, 95, 93, 94, 72, 73, 95, 73, 75, 77, 79, 81, 83, 85, 87, 89, 91, 93, 95, 94, 92, 90, 88, 86, 84, 82, 80, 78, 76, 74, 72, 96, 98, 99, 97, 98, 100, 101, 99, 100, 102, 103, 101, 102, 104, 105, 103, 104, 106, 107, 105, 106, 108, 109, 107, 108, 110, 111, 109, 110, 112, 113, 111, 112, 114, 115, 113, 114, 116, 117, 115, 116, 118, 119, 117, 118, 96, 97, 119, 97, 99, 101, 103, 105, 107, 109, 111, 113, 115, 117, 119, 118, 116, 114, 112, 110, 108, 106, 104, 102, 100, 98, 96, 120, 122, 123, 121, 122, 124, 125, 123, 124, 126, 127, 125, 126, 128, 129, 127, 128, 130, 131, 129, 130, 132, 133, 131, 132, 134, 135, 133, 134, 136, 137, 135, 136, 138, 139, 137, 138, 140, 141, 139, 140, 142, 143, 141, 142, 120, 121, 143, 121, 123, 125, 127, 129, 131, 133, 135, 137, 139, 141, 143, 142, 140, 138, 136, 134, 132, 130, 128, 126, 124, 122, 120]
        normal3f[] normals = [(-0.965926, 0, -0.258819), (-0.965926, 0, -0.258819), (-0.965926, 0, -0.258819), (-0.965926, 0, -0.258819), (-0.707107, 0, -0.707107), (-0.707107, 0, -0.707107), (-0.707107, 0, -0.707107), (-0.707107, 0, -0.707107), (-0.258819, 0, -0.965926), (-0.258819, 0, -0.965926), (-0.258819, 0, -0.965926), (-0.258819, 0, -0.965926), (0.258819, 0, -0.965926), (0.258819, 0, -0.965926), (0.258819, 0, -0.965926), (0.258819, 0, -0.965926), (0.707107, 0, -0.707107), (0.707107, 0, -0.707107), (0.707107, 0, -0.707107), (0.707107, 0, -0.707107), (0.965926, 0, -0.258819), (0.965926, 0, -0.258819), (0.965926, 0, -0.258819), (0.965926, 0, -0.258819), (0.965926, 0, 0.258819), (0.965926, 0, 0.258819), (0.965926, 0, 0.258819), (0.965926, 0, 0.258819), (0.707107, 0, 0.707107), (0.707107, 0, 0.707107), (0.707107, 0, 0.707107), (0.707107, 0, 0.707107), (0.258819, 0, 0.965926), (0.258819, 0, 0.965926), (0.258819, 0, 0.965926), (0.258819, 0, 0.965926), (-0.258819, 0, 0.965926), (-0.258819, 0, 0.965926), (-0.258819, 0, 0.965926), (-0.258819, 0, 0.965926), (-0.707107, 0, 0.707107), (-0.707107, 0, 0.707107), (-0.707107, 0, 0.707107), (-0.707107, 0, 0.707107), (-0.965926, 0, 0.258819), (-0.965926, 0, 0.258819), (-0.965926, 0, 0.258819), (-0.965926, 0, 0.258819), (0, -1, 2.76582e-16), (0, -1, 2.76582e-16), (0, -1, 2.76582e-16), (0, -1, 2.76582e-16), (0, -1, 2.76582e-16), (0, -1, 2.76582e-16), (0, -1, 2.76582e-16), (0, -1, 2.76582e-16), (0, -1, 2.76582e-16), (0, -1, 2.76582e-16), (0, -1, 2.76582e-16), (0, -1, 2.76582e-16), (0, 1, 1.84388e-16), (0, 1, 1.84388e-16), (0, 1, 1.84388e-16), (0, 1, 1.84388e-16), (0, 1, 1.84388e-16), (0, 1, 1.84388e-16), (0, 1, 1.84388e-16), (0, 1, 1.84388e-16), (0, 1, 1.84388e-16), (0, 1, 1.84388e-16), (0, 1, 1.84388e-16), (0, 1, 1.84388e-16), (-0.965926, 0, -0.258819), (-0.965926, 0, -0.258819), (-0.965926, 0, -0.258819), (-0.965926, 0, -0.258819), (-0.707107, 0, -0.707107), (-0.707107, 0, -0.707107), (-0.707107, 0, -0.707107), (-0.707107, 0, -0.707107), (-0.258819, 0, -0.965926), (-0.258819, 0, -0.965926), (-0.258819, 0, -0.965926), (-0.258819, 0, -0.965926), (0.258819, 0, -0.965926), (0.258819, 0, -0.965926), (0.258819, 0, -0.965926), (0.258819, 0, -0.965926), (0.707107, 0, -0.707107), (0.707107, 0, -0.707107), (0.707107, 0, -0.707107), (0.707107, 0, -0.707107), (0.965926, 0, -0.258819), (0.965926, 0, -0.258819), (0.965926, 0, -0.258819), (0.965926, 0, -0.258819), (0.965926, 0, 0.258819), (0.965926, 0, 0.258819), (0.965926, 0, 0.258819), (0.965926, 0, 0.258819), (0.707107, 0, 0.707107), (0.707107, 0, 0.707107), (0.707107, 0, 0.707107), (0.707107, 0, 0.707107), (0.258819, 0, 0.965926), (0.258819, 0, 0.965926), (0.258819, 0, 0.965926), (0.258819, 0, 0.965926), (-0.258819, 0, 0.965926), (-0.258819, 0, 0.965926), (-0.258819, 0, 0.965926), (-0.258819, 0, 0.965926), (-0.707107, 0, 0.707107), (-0.707107, 0, 0.707107), (-0.707107, 0, 0.707107), (-0.707107, 0, 0.707107), (-0.965926, 0, 0.258819), (-0.965926, 0, 0.258819), (-0.965926, 0, 0.258819), (-0.965926, 0, 0.258819), (0, -1, 6.45358e-16), (0, -1, 6.45358e-16), (0, -1, 6.45358e-16), (0, -1, 6.45358e-16), (0, -1, 6.45358e-16), (0, -1, 6.45358e-16), (0, -1, 6.45358e-16), (0, -1, 6.45358e-16), (0, -1, 6.45358e-16), (0, -1, 6.45358e-16), (0, -1, 6.45358e-16), (0, -1, 6.45358e-16), (0, 1, 1.4751e-15), (0, 1, 1.4751e-15), (0, 1, 1.4751e-15), (0, 1, 1.4751e-15), (0, 1, 1.4751e-15), (0, 1, 1.4751e-15), (0, 1, 1.4751e-15), (0, 1, 1.4751e-15), (0, 1, 1.4751e-15), (0, 1, 1.4751e-15), (0, 1, 1.4751e-15), (0, 1, 1.4751e-15), (-0.965926, 0, -0.258819), (-0.965926, 0, -0.258819), (-0.965926, 0, -0.258819), (-0.965926, 0, -0.258819), (-0.707107, 0, -0.707107), (-0.707107, 0, -0.707107), (-0.707107, 0, -0.707107), (-0.707107, 0, -0.707107), (-0.258819, 0, -0.965926), (-0.258819, 0, -0.965926), (-0.258819, 0, -0.965926), (-0.258819, 0, -0.965926), (0.258819, 0, -0.965926), (0.258819, 0, -0.965926), (0.258819, 0, -0.965926), (0.258819, 0, -0.965926), (0.707107, 0, -0.707107), (0.707107, 0, -0.707107), (0.707107, 0, -0.707107), (0.707107, 0, -0.707107), (0.965926, 0, -0.258819), (0.965926, 0, -0.258819), (0.965926, 0, -0.258819), (0.965926, 0, -0.258819), (0.965926, 0, 0.258819), (0.965926, 0, 0.258819), (0.965926, 0, 0.258819), (0.965926, 0, 0.258819), (0.707107, 0, 0.707107), (0.707107, 0, 0.707107), (0.707107, 0, 0.707107), (0.707107, 0, 0.707107), (0.258819, 0, 0.965926), (0.258819, 0, 0.965926), (0.258819, 0, 0.965926), (0.258819, 0, 0.965926), (-0.258819, 0, 0.965926), (-0.258819, 0, 0.965926), (-0.258819, 0, 0.965926), (-0.258819, 0, 0.965926), (-0.707107, 0, 0.707107), (-0.707107, 0, 0.707107), (-0.707107, 0, 0.707107), (-0.707107, 0, 0.707107), (-0.965926, 0, 0.258819), (-0.965926, 0, 0.258819), (-0.965926, 0, 0.258819), (-0.965926, 0, 0.258819), (0, -1, 2.76582e-16), (0, -1, 2.76582e-16), (0, -1, 2.76582e-16), (0, -1, 2.76582e-16), (0, -1, 2.76582e-16), (0, -1, 2.76582e-16), (0, -1, 2.76582e-16), (0, -1, 2.76582e-16), (0, -1, 2.76582e-16), (0, -1, 2.76582e-16), (0, -1, 2.76582e-16), (0, -1, 2.76582e-16), (0, 1, 1.84388e-16), (0, 1, 1.84388e-16), (0, 1, 1.84388e-16), (0, 1, 1.84388e-16), (0, 1, 1.84388e-16), (0, 1, 1.84388e-16), (0, 1, 1.84388e-16), (0, 1, 1.84388e-16), (0, 1, 1.84388e-16), (0, 1, 1.84388e-16), (0, 1, 1.84388e-16), (0, 1, 1.84388e-16), (-0.965926, 0, -0.258819), (-0.965926, 0, -0.258819), (-0.965926, 0, -0.258819), (-0.965926, 0, -0.258819), (-0.707107, 0, -0.707107), (-0.707107, 0, -0.707107), (-0.707107, 0, -0.707107), (-0.707107, 0, -0.707107), (-0.258819, 0, -0.965926), (-0.258819, 0, -0.965926), (-0.258819, 0, -0.965926), (-0.258819, 0, -0.965926), (0.258819, 0, -0.965926), (0.258819, 0, -0.965926), (0.258819, 0, -0.965926), (0.258819, 0, -0.965926), (0.707107, 0, -0.707107), (0.707107, 0, -0.707107), (0.707107, 0, -0.707107), (0.707107, 0, -0.707107), (0.965926, 0, -0.258819), (0.965926, 0, -0.258819), (0.965926, 0, -0.258819), (0.965926, 0, -0.258819), (0.965926, 0, 0.258819), (0.965926, 0, 0.258819), (0.965926, 0, 0.258819), (0.965926, 0, 0.258819), (0.707107, 0, 0.707107), (0.707107, 0, 0.707107), (0.707107, 0, 0.707107), (0.707107, 0, 0.707107), (0.258819, 0, 0.965926), (0.258819, 0, 0.965926), (0.258819, 0, 0.965926), (0.258819, 0, 0.965926), (-0.258819, 0, 0.965926), (-0.258819, 0, 0.965926), (-0.258819, 0, 0.965926), (-0.258819, 0, 0.965926), (-0.707107, 0, 0.707107), (-0.707107, 0, 0.707107), (-0.707107, 0, 0.707107), (-0.707107, 0, 0.707107), (-0.965926, 0, 0.258819), (-0.965926, 0, 0.258819), (-0.965926, 0, 0.258819), (-0.965926, 0, 0.258819), (0, -1, 3.68776e-16), (0, -1, 3.68776e-16), (0, -1, 3.68776e-16), (0, -1, 3.68776e-16), (0, -1, 3.68776e-16), (0, -1, 3.68776e-16), (0, -1, 3.68776e-16), (0, -1, 3.68776e-16), (0, -1, 3.68776e-16), (0, -1, 3.68776e-16), (0, -1, 3.68776e-16), (0, -1, 3.68776e-16), (0, 1, 3.68776e-16), (0, 1, 3.68776e-16), (0, 1, 3.68776e-16), (0, 1, 3.68776e-16), (0, 1, 3.68776e-16), (0, 1, 3.68776e-16), (0, 1, 3.68776e-16), (0, 1, 3.68776e-16), (0, 1, 3.68776e-16), (0, 1, 3.68776e-16), (0, 1, 3.68776e-16), (0, 1, 3.68776e-16), (-0.965926, 0, -0.258819), (-0.965926, 0, -0.258819), (-0.965926, 0, -0.258819), (-0.965926, 0, -0.258819), (-0.707107, 0, -0.707107), (-0.707107, 0, -0.707107), (-0.707107, 0, -0.707107), (-0.707107, 0, -0.707107), (-0.258819, 0, -0.965926), (-0.258819, 0, -0.965926), (-0.258819, 0, -0.965926), (-0.258819, 0, -0.965926), (0.258819, 0, -0.965926), (0.258819, 0, -0.965926), (0.258819, 0, -0.965926), (0.258819, 0, -0.965926), (0.707107, 0, -0.707107), (0.707107, 0, -0.707107), (0.707107, 0, -0.707107), (0.707107, 0, -0.707107), (0.965926, 0, -0.258819), (0.965926, 0, -0.258819), (0.965926, 0, -0.258819), (0.965926, 0, -0.258819), (0.965926, 0, 0.258819), (0.965926, 0, 0.258819), (0.965926, 0, 0.258819), (0.965926, 0, 0.258819), (0.707107, 0, 0.707107), (0.707107, 0, 0.707107), (0.707107, 0, 0.707107), (0.707107, 0, 0.707107), (0.258819, 0, 0.965926), (0.258819, 0, 0.965926), (0.258819, 0, 0.965926), (0.258819, 0, 0.965926), (-0.258819, 0, 0.965926), (-0.258819, 0, 0.965926), (-0.258819, 0, 0.965926), (-0.258819, 0, 0.965926), (-0.707107, 0, 0.707107), (-0.707107, 0, 0.707107), (-0.707107, 0, 0.707107), (-0.707107, 0, 0.707107), (-0.965926, 0, 0.258819), (-0.965926, 0, 0.258819), (-0.965926, 0, 0.258819), (-0.965926, 0, 0.258819), (0, -1, -6.45358e-16), (0, -1, -6.45358e-16), (0, -1, -6.45358e-16), (0, -1, -6.45358e-16), (0, -1, -6.45358e-16), (0, -1, -6.45358e-16), (0, -1, -6.45358e-16), (0, -1, -6.45358e-16), (0, -1, -6.45358e-16), (0, -1, -6.45358e-16), (0, -1, -6.45358e-16), (0, -1, -6.45358e-16), (0, 1, 3.68776e-16), (0, 1, 3.68776e-16), (0, 1, 3.68776e-16), (0, 1, 3.68776e-16), (0, 1, 3.68776e-16), (0, 1, 3.68776e-16), (0, 1, 3.68776e-16), (0, 1, 3.68776e-16), (0, 1, 3.68776e-16), (0, 1, 3.68776e-16), (0, 1, 3.68776e-16), (0, 1, 3.68776e-16), (-0.965926, 0, -0.258819), (-0.965926, 0, -0.258819), (-0.965926, 0, -0.258819), (-0.965926, 0, -0.258819), (-0.707107, 0, -0.707107), (-0.707107, 0, -0.707107), (-0.707107, 0, -0.707107), (-0.707107, 0, -0.707107), (-0.258819, 0, -0.965926), (-0.258819, 0, -0.965926), (-0.258819, 0, -0.965926), (-0.258819, 0, -0.965926), (0.258819, 0, -0.965926), (0.258819, 0, -0.965926), (0.258819, 0, -0.965926), (0.258819, 0, -0.965926), (0.707107, 0, -0.707107), (0.707107, 0, -0.707107), (0.707107, 0, -0.707107), (0.707107, 0, -0.707107), (0.965926, 0, -0.258819), (0.965926, 0, -0.258819), (0.965926, 0, -0.258819), (0.965926, 0, -0.258819), (0.965926, 0, 0.258819), (0.965926, 0, 0.258819), (0.965926, 0, 0.258819), (0.965926, 0, 0.258819), (0.707107, 0, 0.707107), (0.707107, 0, 0.707107), (0.707107, 0, 0.707107), (0.707107, 0, 0.707107), (0.258819, 0, 0.965926), (0.258819, 0, 0.965926), (0.258819, 0, 0.965926), (0.258819, 0, 0.965926), (-0.258819, 0, 0.965926), (-0.258819, 0, 0.965926), (-0.258819, 0, 0.965926), (-0.258819, 0, 0.965926), (-0.707107, 0, 0.707107), (-0.707107, 0, 0.707107), (-0.707107, 0, 0.707107), (-0.707107, 0, 0.707107), (-0.965926, 0, 0.258819), (-0.965926, 0, 0.258819), (-0.965926, 0, 0.258819), (-0.965926, 0, 0.258819), (0, -1, -6.45358e-16), (0, -1, -6.45358e-16), (0, -1, -6.45358e-16), (0, -1, -6.45358e-16), (0, -1, -6.45358e-16), (0, -1, -6.45358e-16), (0, -1, -6.45358e-16), (0, -1, -6.45358e-16), (0, -1, -6.45358e-16), (0, -1, -6.45358e-16), (0, -1, -6.45358e-16), (0, -1, -6.45358e-16), (0, 1, 3.68776e-16), (0, 1, 3.68776e-16), (0, 1, 3.68776e-16), (0, 1, 3.68776e-16), (0, 1, 3.68776e-16), (0, 1, 3.68776e-16), (0, 1, 3.68776e-16), (0, 1, 3.68776e-16), (0, 1, 3.68776e-16), (0, 1, 3.68776e-16), (0, 1, 3.68776e-16), (0, 1, 3.68776e-16)] (interpolation = "faceVarying")
        float3[] extent = [(-0.0141, 0.05145, -0.0598624), (0.0501, 0.05745, -0.0528624)]
        uniform token subdivisionScheme = "none"
        bool doubleSided = false
        color3f[] primvars:displayColor = [(0.2, 0.22, 0.25)] (interpolation = "constant")
        float[] primvars:displayRoughness = [0.5] (interpolation = "constant")
    }
    def Mesh "LogoMark"
    {
        point3f[] points = [(-0.0308026, 0.04445, 0.0412064), (-0.0308026, 0.04445, 0.0612064), (-0.0308026, 0.04945, 0.0412064), (-0.0308026, 0.04945, 0.0612064), (-0.0108026, 0.04445, 0.0412064), (-0.0108026, 0.04445, 0.0612064), (-0.0108026, 0.04945, 0.0412064), (-0.0108026, 0.04945, 0.0612064)]
        int[] faceVertexCounts = [4, 4, 4, 4, 4, 4]
        int[] faceVertexIndices = [4, 6, 7, 5, 0, 1, 3, 2, 2, 3, 7, 6, 0, 4, 5, 1, 1, 5, 7, 3, 0, 2, 6, 4]
        normal3f[] normals = [(1, 0, 0), (1, 0, 0), (1, 0, 0), (1, 0, 0), (-1, 0, 0), (-1, 0, 0), (-1, 0, 0), (-1, 0, 0), (0, 1, 0), (0, 1, 0), (0, 1, 0), (0, 1, 0), (0, -1, 0), (0, -1, 0), (0, -1, 0), (0, -1, 0), (0, 0, 1), (0, 0, 1), (0, 0, 1), (0, 0, 1), (0, 0, -1), (0, 0, -1), (0, 0, -1), (0, 0, -1)] (interpolation = "faceVarying")
        float3[] extent = [(-0.0308026, 0.04445, 0.0412064), (-0.0108026, 0.04945, 0.0612064)]
        uniform token subdivisionScheme = "none"
        bool doubleSided = false
        color3f[] primvars:displayColor = [(0.95, 0.45, 0.12)] (interpolation = "constant")
        float[] primvars:displayRoughness = [0.3] (interpolation = "constant")
    }
    def Mesh "LogoWord"
    {
        point3f[] points = [(-0.0068026, 0.04465, 0.0452064), (-0.0068026, 0.04465, 0.0572064), (-0.0068026, 0.04865, 0.0452064), (-0.0068026, 0.04865, 0.0572064), (0.0531974, 0.04465, 0.0452064), (0.0531974, 0.04465, 0.0572064), (0.0531974, 0.04865, 0.0452064), (0.0531974, 0.04865, 0.0572064)]
        int[] faceVertexCounts = [4, 4, 4, 4, 4, 4]
        int[] faceVertexIndices = [4, 6, 7, 5, 0, 1, 3, 2, 2, 3, 7, 6, 0, 4, 5, 1, 1, 5, 7, 3, 0, 2, 6, 4]
        normal3f[] normals = [(1, 0, 0), (1, 0, 0), (1, 0, 0), (1, 0, 0), (-1, 0, 0), (-1, 0, 0), (-1, 0, 0), (-1, 0, 0), (0, 1, 0), (0, 1, 0), (0, 1, 0), (0, 1, 0), (0, -1, 0), (0, -1, 0), (0, -1, 0), (0, -1, 0), (0, 0, 1), (0, 0, 1), (0, 0, 1), (0, 0, 1), (0, 0, -1), (0, 0, -1), (0, 0, -1), (0, 0, -1)] (interpolation = "faceVarying")
        float3[] extent = [(-0.0068026, 0.04465, 0.0452064), (0.0531974, 0.04865, 0.0572064)]
        uniform token subdivisionScheme = "none"
        bool doubleSided = false
        color3f[] primvars:displayColor = [(0.5, 0.53, 0.57)] (interpolation = "constant")
        float[] primvars:displayRoughness = [0.4] (interpolation = "constant")
    }
    def Mesh "IntakeCap"
    {
        point3f[] points = [(-0.12457, 0.03, 0.036576), (-0.11257, 0.03, 0.036576), (-0.12457, 0.0294236, 0.0424287), (-0.11257, 0.0294236, 0.0424287), (-0.12457, 0.0277164, 0.0480565), (-0.11257, 0.0277164, 0.0480565), (-0.12457, 0.0249441, 0.0532431), (-0.11257, 0.0249441, 0.0532431), (-0.12457, 0.0212132, 0.0577892), (-0.11257, 0.0212132, 0.0577892), (-0.12457, 0.0166671, 0.0615201), (-0.11257, 0.0166671, 0.0615201), (-0.12457, 0.0114805, 0.0642924), (-0.11257, 0.0114805, 0.0642924), (-0.12457, 0.00585271, 0.0659996), (-0.11257, 0.00585271, 0.0659996), (-0.12457, 1.83697e-18, 0.066576), (-0.11257, 1.83697e-18, 0.066576), (-0.12457, -0.00585271, 0.0659996), (-0.11257, -0.00585271, 0.0659996), (-0.12457, -0.0114805, 0.0642924), (-0.11257, -0.0114805, 0.0642924), (-0.12457, -0.0166671, 0.0615201), (-0.11257, -0.0166671, 0.0615201), (-0.12457, -0.0212132, 0.0577892), (-0.11257, -0.0212132, 0.0577892), (-0.12457, -0.0249441, 0.0532431), (-0.11257, -0.0249441, 0.0532431), (-0.12457, -0.0277164, 0.0480565), (-0.11257, -0.0277164, 0.0480565), (-0.12457, -0.0294236, 0.0424287), (-0.11257, -0.0294236, 0.0424287), (-0.12457, -0.03, 0.036576), (-0.11257, -0.03, 0.036576), (-0.12457, -0.0294236, 0.0307233), (-0.11257, -0.0294236, 0.0307233), (-0.12457, -0.0277164, 0.0250955), (-0.11257, -0.0277164, 0.0250955), (-0.12457, -0.0249441, 0.0199089), (-0.11257, -0.0249441, 0.0199089), (-0.12457, -0.0212132, 0.0153628), (-0.11257, -0.0212132, 0.0153628), (-0.12457, -0.0166671, 0.0116319), (-0.11257, -0.0166671, 0.0116319), (-0.12457, -0.0114805, 0.00885961), (-0.11257, -0.0114805, 0.00885961), (-0.12457, -0.00585271, 0.00715244), (-0.11257, -0.00585271, 0.00715244), (-0.12457, -5.51091e-18, 0.006576), (-0.11257, -5.51091e-18, 0.006576), (-0.12457, 0.00585271, 0.00715244), (-0.11257, 0.00585271, 0.00715244), (-0.12457, 0.0114805, 0.00885961), (-0.11257, 0.0114805, 0.00885961), (-0.12457, 0.0166671, 0.0116319), (-0.11257, 0.0166671, 0.0116319), (-0.12457, 0.0212132, 0.0153628), (-0.11257, 0.0212132, 0.0153628), (-0.12457, 0.0249441, 0.0199089), (-0.11257, 0.0249441, 0.0199089), (-0.12457, 0.0277164, 0.0250955), (-0.11257, 0.0277164, 0.0250955), (-0.12457, 0.0294236, 0.0307233), (-0.11257, 0.0294236, 0.0307233)]
        int[] faceVertexCounts = [4, 4, 4, 4, 4, 4, 4, 4, 4, 4, 4, 4, 4, 4, 4, 4, 4, 4, 4, 4, 4, 4, 4, 4, 4, 4, 4, 4, 4, 4, 4, 4, 32, 32]
        int[] faceVertexIndices = [0, 2, 3, 1, 2, 4, 5, 3, 4, 6, 7, 5, 6, 8, 9, 7, 8, 10, 11, 9, 10, 12, 13, 11, 12, 14, 15, 13, 14, 16, 17, 15, 16, 18, 19, 17, 18, 20, 21, 19, 20, 22, 23, 21, 22, 24, 25, 23, 24, 26, 27, 25, 26, 28, 29, 27, 28, 30, 31, 29, 30, 32, 33, 31, 32, 34, 35, 33, 34, 36, 37, 35, 36, 38, 39, 37, 38, 40, 41, 39, 40, 42, 43, 41, 42, 44, 45, 43, 44, 46, 47, 45, 46, 48, 49, 47, 48, 50, 51, 49, 50, 52, 53, 51, 52, 54, 55, 53, 54, 56, 57, 55, 56, 58, 59, 57, 58, 60, 61, 59, 60, 62, 63, 61, 62, 0, 1, 63, 1, 3, 5, 7, 9, 11, 13, 15, 17, 19, 21, 23, 25, 27, 29, 31, 33, 35, 37, 39, 41, 43, 45, 47, 49, 51, 53, 55, 57, 59, 61, 63, 62, 60, 58, 56, 54, 52, 50, 48, 46, 44, 42, 40, 38, 36, 34, 32, 30, 28, 26, 24, 22, 20, 18, 16, 14, 12, 10, 8, 6, 4, 2, 0]
        normal3f[] normals = [(0, 0.995185, 0.0980171), (0, 0.995185, 0.0980171), (0, 0.995185, 0.0980171), (0, 0.995185, 0.0980171), (0, 0.95694, 0.290285), (0, 0.95694, 0.290285), (0, 0.95694, 0.290285), (0, 0.95694, 0.290285), (0, 0.881921, 0.471397), (0, 0.881921, 0.471397), (0, 0.881921, 0.471397), (0, 0.881921, 0.471397), (0, 0.77301, 0.634393), (0, 0.77301, 0.634393), (0, 0.77301, 0.634393), (0, 0.77301, 0.634393), (0, 0.634393, 0.77301), (0, 0.634393, 0.77301), (0, 0.634393, 0.77301), (0, 0.634393, 0.77301), (0, 0.471397, 0.881921), (0, 0.471397, 0.881921), (0, 0.471397, 0.881921), (0, 0.471397, 0.881921), (0, 0.290285, 0.95694), (0, 0.290285, 0.95694), (0, 0.290285, 0.95694), (0, 0.290285, 0.95694), (0, 0.0980171, 0.995185), (0, 0.0980171, 0.995185), (0, 0.0980171, 0.995185), (0, 0.0980171, 0.995185), (0, -0.0980171, 0.995185), (0, -0.0980171, 0.995185), (0, -0.0980171, 0.995185), (0, -0.0980171, 0.995185), (0, -0.290285, 0.95694), (0, -0.290285, 0.95694), (0, -0.290285, 0.95694), (0, -0.290285, 0.95694), (0, -0.471397, 0.881921), (0, -0.471397, 0.881921), (0, -0.471397, 0.881921), (0, -0.471397, 0.881921), (0, -0.634393, 0.77301), (0, -0.634393, 0.77301), (0, -0.634393, 0.77301), (0, -0.634393, 0.77301), (0, -0.77301, 0.634393), (0, -0.77301, 0.634393), (0, -0.77301, 0.634393), (0, -0.77301, 0.634393), (0, -0.881921, 0.471397), (0, -0.881921, 0.471397), (0, -0.881921, 0.471397), (0, -0.881921, 0.471397), (0, -0.95694, 0.290285), (0, -0.95694, 0.290285), (0, -0.95694, 0.290285), (0, -0.95694, 0.290285), (0, -0.995185, 0.0980171), (0, -0.995185, 0.0980171), (0, -0.995185, 0.0980171), (0, -0.995185, 0.0980171), (0, -0.995185, -0.0980171), (0, -0.995185, -0.0980171), (0, -0.995185, -0.0980171), (0, -0.995185, -0.0980171), (0, -0.95694, -0.290285), (0, -0.95694, -0.290285), (0, -0.95694, -0.290285), (0, -0.95694, -0.290285), (0, -0.881921, -0.471397), (0, -0.881921, -0.471397), (0, -0.881921, -0.471397), (0, -0.881921, -0.471397), (0, -0.77301, -0.634393), (0, -0.77301, -0.634393), (0, -0.77301, -0.634393), (0, -0.77301, -0.634393), (0, -0.634393, -0.77301), (0, -0.634393, -0.77301), (0, -0.634393, -0.77301), (0, -0.634393, -0.77301), (0, -0.471397, -0.881921), (0, -0.471397, -0.881921), (0, -0.471397, -0.881921), (0, -0.471397, -0.881921), (0, -0.290285, -0.95694), (0, -0.290285, -0.95694), (0, -0.290285, -0.95694), (0, -0.290285, -0.95694), (0, -0.0980171, -0.995185), (0, -0.0980171, -0.995185), (0, -0.0980171, -0.995185), (0, -0.0980171, -0.995185), (0, 0.0980171, -0.995185), (0, 0.0980171, -0.995185), (0, 0.0980171, -0.995185), (0, 0.0980171, -0.995185), (0, 0.290285, -0.95694), (0, 0.290285, -0.95694), (0, 0.290285, -0.95694), (0, 0.290285, -0.95694), (0, 0.471397, -0.881921), (0, 0.471397, -0.881921), (0, 0.471397, -0.881921), (0, 0.471397, -0.881921), (0, 0.634393, -0.77301), (0, 0.634393, -0.77301), (0, 0.634393, -0.77301), (0, 0.634393, -0.77301), (0, 0.77301, -0.634393), (0, 0.77301, -0.634393), (0, 0.77301, -0.634393), (0, 0.77301, -0.634393), (0, 0.881921, -0.471397), (0, 0.881921, -0.471397), (0, 0.881921, -0.471397), (0, 0.881921, -0.471397), (0, 0.95694, -0.290285), (0, 0.95694, -0.290285), (0, 0.95694, -0.290285), (0, 0.95694, -0.290285), (0, 0.995185, -0.0980171), (0, 0.995185, -0.0980171), (0, 0.995185, -0.0980171), (0, 0.995185, -0.0980171), (1, 1.1578e-16, 0), (1, 1.1578e-16, 0), (1, 1.1578e-16, 0), (1, 1.1578e-16, 0), (1, 1.1578e-16, 0), (1, 1.1578e-16, 0), (1, 1.1578e-16, 0), (1, 1.1578e-16, 0), (1, 1.1578e-16, 0), (1, 1.1578e-16, 0), (1, 1.1578e-16, 0), (1, 1.1578e-16, 0), (1, 1.1578e-16, 0), (1, 1.1578e-16, 0), (1, 1.1578e-16, 0), (1, 1.1578e-16, 0), (1, 1.1578e-16, 0), (1, 1.1578e-16, 0), (1, 1.1578e-16, 0), (1, 1.1578e-16, 0), (1, 1.1578e-16, 0), (1, 1.1578e-16, 0), (1, 1.1578e-16, 0), (1, 1.1578e-16, 0), (1, 1.1578e-16, 0), (1, 1.1578e-16, 0), (1, 1.1578e-16, 0), (1, 1.1578e-16, 0), (1, 1.1578e-16, 0), (1, 1.1578e-16, 0), (1, 1.1578e-16, 0), (1, 1.1578e-16, 0), (-1, 2.3156e-16, 0), (-1, 2.3156e-16, 0), (-1, 2.3156e-16, 0), (-1, 2.3156e-16, 0), (-1, 2.3156e-16, 0), (-1, 2.3156e-16, 0), (-1, 2.3156e-16, 0), (-1, 2.3156e-16, 0), (-1, 2.3156e-16, 0), (-1, 2.3156e-16, 0), (-1, 2.3156e-16, 0), (-1, 2.3156e-16, 0), (-1, 2.3156e-16, 0), (-1, 2.3156e-16, 0), (-1, 2.3156e-16, 0), (-1, 2.3156e-16, 0), (-1, 2.3156e-16, 0), (-1, 2.3156e-16, 0), (-1, 2.3156e-16, 0), (-1, 2.3156e-16, 0), (-1, 2.3156e-16, 0), (-1, 2.3156e-16, 0), (-1, 2.3156e-16, 0), (-1, 2.3156e-16, 0), (-1, 2.3156e-16, 0), (-1, 2.3156e-16, 0), (-1, 2.3156e-16, 0), (-1, 2.3156e-16, 0), (-1, 2.3156e-16, 0), (-1, 2.3156e-16, 0), (-1, 2.3156e-16, 0), (-1, 2.3156e-16, 0)] (interpolation = "faceVarying")
        float3[] extent = [(-0.12457, -0.03, 0.006576), (-0.11257, 0.03, 0.066576)]
        uniform token subdivisionScheme = "none"
        bool doubleSided = false
        color3f[] primvars:displayColor = [(0.86, 0.88, 0.9)] (interpolation = "constant")
        float[] primvars:displayRoughness = [0.45] (interpolation = "constant")
    }
    def Mesh "IntakeCenter"
    {
        point3f[] points = [(-0.12307, 0.0186, 0.036576), (-0.11007, 0.0186, 0.036576), (-0.12307, 0.0181337, 0.0407149), (-0.11007, 0.0181337, 0.0407149), (-0.12307, 0.016758, 0.0446462), (-0.11007, 0.016758, 0.0446462), (-0.12307, 0.0145421, 0.0481729), (-0.11007, 0.0145421, 0.0481729), (-0.12307, 0.0115969, 0.0511181), (-0.11007, 0.0115969, 0.0511181), (-0.12307, 0.00807024, 0.053334), (-0.11007, 0.00807024, 0.053334), (-0.12307, 0.00413889, 0.0547097), (-0.11007, 0.00413889, 0.0547097), (-0.12307, 1.13892e-18, 0.055176), (-0.11007, 1.13892e-18, 0.055176), (-0.12307, -0.00413889, 0.0547097), (-0.11007, -0.00413889, 0.0547097), (-0.12307, -0.00807024, 0.053334), (-0.11007, -0.00807024, 0.053334), (-0.12307, -0.0115969, 0.0511181), (-0.11007, -0.0115969, 0.0511181), (-0.12307, -0.0145421, 0.0481729), (-0.11007, -0.0145421, 0.0481729), (-0.12307, -0.016758, 0.0446462), (-0.11007, -0.016758, 0.0446462), (-0.12307, -0.0181337, 0.0407149), (-0.11007, -0.0181337, 0.0407149), (-0.12307, -0.0186, 0.036576), (-0.11007, -0.0186, 0.036576), (-0.12307, -0.0181337, 0.0324371), (-0.11007, -0.0181337, 0.0324371), (-0.12307, -0.016758, 0.0285058), (-0.11007, -0.016758, 0.0285058), (-0.12307, -0.0145421, 0.0249791), (-0.11007, -0.0145421, 0.0249791), (-0.12307, -0.0115969, 0.0220339), (-0.11007, -0.0115969, 0.0220339), (-0.12307, -0.00807024, 0.019818), (-0.11007, -0.00807024, 0.019818), (-0.12307, -0.00413889, 0.0184423), (-0.11007, -0.00413889, 0.0184423), (-0.12307, -3.41676e-18, 0.017976), (-0.11007, -3.41676e-18, 0.017976), (-0.12307, 0.00413889, 0.0184423), (-0.11007, 0.00413889, 0.0184423), (-0.12307, 0.00807024, 0.019818), (-0.11007, 0.00807024, 0.019818), (-0.12307, 0.0115969, 0.0220339), (-0.11007, 0.0115969, 0.0220339), (-0.12307, 0.0145421, 0.0249791), (-0.11007, 0.0145421, 0.0249791), (-0.12307, 0.016758, 0.0285058), (-0.11007, 0.016758, 0.0285058), (-0.12307, 0.0181337, 0.0324371), (-0.11007, 0.0181337, 0.0324371)]
        int[] faceVertexCounts = [4, 4, 4, 4, 4, 4, 4, 4, 4, 4, 4, 4, 4, 4, 4, 4, 4, 4, 4, 4, 4, 4, 4, 4, 4, 4, 4, 4, 28, 28]
        int[] faceVertexIndices = [0, 2, 3, 1, 2, 4, 5, 3, 4, 6, 7, 5, 6, 8, 9, 7, 8, 10, 11, 9, 10, 12, 13, 11, 12, 14, 15, 13, 14, 16, 17, 15, 16, 18, 19, 17, 18, 20, 21, 19, 20, 22, 23, 21, 22, 24, 25, 23, 24, 26, 27, 25, 26, 28, 29, 27, 28, 30, 31, 29, 30, 32, 33, 31, 32, 34, 35, 33, 34, 36, 37, 35, 36, 38, 39, 37, 38, 40, 41, 39, 40, 42, 43, 41, 42, 44, 45, 43, 44, 46, 47, 45, 46, 48, 49, 47, 48, 50, 51, 49, 50, 52, 53, 51, 52, 54, 55, 53, 54, 0, 1, 55, 1, 3, 5, 7, 9, 11, 13, 15, 17, 19, 21, 23, 25, 27, 29, 31, 33, 35, 37, 39, 41, 43, 45, 47, 49, 51, 53, 55, 54, 52, 50, 48, 46, 44, 42, 40, 38, 36, 34, 32, 30, 28, 26, 24, 22, 20, 18, 16, 14, 12, 10, 8, 6, 4, 2, 0]
        normal3f[] normals = [(0, 0.993712, 0.111964), (0, 0.993712, 0.111964), (0, 0.993712, 0.111964), (0, 0.993712, 0.111964), (0, 0.943883, 0.330279), (0, 0.943883, 0.330279), (0, 0.943883, 0.330279), (0, 0.943883, 0.330279), (0, 0.846724, 0.532032), (0, 0.846724, 0.532032), (0, 0.846724, 0.532032), (0, 0.846724, 0.532032), (0, 0.707107, 0.707107), (0, 0.707107, 0.707107), (0, 0.707107, 0.707107), (0, 0.707107, 0.707107), (0, 0.532032, 0.846724), (0, 0.532032, 0.846724), (0, 0.532032, 0.846724), (0, 0.532032, 0.846724), (0, 0.330279, 0.943883), (0, 0.330279, 0.943883), (0, 0.330279, 0.943883), (0, 0.330279, 0.943883), (0, 0.111964, 0.993712), (0, 0.111964, 0.993712), (0, 0.111964, 0.993712), (0, 0.111964, 0.993712), (0, -0.111964, 0.993712), (0, -0.111964, 0.993712), (0, -0.111964, 0.993712), (0, -0.111964, 0.993712), (0, -0.330279, 0.943883), (0, -0.330279, 0.943883), (0, -0.330279, 0.943883), (0, -0.330279, 0.943883), (0, -0.532032, 0.846724), (0, -0.532032, 0.846724), (0, -0.532032, 0.846724), (0, -0.532032, 0.846724), (0, -0.707107, 0.707107), (0, -0.707107, 0.707107), (0, -0.707107, 0.707107), (0, -0.707107, 0.707107), (0, -0.846724, 0.532032), (0, -0.846724, 0.532032), (0, -0.846724, 0.532032), (0, -0.846724, 0.532032), (0, -0.943883, 0.330279), (0, -0.943883, 0.330279), (0, -0.943883, 0.330279), (0, -0.943883, 0.330279), (0, -0.993712, 0.111964), (0, -0.993712, 0.111964), (0, -0.993712, 0.111964), (0, -0.993712, 0.111964), (0, -0.993712, -0.111964), (0, -0.993712, -0.111964), (0, -0.993712, -0.111964), (0, -0.993712, -0.111964), (0, -0.943883, -0.330279), (0, -0.943883, -0.330279), (0, -0.943883, -0.330279), (0, -0.943883, -0.330279), (0, -0.846724, -0.532032), (0, -0.846724, -0.532032), (0, -0.846724, -0.532032), (0, -0.846724, -0.532032), (0, -0.707107, -0.707107), (0, -0.707107, -0.707107), (0, -0.707107, -0.707107), (0, -0.707107, -0.707107), (0, -0.532032, -0.846724), (0, -0.532032, -0.846724), (0, -0.532032, -0.846724), (0, -0.532032, -0.846724), (0, -0.330279, -0.943883), (0, -0.330279, -0.943883), (0, -0.330279, -0.943883), (0, -0.330279, -0.943883), (0, -0.111964, -0.993712), (0, -0.111964, -0.993712), (0, -0.111964, -0.993712), (0, -0.111964, -0.993712), (0, 0.111964, -0.993712), (0, 0.111964, -0.993712), (0, 0.111964, -0.993712), (0, 0.111964, -0.993712), (0, 0.330279, -0.943883), (0, 0.330279, -0.943883), (0, 0.330279, -0.943883), (0, 0.330279, -0.943883), (0, 0.532032, -0.846724), (0, 0.532032, -0.846724), (0, 0.532032, -0.846724), (0, 0.532032, -0.846724), (0, 0.707107, -0.707107), (0, 0.707107, -0.707107), (0, 0.707107, -0.707107), (0, 0.707107, -0.707107), (0, 0.846724, -0.532032), (0, 0.846724, -0.532032), (0, 0.846724, -0.532032), (0, 0.846724, -0.532032), (0, 0.943883, -0.330279), (0, 0.943883, -0.330279), (0, 0.943883, -0.330279), (0, 0.943883, -0.330279), (0, 0.993712, -0.111964), (0, 0.993712, -0.111964), (0, 0.993712, -0.111964), (0, 0.993712, -0.111964), (1, 5.02986e-17, 0), (1, 5.02986e-17, 0), (1, 5.02986e-17, 0), (1, 5.02986e-17, 0), (1, 5.02986e-17, 0), (1, 5.02986e-17, 0), (1, 5.02986e-17, 0), (1, 5.02986e-17, 0), (1, 5.02986e-17, 0), (1, 5.02986e-17, 0), (1, 5.02986e-17, 0), (1, 5.02986e-17, 0), (1, 5.02986e-17, 0), (1, 5.02986e-17, 0), (1, 5.02986e-17, 0), (1, 5.02986e-17, 0), (1, 5.02986e-17, 0), (1, 5.02986e-17, 0), (1, 5.02986e-17, 0), (1, 5.02986e-17, 0), (1, 5.02986e-17, 0), (1, 5.02986e-17, 0), (1, 5.02986e-17, 0), (1, 5.02986e-17, 0), (1, 5.02986e-17, 0), (1, 5.02986e-17, 0), (1, 5.02986e-17, 0), (1, 5.02986e-17, 0), (-1, 2.01194e-16, 0), (-1, 2.01194e-16, 0), (-1, 2.01194e-16, 0), (-1, 2.01194e-16, 0), (-1, 2.01194e-16, 0), (-1, 2.01194e-16, 0), (-1, 2.01194e-16, 0), (-1, 2.01194e-16, 0), (-1, 2.01194e-16, 0), (-1, 2.01194e-16, 0), (-1, 2.01194e-16, 0), (-1, 2.01194e-16, 0), (-1, 2.01194e-16, 0), (-1, 2.01194e-16, 0), (-1, 2.01194e-16, 0), (-1, 2.01194e-16, 0), (-1, 2.01194e-16, 0), (-1, 2.01194e-16, 0), (-1, 2.01194e-16, 0), (-1, 2.01194e-16, 0), (-1, 2.01194e-16, 0), (-1, 2.01194e-16, 0), (-1, 2.01194e-16, 0), (-1, 2.01194e-16, 0), (-1, 2.01194e-16, 0), (-1, 2.01194e-16, 0), (-1, 2.01194e-16, 0), (-1, 2.01194e-16, 0)] (interpolation = "faceVarying")
        float3[] extent = [(-0.12307, -0.0186, 0.017976), (-0.11007, 0.0186, 0.055176)]
        uniform token subdivisionScheme = "none"
        bool doubleSided = false
        color3f[] primvars:displayColor = [(0.55, 0.58, 0.62)] (interpolation = "constant")
        float[] primvars:displayRoughness = [0.5] (interpolation = "constant")
    }
    def Mesh "Display"
    {
        point3f[] points = [(-0.0005088, 0.04445, -0.013), (-0.0005088, 0.04445, 0.013), (-0.0005088, 0.04945, -0.013), (-0.0005088, 0.04945, 0.013), (0.0374912, 0.04445, -0.013), (0.0374912, 0.04445, 0.013), (0.0374912, 0.04945, -0.013), (0.0374912, 0.04945, 0.013)]
        int[] faceVertexCounts = [4, 4, 4, 4, 4, 4]
        int[] faceVertexIndices = [4, 6, 7, 5, 0, 1, 3, 2, 2, 3, 7, 6, 0, 4, 5, 1, 1, 5, 7, 3, 0, 2, 6, 4]
        normal3f[] normals = [(1, 0, 0), (1, 0, 0), (1, 0, 0), (1, 0, 0), (-1, 0, 0), (-1, 0, 0), (-1, 0, 0), (-1, 0, 0), (0, 1, 0), (0, 1, 0), (0, 1, 0), (0, 1, 0), (0, -1, 0), (0, -1, 0), (0, -1, 0), (0, -1, 0), (0, 0, 1), (0, 0, 1), (0, 0, 1), (0, 0, 1), (0, 0, -1), (0, 0, -1), (0, 0, -1), (0, 0, -1)] (interpolation = "faceVarying")
        float3[] extent = [(-0.0005088, 0.04445, -0.013), (0.0374912, 0.04945, 0.013)]
        uniform token subdivisionScheme = "none"
        bool doubleSided = false
        color3f[] primvars:displayColor = [(0.12, 0.16, 0.2)] (interpolation = "constant")
        float[] primvars:displayRoughness = [0.15] (interpolation = "constant")
    }
}

